<?xml version="1.0" standalone="no"?>
<!DOCTYPE svg PUBLIC "-//W3C//DTD SVG 1.1//EN" "http://www.w3.org/Graphics/SVG/1.1/DTD/svg11.dtd" >
<svg xmlns="http://www.w3.org/2000/svg" xmlns:xlink="http://www.w3.org/1999/xlink" version="1.1">
<metadata>
Created by FontForge 20170731 at Tue Jun  5 18:51:55 2018
 By Aleksey,,,
(c) 2015-2017 Apple Inc. All rights reserved.
</metadata>
<defs>
<font id="SFProText-BoldItalic" horiz-adv-x="0" >
  <font-face 
    font-family="SF Pro Text"
    font-weight="700"
    font-style="italic"
    font-stretch="normal"
    units-per-em="2048"
    panose-1="0 0 8 0 0 0 0 0 0 0"
    ascent="1638"
    descent="-410"
    x-height="1103"
    cap-height="1443"
    bbox="-614 -524 2953 2230"
    underline-thickness="197"
    underline-position="-767"
    slope="-12"
    unicode-range="U+0020-1F16B"
  />
<missing-glyph horiz-adv-x="2048" 
d="M-122 -494l44 198h1848l-44 -198h-1848zM-27 -45l44 198h1848l-43 -198h-1849zM68 404l44 199h1848l-44 -199h-1848zM163 854l44 198h1849l-44 -198h-1849zM259 1303l43 198h1848l-43 -198h-1848zM354 1752l43 198h1849l-44 -198h-1848z" />
    <glyph glyph-name=".notdef" horiz-adv-x="2048" 
d="M-122 -494l44 198h1848l-44 -198h-1848zM-27 -45l44 198h1848l-43 -198h-1849zM68 404l44 199h1848l-44 -199h-1848zM163 854l44 198h1849l-44 -198h-1849zM259 1303l43 198h1848l-43 -198h-1848zM354 1752l43 198h1849l-44 -198h-1848z" />
    <glyph glyph-name=".null" 
 />
    <glyph glyph-name="nonmarkingreturn" 
 />
    <glyph glyph-name="space" unicode=" " horiz-adv-x="528" 
 />
    <glyph glyph-name="exclam" unicode="!" horiz-adv-x="729" 
d="M398 1443h320l-233 -968h-267zM276 -30q-82 0 -131.5 47.5t-49.5 117.5q0 77 49 126.5t132 49.5q82 0 131.5 -48t49.5 -118q0 -77 -49.5 -126t-131.5 -49z" />
    <glyph glyph-name="quotedbl" unicode="&#x22;" horiz-adv-x="1016" 
d="M463 831h-250l129 612h250zM925 831h-250l129 612h250z" />
    <glyph glyph-name="numbersign" unicode="#" horiz-adv-x="1360" 
d="M604 0l125 378h-260l-124 -378h-221l124 378h-225l67 222h227l88 262h-230l68 220h231l120 362h221l-118 -362h258l120 362h222l-119 -362h236l-67 -220h-239l-89 -262h241l-67 -222h-243l-124 -378h-222zM518 580h287l101 301h-288z" />
    <glyph glyph-name="dollar" unicode="$" horiz-adv-x="1415" 
d="M775 577l-69 -329q103 4 165 49t62 119q0 57 -34.5 93t-123.5 68zM729 878l68 318q-103 -3 -160 -50t-57 -114q0 -52 34.5 -88.5t114.5 -65.5zM832 845l53 -17q180 -56 262 -142t82 -224q0 -196 -146.5 -322t-397.5 -126h-29l-33 -156h-110l35 166q-191 30 -302 138.5
t-113 277.5h276q9 -67 58.5 -115t130.5 -67l75 353l-46 15q-173 56 -256.5 145t-83.5 226q0 194 143.5 313t373.5 119q28 0 42 -1l34 160h110l-37 -172q173 -33 271 -139t99 -266h-270q-2 63 -41 108.5t-108 64.5z" />
    <glyph glyph-name="percent" unicode="%" horiz-adv-x="2001" 
d="M487 766q-136 0 -219 81.5t-83 224.5q0 104 44.5 193t132 145.5t200.5 56.5q138 0 220.5 -80.5t82.5 -221.5q0 -105 -45.5 -195.5t-133.5 -147t-199 -56.5zM499 945q61 0 103.5 69t42.5 151q0 59 -26 91t-70 32q-42 0 -76.5 -37t-51 -87t-16.5 -98q0 -58 26 -89.5
t68 -31.5zM616 0h-232l1074 1443h232zM1512 -15q-135 0 -218.5 82t-83.5 224q0 104 44.5 193t132 145.5t201.5 56.5q138 0 220.5 -80.5t82.5 -221.5q0 -105 -46 -195.5t-134 -147t-199 -56.5zM1525 164q60 0 103 69t43 150q0 60 -26.5 92t-69.5 32q-63 0 -104 -72.5
t-41 -150.5q0 -57 26 -88.5t69 -31.5z" />
    <glyph glyph-name="ampersand" unicode="&#x26;" horiz-adv-x="1525" 
d="M621 1089q0 -40 21 -84.5t70 -107.5q236 80 236 236q0 59 -41 94.5t-107 35.5q-74 0 -126.5 -51t-52.5 -123zM591 189q148 0 261 68l-262 387q-4 -1 -24.5 -8.5t-22.5 -7.5q-104 -39 -159 -100t-55 -136q0 -89 72 -146t190 -57zM1018 0l-51 76q-179 -104 -400 -104
q-219 0 -365 112.5t-146 282.5q0 283 357 422l72 29q-116 166 -116 294q0 150 123 251.5t306 101.5q172 0 286 -87t114 -219q0 -131 -94 -237.5t-285 -179.5l218 -311q101 133 113 298l3 33h244l-3 -38q-26 -280 -227 -492l155 -232h-304z" />
    <glyph glyph-name="quotesingle" unicode="'" horiz-adv-x="553" 
d="M463 831h-250l129 612h250z" />
    <glyph glyph-name="parenleft" unicode="(" horiz-adv-x="878" 
d="M620 -310h-263q-54 119 -87 311.5t-33 381.5q0 323 126 623t339 518h307q-220 -225 -349 -530.5t-128 -660.5q1 -390 88 -643z" />
    <glyph glyph-name="parenright" unicode=")" horiz-adv-x="878" 
d="M282 1524h263q54 -119 87 -311.5t33 -381.5q0 -323 -126 -623t-339 -518h-308q220 224 349.5 530t128.5 660q-1 389 -88 644z" />
    <glyph glyph-name="asterisk" unicode="*" horiz-adv-x="990" 
d="M835 743l-193 195l-23 -283h-201l100 290l-257 -157l-71 185l291 85l-247 129l135 168l193 -200l23 288h201l-104 -298l266 164l70 -186l-292 -86l244 -126z" />
    <glyph glyph-name="plus" unicode="+" horiz-adv-x="1415" 
d="M817 447l-87 -407h-261l87 407h-388l54 265h388l87 407h261l-87 -407h389l-54 -265h-389z" />
    <glyph glyph-name="comma" unicode="," horiz-adv-x="712" 
d="M148 -391h-205l228 625h286z" />
    <glyph glyph-name="hyphen" unicode="&#x2011;" horiz-adv-x="992" 
d="M146 446l57 273h657l-57 -273h-657z" />
    <glyph glyph-name="hyphen" unicode="-" horiz-adv-x="992" 
d="M146 446l57 273h657l-57 -273h-657z" />
    <glyph glyph-name="period" unicode="." horiz-adv-x="712" 
d="M257 -27q-78 0 -127.5 49.5t-49.5 118.5q0 78 49 128.5t128 50.5t128 -49t49 -119q0 -77 -49 -128t-128 -51z" />
    <glyph glyph-name="slash" unicode="/" horiz-adv-x="817" 
d="M113 -310h-278l893 1834h277z" />
    <glyph glyph-name="zero" unicode="0" horiz-adv-x="1401" 
d="M642 -37q-231 0 -366 151t-135 408q0 204 54 382.5t146.5 304.5t221.5 198.5t275 72.5q232 0 367.5 -150.5t135.5 -408.5q0 -205 -54 -383.5t-147 -304.5t-222 -198t-276 -72zM445 506q0 -139 54.5 -217t151.5 -78q101 0 190 100t142.5 268.5t53.5 358.5
q0 138 -54.5 215.5t-151.5 77.5q-101 0 -190 -99.5t-142.5 -267.5t-53.5 -358z" />
    <glyph glyph-name="one" unicode="1" horiz-adv-x="1051" 
d="M378 0l243 1134h-18l-406 -242l60 294l429 257h301l-307 -1443h-302z" />
    <glyph glyph-name="two" unicode="2" horiz-adv-x="1318" 
d="M228 1021q17 201 174 330t384 129q209 0 347 -111.5t138 -281.5q0 -93 -42.5 -173t-132 -167.5t-267.5 -229.5l-316 -250l-4 -18h630l-51 -249h-1049l47 224l556 448q203 164 266.5 237.5t63.5 149.5q0 78 -59.5 127.5t-152.5 49.5q-88 0 -159.5 -52.5t-93.5 -162.5h-279
z" />
    <glyph glyph-name="three" unicode="3" horiz-adv-x="1366" 
d="M513 629l46 226h192q117 0 189 58t72 152q0 78 -62 126t-162 48q-87 0 -154.5 -47.5t-92.5 -124.5h-279q39 189 188.5 301t363.5 112t352 -106.5t138 -271.5q0 -140 -96 -243t-243 -122l-3 -18q121 -28 186 -105t65 -194q0 -199 -162 -328t-413 -129q-238 0 -388.5 116.5
t-151.5 301.5q0 20 5 60h284v-3q-9 -96 63.5 -159.5t191.5 -63.5q121 0 196 64t75 168q0 81 -67 131.5t-174 50.5h-159z" />
    <glyph glyph-name="four" unicode="4" horiz-adv-x="1413" 
d="M707 0l55 252h-709l49 279q234 313 761 912h439l-201 -940h189l-52 -251h-188l-55 -252h-288zM377 510l-3 -16h444l154 714h-16q-334 -378 -579 -698z" />
    <glyph glyph-name="five" unicode="5" horiz-adv-x="1361" 
d="M651 -37q-225 0 -374 121.5t-149 304.5q0 2 2 38h279v-3q3 -95 74 -154t183 -59q126 0 207.5 84t81.5 212q0 106 -67 169.5t-174 63.5q-69 0 -133 -29.5t-105 -77.5h-277l242 810h899l-53 -251h-656l-111 -347l17 -1q114 114 289 114q176 0 296 -119t120 -299
q0 -166 -73.5 -297.5t-208.5 -205.5t-309 -74z" />
    <glyph glyph-name="six" unicode="6" horiz-adv-x="1406" 
d="M1273 523q0 -156 -77 -284.5t-211 -202t-296 -73.5q-252 0 -396.5 154.5t-144.5 424.5q0 118 21.5 233t62 219.5t102.5 193.5t140 154t178 101.5t212 36.5q216 0 358 -120.5t146 -307.5h-294q-11 83 -72 131t-154 48q-139 0 -242.5 -124t-142.5 -338l18 -1
q64 87 157.5 133.5t204.5 46.5q188 0 309 -119t121 -306zM739 723q-123 0 -208.5 -82t-85.5 -201q0 -101 69.5 -166t178.5 -65q121 0 203 82.5t82 204.5q0 100 -67 163.5t-172 63.5z" />
    <glyph glyph-name="seven" unicode="7" horiz-adv-x="1239" 
d="M78 0l868 1176l4 19h-703l52 248h1017l-52 -251l-858 -1192h-328z" />
    <glyph glyph-name="eight" unicode="8" horiz-adv-x="1416" 
d="M1256 411q0 -129 -77.5 -231.5t-215.5 -159.5t-311 -57q-247 0 -403.5 112.5t-156.5 290.5q0 158 111 273t289 141l4 17q-91 37 -144 110t-53 159q0 179 154 296.5t388 117.5q213 0 358.5 -107.5t145.5 -265.5q0 -138 -90.5 -237t-239.5 -124l-4 -18q115 -40 180 -124.5
t65 -192.5zM692 638q-122 0 -202.5 -69t-80.5 -173q0 -92 70 -147.5t186 -55.5q123 0 203.5 68t80.5 172q0 91 -71.5 148t-185.5 57zM587 1035q0 -78 60.5 -128t154.5 -50q102 0 172.5 63.5t70.5 155.5q0 78 -60.5 128t-154.5 50q-104 0 -173.5 -62.5t-69.5 -156.5z" />
    <glyph glyph-name="nine" unicode="9" horiz-adv-x="1405" 
d="M740 717q123 0 207.5 82t84.5 201q0 102 -67.5 166t-176.5 64q-121 0 -203.5 -82.5t-82.5 -203.5q0 -100 67 -163.5t171 -63.5zM206 918q0 241 168 401.5t419 160.5t393.5 -155t142.5 -428q0 -176 -48.5 -342t-136.5 -298.5t-225 -213t-301 -80.5q-213 0 -357 117.5
t-152 298.5h295q8 -77 70.5 -122.5t160.5 -45.5q144 0 248 124.5t139 335.5l-17 1q-64 -88 -157 -134t-203 -46q-191 0 -315 120.5t-124 305.5z" />
    <glyph glyph-name="colon" unicode=":" horiz-adv-x="712" 
d="M257 -27q-78 0 -127.5 49.5t-49.5 118.5q0 78 49 128.5t128 50.5t128 -49t49 -119q0 -77 -49 -128t-128 -51zM408 677q-78 0 -127.5 49t-49.5 119q0 77 49 128t128 51t128 -49t49 -119q0 -77 -48.5 -128t-128.5 -51z" />
    <glyph glyph-name="semicolon" unicode=";" horiz-adv-x="712" 
d="M408 677q-78 0 -127.5 49t-49.5 119q0 77 49 128t128 51t128 -49t49 -119q0 -77 -48.5 -128t-128.5 -51zM148 -391h-205l228 625h286z" />
    <glyph glyph-name="less" unicode="&#x3c;" horiz-adv-x="1415" 
d="M1174 310l-58 -285l-948 421l54 268l1128 420l-64 -312l-766 -248l-2 -11z" />
    <glyph glyph-name="equal" unicode="=" horiz-adv-x="1415" 
d="M1146 208h-1018l50 250h1018zM1249 701h-1018l51 250h1018z" />
    <glyph glyph-name="greater" unicode="&#x3e;" horiz-adv-x="1415" 
d="M254 849l58 285l948 -421l-54 -268l-1128 -420l64 312l766 248l2 11z" />
    <glyph glyph-name="question" unicode="?" horiz-adv-x="1141" 
d="M190 1053q25 181 159 292t341 111q210 0 339 -101.5t129 -258.5q0 -127 -75 -232t-209 -165q-113 -49 -159 -92t-60 -114l-8 -42h-271l12 63q23 132 78.5 201.5t173.5 121.5q119 55 168.5 109t49.5 126q0 62 -49 103t-134 41q-77 0 -134.5 -44t-77.5 -119h-273zM452 -29
q-82 0 -133.5 45t-51.5 118q0 78 52 129t133 51q79 0 131.5 -45.5t52.5 -117.5q0 -76 -51.5 -128t-132.5 -52z" />
    <glyph glyph-name="at" unicode="@" horiz-adv-x="1899" 
d="M1094 1444q216 0 387.5 -86t267.5 -240.5t96 -349.5q0 -175 -62 -319.5t-170.5 -226.5t-241.5 -82q-106 0 -173.5 45.5t-67.5 117.5q0 5 0.5 13.5t0.5 11.5l-18 -3q-81 -142 -236 -142q-136 0 -218 93.5t-82 249.5q0 206 116 348.5t283 142.5q88 0 153.5 -44t81.5 -116
l18 -1l25 125h207l-121 -557q-5 -24 -5 -38q0 -39 22.5 -60t63.5 -21q61 0 117 64t90 170t34 222q0 230 -162.5 375t-418.5 145q-153 0 -290 -59t-235.5 -160t-156.5 -241.5t-58 -296.5q0 -273 186.5 -435.5t499.5 -161.5q103 0 153 15l-34 -163q-88 -16 -176 -16
q-237 0 -421.5 94t-286.5 264.5t-102 389.5q0 196 71.5 369.5t195 297t297 195t370.5 71.5zM1161 649q0 80 -40 127.5t-108 47.5q-87 0 -148 -84.5t-61 -203.5q0 -78 39.5 -123.5t107.5 -45.5q88 0 149 82t61 200z" />
    <glyph glyph-name="A" unicode="A" horiz-adv-x="1501" 
d="M874 1142l-304 -565h381l-58 565h-19zM1000 0l-35 344h-509l-186 -344h-315l820 1443h349l187 -1443h-311z" />
    <glyph glyph-name="B" unicode="B" horiz-adv-x="1420" 
d="M749 0h-691l307 1443h589q186 0 299.5 -85.5t113.5 -225.5q0 -142 -91.5 -245.5t-234.5 -123.5l-2 -19q119 -22 188.5 -99t69.5 -189q0 -200 -154 -328t-394 -128zM622 1219l-80 -368h240q124 0 202.5 60t78.5 154q0 75 -55.5 114.5t-160.5 39.5h-225zM410 237h287
q129 0 212 66t83 169q0 84 -60.5 129.5t-173.5 45.5h-259z" />
    <glyph glyph-name="C" unicode="C" horiz-adv-x="1533" 
d="M1217 932v14q-5 120 -88.5 193t-216.5 73q-129 0 -236 -81t-168 -224t-61 -318q0 -166 84.5 -262.5t230.5 -96.5q123 0 220 64t132 170h299q-47 -228 -231 -364.5t-446 -136.5q-272 0 -435 165t-163 440q0 263 102 471.5t283 324.5t408 116q163 0 296.5 -66t209.5 -182
t76 -257q0 -28 -2 -43h-294z" />
    <glyph glyph-name="D" unicode="D" horiz-adv-x="1535" 
d="M365 1443h511q276 0 433.5 -155.5t157.5 -431.5q0 -245 -96.5 -440.5t-268.5 -305.5t-388 -110h-655zM618 1187l-201 -930h270q205 0 337 157t132 408q0 170 -92 267.5t-255 97.5h-191z" />
    <glyph glyph-name="E" unicode="E" horiz-adv-x="1273" 
d="M1067 258l-52 -258h-957l307 1443h956l-53 -258h-652l-75 -337h616l-50 -239h-615l-78 -351h653z" />
    <glyph glyph-name="F" unicode="F" horiz-adv-x="1235" 
d="M362 0h-304l307 1443h945l-53 -258h-641l-83 -376h585l-51 -247h-585z" />
    <glyph glyph-name="G" unicode="G" horiz-adv-x="1566" 
d="M1492 760l-37 -184q-58 -299 -240 -456t-467 -157q-275 0 -441.5 167.5t-166.5 443.5q0 263 101 469.5t281 321.5t408 115q158 0 290 -62t210.5 -169.5t82.5 -238.5v-33h-294q-6 104 -92 169t-216 65q-198 0 -330 -175t-132 -441q0 -168 88 -265.5t239 -97.5
q141 0 242 75.5t127 201.5l5 25h-307l47 226h602z" />
    <glyph glyph-name="H" unicode="H" horiz-adv-x="1605" 
d="M1314 0h-305l129 603h-648l-129 -603h-303l307 1443h304l-125 -582h648l125 582h304z" />
    <glyph glyph-name="I" unicode="I" horiz-adv-x="653" 
d="M362 0h-304l307 1443h304z" />
    <glyph glyph-name="J" unicode="J" horiz-adv-x="1229" 
d="M43 382q0 21 1 31h293v-9q1 -77 49.5 -122t130.5 -45q167 0 212 209l213 997h302l-222 -1042q-44 -213 -176.5 -325.5t-341.5 -112.5q-210 0 -338 116.5t-123 302.5z" />
    <glyph glyph-name="K" unicode="K" horiz-adv-x="1454" 
d="M360 0h-302l307 1443h302l-137 -635h18l660 635h357l-670 -653l383 -790h-341l-292 606l-192 -182z" />
    <glyph glyph-name="L" unicode="L" horiz-adv-x="1219" 
d="M1056 263l-54 -263h-944l307 1443h303l-253 -1180h641z" />
    <glyph glyph-name="M" unicode="M" horiz-adv-x="1879" 
d="M340 0h-282l307 1443h347l186 -974h18l610 974h368l-307 -1443h-281l207 965h-16l-560 -887h-201l-173 887h-16z" />
    <glyph glyph-name="N" unicode="N" horiz-adv-x="1573" 
d="M351 0h-293l307 1443h231l479 -929h18l202 929h293l-307 -1443h-229l-483 922h-18z" />
    <glyph glyph-name="O" unicode="O" horiz-adv-x="1618" 
d="M917 1209q-129 0 -236.5 -80.5t-169.5 -221t-62 -309.5q0 -165 89.5 -265t236.5 -100q129 0 236 79.5t168.5 220t61.5 311.5q0 165 -89 265t-235 100zM763 -37q-185 0 -328 80t-219.5 219.5t-76.5 313.5q0 157 39 297.5t110.5 250.5t168.5 190.5t218 123t254 42.5
q282 0 452 -173t170 -440q0 -197 -60.5 -366t-165 -287t-250 -184.5t-312.5 -66.5z" />
    <glyph glyph-name="P" unicode="P" horiz-adv-x="1368" 
d="M365 1443h527q214 0 343.5 -115.5t129.5 -306.5q0 -263 -172.5 -418t-451.5 -155h-282l-97 -448h-303zM618 1195l-110 -502h229q145 0 233 81.5t88 217.5q0 99 -62.5 151t-175.5 52h-202z" />
    <glyph glyph-name="Q" unicode="Q" horiz-adv-x="1618" 
d="M1320 -141h-288l-63 130q-95 -26 -206 -26q-185 0 -328 80t-219.5 219t-76.5 314q0 196 60.5 365t166 287t251.5 185t312 67q141 0 258.5 -46.5t196.5 -128.5t123 -194.5t44 -243.5q0 -244 -91.5 -441.5t-255.5 -315.5zM774 228q49 0 90 10l-113 243h274l48 -84
q81 78 126 194.5t45 253.5q0 167 -89.5 267.5t-236.5 100.5q-130 0 -238 -81t-171 -222.5t-63 -312.5q0 -167 90.5 -268t237.5 -101z" />
    <glyph glyph-name="R" unicode="R" horiz-adv-x="1418" 
d="M58 0l307 1443h571q200 0 326 -114.5t126 -294.5q0 -161 -97 -292t-260 -184l198 -558h-325l-172 523h-258l-112 -523h-304zM619 1199l-98 -444h264q132 0 213.5 70t81.5 182q0 91 -56 141.5t-157 50.5h-248z" />
    <glyph glyph-name="S" unicode="S" horiz-adv-x="1362" 
d="M65 412h292q16 -92 99 -148t201 -56q122 0 198 52t76 137q0 63 -49.5 105.5t-166.5 79.5l-150 47q-160 50 -247.5 152.5t-87.5 241.5q0 130 73.5 234.5t203.5 163.5t291 59q237 0 389.5 -124.5t159.5 -322.5h-285q-14 91 -89.5 146.5t-186.5 55.5q-106 0 -177.5 -50
t-71.5 -126q0 -61 46.5 -105.5t147.5 -76.5l148 -46q184 -58 270 -152t86 -240q0 -214 -165.5 -345t-434.5 -131q-248 0 -402.5 120t-167.5 329z" />
    <glyph glyph-name="T" unicode="T" horiz-adv-x="1349" 
d="M710 0h-304l254 1185h-432l53 258h1168l-53 -258h-432z" />
    <glyph glyph-name="U" unicode="U" horiz-adv-x="1564" 
d="M734 -37q-260 0 -412 131t-154 339q0 64 13 126l187 884h305l-186 -877q-11 -50 -11 -102q3 -108 75.5 -169t200.5 -61q127 0 214 72.5t116 206.5l198 930h304l-211 -997q-48 -229 -215 -356t-424 -127z" />
    <glyph glyph-name="V" unicode="V" horiz-adv-x="1477" 
d="M809 0h-365l-182 1443h321l101 -1101h18l554 1101h340z" />
    <glyph glyph-name="W" unicode="W" horiz-adv-x="2067" 
d="M1108 955l-469 -955h-285l-76 1443h302l16 -1017h16l482 1017h245l59 -1017h16l445 1017h311l-685 -1443h-291l-70 955h-16z" />
    <glyph glyph-name="X" unicode="X" horiz-adv-x="1494" 
d="M-29 0l629 744l-310 699h340l211 -494h18l400 494h337l-635 -732l323 -711h-334l-220 485h-18l-409 -485h-332z" />
    <glyph glyph-name="Y" unicode="Y" horiz-adv-x="1451" 
d="M762 0h-304l114 531l-310 912h316l196 -607h18l447 607h330l-697 -924z" />
    <glyph glyph-name="Z" unicode="Z" horiz-adv-x="1384" 
d="M19 0l42 204l915 963l2 18h-689l53 258h1076l-42 -203l-913 -964l-2 -18h724l-53 -258h-1113z" />
    <glyph glyph-name="bracketleft" unicode="[" horiz-adv-x="878" 
d="M448 1524h561l-46 -223h-281l-298 -1389h281l-46 -222h-561z" />
    <glyph glyph-name="backslash" unicode="\" horiz-adv-x="817" 
d="M315 -310l-52 1834h264l51 -1834h-263z" />
    <glyph glyph-name="bracketright" unicode="]" horiz-adv-x="878" 
d="M454 -310h-562l46 223h282l298 1388h-281l46 223h561z" />
    <glyph glyph-name="asciicircum" unicode="^" horiz-adv-x="990" 
d="M615 1148l-279 -426h-239l435 652h273l159 -652h-235l-96 426h-18z" />
    <glyph glyph-name="underscore" unicode="_" horiz-adv-x="945" 
d="M-188 -334l46 227h949l-46 -227h-949z" />
    <glyph glyph-name="grave" unicode="`" horiz-adv-x="1024" 
d="M661 1251l-133 354h278l63 -354h-208z" />
    <glyph glyph-name="a" unicode="a" horiz-adv-x="1202" 
d="M492 202q93 0 165 52t90 132l21 95l-228 -8q-100 -4 -156.5 -43t-56.5 -104q0 -55 46 -89.5t119 -34.5zM369 -17q-140 0 -234 86t-94 215q0 168 129.5 266.5t361.5 105.5l274 9l15 68q5 25 5 40q0 57 -49 90.5t-133 33.5q-147 0 -192 -98h-275q35 151 167.5 239.5
t320.5 88.5q202 0 325 -89.5t123 -235.5q0 -50 -9 -89l-151 -713h-283l29 136h-18q-47 -71 -131 -112t-181 -41z" />
    <glyph glyph-name="b" unicode="b" horiz-adv-x="1340" 
d="M705 -17q-117 0 -208.5 60t-119.5 157h-18l-43 -200h-283l324 1524h291l-122 -575l19 1q117 171 332 171q167 0 272 -115.5t105 -306.5q0 -202 -72.5 -366.5t-198.5 -257t-278 -92.5zM641 230q131 0 221 120.5t90 298.5q0 111 -56 171t-150 60q-131 0 -223.5 -122.5
t-92.5 -292.5q0 -111 58 -173t153 -62z" />
    <glyph glyph-name="c" unicode="c" horiz-adv-x="1208" 
d="M700 1127q193 0 317 -107t137 -254q2 -13 2 -43h-276q-4 76 -59.5 120.5t-139.5 44.5q-131 0 -215 -122t-84 -303q0 -120 58 -183t150 -63q82 0 141 40.5t84 115.5h279q-29 -172 -169.5 -284.5t-351.5 -112.5q-220 0 -351 126.5t-131 338.5q0 195 76 351t215.5 245.5
t317.5 89.5z" />
    <glyph glyph-name="d" unicode="d" horiz-adv-x="1342" 
d="M469 -17q-168 0 -275 116t-107 314q0 201 74 364t202 253.5t283 90.5q119 0 202.5 -57.5t110.5 -148.5h18l130 609h292l-323 -1524h-283l32 153h-18q-59 -80 -145 -125t-193 -45zM599 223q131 0 223 122.5t92 293.5q0 111 -58.5 173t-153.5 62q-132 0 -222.5 -117.5
t-90.5 -293.5q0 -110 59.5 -175t150.5 -65z" />
    <glyph glyph-name="e" unicode="e" horiz-adv-x="1251" 
d="M401 669h479q3 18 3 38q0 85 -55 140.5t-149 55.5q-99 0 -174 -64t-104 -170zM582 -24q-218 0 -353 127t-135 347q0 302 166 489.5t431 187.5q201 0 333 -127t132 -335q0 -82 -17 -180h-770q0 -4 -0.5 -15.5t-0.5 -15.5q0 -122 66 -186.5t166 -64.5q163 0 218 114h280
q-38 -154 -176.5 -247.5t-339.5 -93.5z" />
    <glyph glyph-name="f" unicode="f" horiz-adv-x="836" 
d="M111 0l184 863h-180l47 229h177l25 126q31 155 129 226t274 71q101 0 184 -23l-43 -204q-39 11 -113 11q-123 0 -148 -118l-18 -89h234l-47 -229h-228l-184 -863h-293z" />
    <glyph glyph-name="g" unicode="g" horiz-adv-x="1327" 
d="M488 -417q-221 0 -359.5 94.5t-137.5 239.5h290q5 -55 65.5 -89t160.5 -34q112 0 178 49t86 139l44 194l-18 1q-109 -155 -325 -155q-166 0 -273.5 115.5t-107.5 300.5q0 190 72 347t197.5 246.5t276.5 89.5q114 0 203 -58t120 -152h17l42 192h284l-246 -1147
q-37 -175 -186.5 -274t-382.5 -99zM599 237q129 0 218.5 116t89.5 286q0 107 -58 171t-156 64q-130 0 -216.5 -112.5t-86.5 -285.5q0 -110 56.5 -174.5t152.5 -64.5z" />
    <glyph glyph-name="h" unicode="h" horiz-adv-x="1301" 
d="M33 0l323 1515h292l-125 -578h18q119 187 333 187q154 0 243.5 -90t89.5 -227q0 -58 -14 -131l-142 -676h-291l132 628q10 48 10 84q0 79 -49 125t-134 46q-97 0 -164.5 -62t-89.5 -162l-140 -659h-292z" />
    <glyph glyph-name="i" unicode="i" horiz-adv-x="599" 
d="M37 0l234 1103h291l-234 -1103h-291zM486 1268q-68 0 -116.5 49t-48.5 118t48.5 117.5t116.5 48.5t116 -48.5t48 -117.5q0 -70 -48 -118.5t-116 -48.5z" />
    <glyph glyph-name="j" unicode="j" horiz-adv-x="599" 
d="M563 1103l-247 -1159q-66 -320 -404 -320q-80 0 -138 13l49 225q30 -6 64 -6q62 0 96.5 28t48.5 92l240 1127h291zM486 1268q-68 0 -116.5 49t-48.5 118t48.5 117.5t116.5 48.5t116 -48.5t48 -117.5q0 -70 -48 -118.5t-116 -48.5z" />
    <glyph glyph-name="k" unicode="k" horiz-adv-x="1210" 
d="M325 0h-292l324 1524h291l-177 -834h18l448 413h340l-529 -482l328 -621h-321l-242 457l-110 -94z" />
    <glyph glyph-name="l" unicode="l" horiz-adv-x="593" 
d="M33 0l324 1524h293l-324 -1524h-293z" />
    <glyph glyph-name="m" unicode="m" horiz-adv-x="1893" 
d="M25 0l234 1103h283l-39 -182h18q51 91 135 145.5t180 54.5q110 0 185 -58t98 -143h18q128 201 355 201q134 0 221 -88t87 -221q0 -59 -14 -131l-144 -681h-291l134 636q10 46 10 84q0 69 -42 112.5t-113 43.5q-79 0 -141.5 -58t-83.5 -156l-140 -662h-282l135 636
q10 53 10 84q0 69 -42 112.5t-113 43.5q-79 0 -141.5 -57t-82.5 -152l-142 -667h-292z" />
    <glyph glyph-name="n" unicode="n" horiz-adv-x="1285" 
d="M25 0l235 1103h283l-38 -175h18q121 193 339 193q150 0 239.5 -91.5t89.5 -231.5q0 -60 -15 -131l-141 -667h-291l132 619q10 46 10 84q0 77 -47.5 125t-131.5 48q-95 0 -162 -62.5t-89 -163.5l-139 -650h-292z" />
    <glyph glyph-name="o" unicode="o" horiz-adv-x="1299" 
d="M603 215q122 0 210 122t88 291q0 123 -53 192t-148 69q-130 0 -217 -121t-87 -301q0 -116 56 -184t151 -68zM716 1127q221 0 355.5 -132t134.5 -351q0 -189 -80.5 -342t-222.5 -239.5t-317 -86.5q-222 0 -357.5 132.5t-135.5 349.5q0 190 80.5 343t223 239.5t319.5 86.5z
" />
    <glyph glyph-name="p" unicode="p" horiz-adv-x="1334" 
d="M635 230q131 0 221 120.5t90 298.5q0 111 -56 171t-150 60q-131 0 -223.5 -122.5t-92.5 -292.5q0 -111 58 -173t153 -62zM241 -366h-292l313 1469h283l-33 -153h18q59 80 146 125.5t194 45.5q167 0 272.5 -115.5t105.5 -306.5q0 -203 -73 -367t-199.5 -256.5
t-281.5 -92.5q-118 0 -201.5 59.5t-111.5 157.5h-18z" />
    <glyph glyph-name="q" unicode="q" horiz-adv-x="1336" 
d="M595 223q131 0 223.5 122.5t92.5 293.5q0 111 -58 173t-153 62q-131 0 -221 -118.5t-90 -294.5q0 -114 56 -176t150 -62zM999 -366h-291l110 519h-17q-125 -170 -337 -170q-167 0 -272 117t-105 311q0 201 73.5 364t200.5 254.5t282 91.5q120 0 209 -58.5t118 -147.5h18
l40 188h283z" />
    <glyph glyph-name="r" unicode="r" horiz-adv-x="908" 
d="M21 0l235 1103h283l-31 -152h18q94 170 274 170q91 0 142 -24l-58 -268q-75 30 -168 30q-218 0 -272 -251l-131 -608h-292z" />
    <glyph glyph-name="s" unicode="s" horiz-adv-x="1150" 
d="M169 770q0 161 126.5 259t330.5 98q200 0 322.5 -89.5t133.5 -238.5h-267q-10 52 -61.5 83.5t-127.5 31.5q-77 0 -126.5 -32t-49.5 -82q0 -36 29 -62t93 -47l179 -63q134 -46 194.5 -115t60.5 -175q0 -162 -133 -262t-348 -100q-212 0 -345.5 94.5t-139.5 247.5h281
q12 -57 68 -93t137 -36q85 0 136.5 32t51.5 85q0 36 -25.5 61t-87.5 45l-172 60q-132 45 -196 117.5t-64 180.5z" />
    <glyph glyph-name="t" unicode="t" horiz-adv-x="846" 
d="M482 -4q-142 0 -227.5 62.5t-85.5 172.5q0 43 11 95l116 537h-177l48 229h176l58 273h292l-58 -273h235l-49 -229h-233l-104 -479q-8 -40 -8 -64q0 -98 122 -98q51 0 87 6l-45 -219q-54 -13 -158 -13z" />
    <glyph glyph-name="u" unicode="u" horiz-adv-x="1285" 
d="M1260 1103l-233 -1103h-283l36 167h-18q-108 -191 -328 -191q-151 0 -244 88t-93 234q0 58 15 141l139 664h293l-131 -616q-10 -47 -10 -86q0 -173 174 -173q98 0 164.5 62.5t89.5 168.5l137 644h292z" />
    <glyph glyph-name="v" unicode="v" horiz-adv-x="1184" 
d="M169 1103h294l63 -807h18l394 807h312l-611 -1103h-331z" />
    <glyph glyph-name="w" unicode="w" horiz-adv-x="1735" 
d="M1791 1103l-527 -1103h-312l-35 758h-18l-355 -758h-306l-60 1103h284l5 -787h18l355 787h283l25 -791h18l334 791h291z" />
    <glyph glyph-name="x" unicode="x" horiz-adv-x="1192" 
d="M564 354h-18l-277 -354h-319l463 552l-231 551h318l129 -358h18l270 358h325l-466 -554l235 -549h-307z" />
    <glyph glyph-name="y" unicode="y" horiz-adv-x="1208" 
d="M89 -403q-19 0 -73.5 3t-61.5 4l48 233q20 -6 82 -6q151 0 211 122l22 44l-144 1106h297l64 -822h18l405 822h312l-630 -1143q-106 -200 -231.5 -281.5t-318.5 -81.5z" />
    <glyph glyph-name="z" unicode="z" horiz-adv-x="1160" 
d="M4 0l35 172l689 681l2 18h-532l49 232h898l-41 -192l-652 -661l-1 -18h519l-48 -232h-918z" />
    <glyph glyph-name="braceleft" unicode="{" horiz-adv-x="878" 
d="M248 262q11 50 11 87q0 63 -41 91t-137 28l57 277q115 0 173 46t82 162l44 204q40 200 152.5 283.5t320.5 83.5h98l-45 -220h-44q-95 0 -143 -46.5t-72 -158.5l-49 -220q-26 -119 -107 -199t-203 -91l-4 -18q110 -16 157 -63t47 -123q0 -29 -11 -82l-41 -189
q-11 -53 -11 -90q0 -60 32 -88.5t106 -28.5h44l-44 -217h-98q-158 0 -243.5 73t-85.5 198q0 48 14 114z" />
    <glyph glyph-name="bar" unicode="|" horiz-adv-x="817" 
d="M359 -310h-266l389 1834h266z" />
    <glyph glyph-name="braceright" unicode="}" horiz-adv-x="878" 
d="M654 952q-11 -52 -11 -87q0 -64 41 -92t137 -28l-57 -277q-115 0 -173 -46t-82 -162l-44 -203q-40 -200 -152.5 -283.5t-321.5 -83.5h-98l46 219h43q95 0 143.5 46.5t72.5 159.5l49 220q26 118 107 198t203 91l4 19q-110 15 -157 62t-47 123q0 29 11 82l41 190
q11 52 11 90q0 60 -32 88.5t-106 28.5h-44l44 217h98q158 0 243.5 -73.5t85.5 -198.5q0 -47 -14 -113z" />
    <glyph glyph-name="asciitilde" unicode="~" horiz-adv-x="1415" 
d="M920 351q-59 0 -110.5 20.5t-87 50t-68 59t-69 50t-74.5 20.5q-53 0 -90 -44t-56 -129h-223q15 89 45 165t74.5 136t108.5 94.5t140 34.5q59 0 110 -20.5t86 -50t67 -59t69 -50t76 -20.5q108 0 146 173h223q-31 -189 -124.5 -309.5t-242.5 -120.5z" />
    <glyph glyph-name="nonbreakingspace" unicode="&#xa0;" horiz-adv-x="528" 
 />
    <glyph glyph-name="exclamdown" unicode="&#xa1;" horiz-adv-x="729" 
d="M335 -322h-320l233 969h267zM457 1152q82 0 131.5 -47.5t49.5 -117.5q0 -77 -49 -126.5t-132 -49.5q-82 0 -131.5 48t-49.5 118q0 77 49 126t132 49z" />
    <glyph glyph-name="cent" unicode="&#xa2;" horiz-adv-x="1415" 
d="M650 426l132 621q-112 -15 -181.5 -125t-69.5 -275q0 -82 31.5 -139.5t87.5 -81.5zM1280 869h-274q-2 61 -32 105t-84 63l-133 -624q71 7 121.5 52.5t73.5 118.5h274q-31 -183 -172 -299t-337 -116h-12l-36 -169h-110l38 180q-167 33 -259.5 153.5t-92.5 300.5
q0 294 159 475.5t421 181.5h9l32 152h110l-35 -163q157 -30 248 -134t91 -244v-33z" />
    <glyph glyph-name="sterling" unicode="&#xa3;" horiz-adv-x="1415" 
d="M1369 1388l-51 -231q-108 51 -269 51q-173 0 -257.5 -83t-84.5 -231q0 -9 0.5 -36t0.5 -43h458l-34 -164h-420q-5 -123 -62 -222t-163 -150l-2 -8h712l-51 -250h-1100l48 233q159 24 243.5 127.5t84.5 267.5v2h-252l34 164h213q-1 24 -1 66q0 261 162.5 415.5
t462.5 154.5q97 0 187.5 -20t140.5 -43z" />
    <glyph glyph-name="currency" unicode="&#xa4;" horiz-adv-x="1415" 
d="M472 648q0 -95 69 -163.5t165 -68.5t165.5 68.5t69.5 163.5t-69.5 164t-165.5 69t-165 -69t-69 -164zM1316 1009l-202 -167q43 -91 43 -194q0 -141 -80 -259l108 -137l-199 -169l-111 142q-83 -33 -169 -33q-151 0 -271 93l-207 -172l-133 174l203 169q-42 90 -42 192
q0 142 80 260l-109 137l198 169l112 -142q82 33 169 33q150 0 272 -93l206 171z" />
    <glyph glyph-name="yen" unicode="&#xa5;" horiz-adv-x="1415" 
d="M1522 1407l-588 -777h279l-24 -115h-340l-30 -141h339l-24 -115h-340l-54 -254h-296l55 254h-340l24 115h340l31 141h-340l24 115h285l-267 777h308l190 -602h6l442 602h320z" />
    <glyph glyph-name="brokenbar" unicode="&#xa6;" horiz-adv-x="817" 
d="M594 797h-266l154 727h266zM359 -310h-266l149 706h266z" />
    <glyph glyph-name="section" unicode="&#xa7;" horiz-adv-x="1377" 
d="M628 481l117 -55q68 17 109.5 58.5t40.5 93.5q0 89 -113 136l-116 53q-69 -13 -114.5 -55t-45.5 -96q2 -85 122 -135zM584 -281q-200 0 -334 95t-141 249h284q8 -56 60.5 -92.5t127.5 -36.5q79 0 129.5 36.5t49.5 92.5q0 81 -108 125l-186 81q-248 104 -251 297
q-2 111 75 189.5t210 104.5l2 19q-86 55 -122.5 110.5t-37.5 131.5q-3 156 127.5 253.5t336.5 97.5q199 0 325.5 -93t140.5 -250h-280q-7 58 -58 93t-125 35t-122 -35t-47 -90q0 -76 116 -125l170 -78q130 -56 195 -128.5t66 -170.5q2 -107 -75.5 -190t-207.5 -108l-1 -16
q84 -53 119.5 -109t36.5 -133q3 -156 -131 -255.5t-344 -99.5z" />
    <glyph glyph-name="dieresis" unicode="&#xa8;" horiz-adv-x="1024" 
d="M459 1276q-65 0 -110.5 45t-45.5 111t45.5 111.5t110.5 45.5t110 -45.5t45 -111.5t-45 -111t-110 -45zM940 1276q-65 0 -110.5 45t-45.5 111t45.5 111.5t110.5 45.5t110 -45.5t45 -111.5t-45 -111t-110 -45z" />
    <glyph glyph-name="copyright" unicode="&#xa9;" horiz-adv-x="1743" 
d="M864 -135q-156 0 -295.5 57t-239.5 155t-158 235t-58 291q0 172 66 327t178.5 267t269 177.5t330.5 65.5q212 0 384 -96t270 -264.5t98 -376.5q0 -173 -66 -328t-178.5 -267t-269.5 -177.5t-331 -65.5zM872 26q182 0 336.5 90t244.5 244t90 335q0 252 -169 418t-425 166
q-181 0 -336 -90t-245 -244t-90 -334q0 -250 170 -417.5t424 -167.5zM1275 759h-187q-1 60 -39.5 96.5t-100.5 36.5q-90 0 -151 -84.5t-61 -208.5q0 -84 39.5 -131t109.5 -47q109 0 151 95h193q-30 -120 -124 -188.5t-228 -68.5q-148 0 -240 93.5t-92 245.5
q0 196 116.5 325.5t293.5 129.5q144 0 234.5 -83t85.5 -211z" />
    <glyph glyph-name="a.sups" unicode="&#xaa;" horiz-adv-x="856" 
d="M471 860q63 0 110 30.5t58 77.5l13 57l-154 -5q-67 -2 -104.5 -25.5t-36.5 -61.5q1 -32 32.5 -52.5t81.5 -20.5zM378 700q-99 0 -166 57.5t-68 142.5q-1 114 90.5 180t255.5 71l189 5l10 45q3 18 3 23q-2 33 -35.5 52.5t-90.5 19.5q-100 0 -128 -57h-204q24 104 118 165
t230 61q144 0 233 -61t90 -159q1 -27 -5 -59l-101 -475h-211l19 89h-13q-32 -46 -90.5 -73t-125.5 -27z" />
    <glyph glyph-name="guillemotleft" unicode="&#xab;" horiz-adv-x="1453" 
d="M668 151h-264l-261 411l2 8l421 411h293l-443 -426l-2 -11zM1185 151h-264l-261 411l2 8l422 411h293l-443 -426l-2 -11z" />
    <glyph glyph-name="logicalnot" unicode="&#xac;" horiz-adv-x="1415" 
d="M1240 712l-141 -672h-261l87 408h-738l54 264h999z" />
    <glyph glyph-name="registered" unicode="&#xae;" horiz-adv-x="1261" 
d="M586 735h-125l104 487h245q66 0 111.5 -43t45.5 -103q0 -61 -36.5 -105t-97.5 -59l83 -177h-138l-76 165h-81zM668 1118l-26 -121h103q89 0 89 68q0 24 -17 38.5t-49 14.5h-100zM719 443q-229 0 -379.5 149t-150.5 376q0 144 70.5 265t192.5 191t267 70q230 0 380 -149
t150 -377q0 -144 -70 -264.5t-192 -190.5t-268 -70zM718 573q166 0 282 115.5t116 279.5q0 173 -112 284t-285 111q-165 0 -281 -115t-116 -280q0 -173 111.5 -284t284.5 -111z" />
    <glyph glyph-name="macron" unicode="&#xaf;" horiz-adv-x="1024" 
d="M1080 1519l-38 -181h-725l38 181h725z" />
    <glyph glyph-name="degree" unicode="&#xb0;" horiz-adv-x="990" 
d="M589 673q-162 0 -263 98t-101 252q0 168 111.5 284t275.5 116q163 0 263.5 -97.5t100.5 -251.5q0 -168 -111.5 -284.5t-275.5 -116.5zM589 879q77 0 126 54t49 133q0 63 -40.5 107.5t-111.5 44.5q-76 0 -125 -54.5t-49 -133.5q0 -62 40 -106.5t111 -44.5z" />
    <glyph glyph-name="plusminus" unicode="&#xb1;" horiz-adv-x="1415" 
d="M1124 40h-1048l50 246h1049zM854 641l-53 -248h-255l54 248h-397l47 230h397l54 248h254l-54 -248h397l-47 -230h-397z" />
    <glyph glyph-name="two.sups" unicode="&#xb2;" horiz-adv-x="874" 
d="M244 1319q9 129 115 213.5t260 84.5q142 0 235 -70.5t94 -179.5q1 -87 -58.5 -157t-232.5 -194l-172 -110l-3 -12h391l-38 -183h-699l35 167l340 239q132 97 174 141.5t41 88.5q-1 40 -36.5 65t-91.5 25q-123 0 -147 -118h-207z" />
    <glyph glyph-name="three.sups" unicode="&#xb3;" horiz-adv-x="905" 
d="M445 1083l34 164h120q73 0 113.5 26.5t39.5 74.5q-1 41 -39 66.5t-98 25.5q-53 0 -91.5 -23.5t-51.5 -63.5h-206q25 121 124.5 192.5t244.5 71.5q144 0 238 -67.5t95 -172.5q1 -84 -62.5 -147.5t-156.5 -71.5l-2 -11q79 -17 122 -65t44 -121q2 -119 -104.5 -196.5
t-271.5 -77.5q-163 0 -264 73.5t-102 193.5q0 14 5 47h210h1q-7 -53 36.5 -89.5t114.5 -36.5q69 0 111.5 32t40.5 82q-1 43 -40 68.5t-101 25.5h-104z" />
    <glyph glyph-name="acute" unicode="&#xb4;" horiz-adv-x="1024" 
d="M661 1251h-208l213 354h278z" />
    <glyph glyph-name="mugreek" unicode="&#x3bc;" horiz-adv-x="1364" 
d="M-60 -366l310 1469h293l-126 -593q-14 -65 -14 -104q0 -177 172 -177q96 0 169 69.5t97 182.5l132 622h291l-162 -760q-7 -28 -7 -55q0 -36 19.5 -52t65.5 -16q27 0 55 6l-46 -223q-52 -13 -133 -13q-236 0 -236 199v6h-19q-112 -219 -302 -219q-57 0 -100 24t-57 63h-18
l-92 -429h-292z" />
    <glyph glyph-name="mugreek" unicode="&#xb5;" horiz-adv-x="1364" 
d="M-60 -366l310 1469h293l-126 -593q-14 -65 -14 -104q0 -177 172 -177q96 0 169 69.5t97 182.5l132 622h291l-162 -760q-7 -28 -7 -55q0 -36 19.5 -52t65.5 -16q27 0 55 6l-46 -223q-52 -13 -133 -13q-236 0 -236 199v6h-19q-112 -219 -302 -219q-57 0 -100 24t-57 63h-18
l-92 -429h-292z" />
    <glyph glyph-name="paragraph" unicode="&#xb6;" horiz-adv-x="1377" 
d="M802 -259l362 1702h230l-362 -1702h-230zM632 -259h-230l176 824h-18q-165 0 -269 103.5t-104 264.5q0 143 76 261t204 183.5t279 65.5h248z" />
    <glyph glyph-name="periodcentered" unicode="&#xb7;" horiz-adv-x="712" 
d="M344 378q-78 0 -127.5 49t-49.5 119q0 77 49 128t128 51q78 0 127.5 -49t49.5 -119q0 -77 -49 -128t-128 -51z" />
    <glyph glyph-name="cedilla" unicode="&#xb8;" horiz-adv-x="1024" 
d="M121 -469l29 135q48 -15 102 -15q114 0 114 56q0 54 -115 54h-55l24 112l116 155h165v-28l-95 -125q62 -7 108.5 -50t46.5 -117q0 -95 -78 -147t-206 -52q-85 0 -156 22z" />
    <glyph glyph-name="one.sups" unicode="&#xb9;" horiz-adv-x="714" 
d="M359 711l141 662h-12l-257 -141l44 211l271 150h226l-187 -882h-226z" />
    <glyph glyph-name="o.sups" unicode="&#xba;" horiz-adv-x="924" 
d="M546 871q83 0 141.5 77t56.5 183q-1 75 -38 116.5t-100 41.5q-88 0 -146 -76.5t-56 -187.5q2 -72 40 -113t102 -41zM617 1465q159 0 255.5 -89.5t97.5 -239.5q3 -190 -121.5 -316t-313.5 -126q-159 0 -257 90t-99 238q-3 190 122 316.5t316 126.5z" />
    <glyph glyph-name="guillemotright" unicode="&#xbb;" horiz-adv-x="1453" 
d="M792 981h264l261 -411l-2 -8l-421 -411h-293l443 426l2 11zM275 981h264l261 -411l-2 -8l-422 -411h-293l443 426l2 11z" />
    <glyph glyph-name="onequarter" unicode="&#xbc;" horiz-adv-x="2151" 
d="M327 561l141 662h-12l-257 -141l44 211l271 150h226l-187 -882h-226zM656 0h-233l1075 1443h232zM1629 0l29 138h-461l39 208q55 72 136.5 167t135 154t196.5 215h326l-119 -559h118l-38 -185h-119l-29 -138h-214zM1433 326l-1 -12h268l86 400h-11q-14 -15 -60 -63.5
t-67 -71.5t-60 -66.5t-76 -88.5t-79 -98z" />
    <glyph glyph-name="onehalf" unicode="&#xbd;" horiz-adv-x="2203" 
d="M327 561l141 662h-12l-257 -141l44 211l271 150h226l-187 -882h-226zM656 0h-233l1075 1443h232zM1422 608q9 129 115 213.5t260 84.5q142 0 235 -70.5t94 -179.5q1 -87 -58.5 -157t-232.5 -194l-172 -110l-3 -12h391l-38 -183h-699l35 167l340 239q132 97 174 141.5
t41 88.5q-1 40 -36.5 65t-91.5 25q-123 0 -147 -118h-207z" />
    <glyph glyph-name="threequarters" unicode="&#xbe;" horiz-adv-x="2342" 
d="M413 933l34 164h120q73 0 113.5 26.5t39.5 74.5q-1 41 -39 66.5t-98 25.5q-53 0 -91.5 -23.5t-51.5 -63.5h-206q25 121 124.5 192.5t244.5 71.5q144 0 238 -67.5t95 -172.5q1 -84 -62.5 -147.5t-156.5 -71.5l-2 -11q79 -17 122 -65t44 -121q2 -119 -104.5 -196.5
t-271.5 -77.5q-163 0 -264 73.5t-102 193.5q0 14 5 47h210h1q-7 -53 36.5 -89.5t114.5 -36.5q69 0 111.5 32t40.5 82q-1 43 -40 68.5t-101 25.5h-104zM847 0h-233l1075 1443h232zM1821 0l29 138h-461l39 208q55 72 136.5 167t135 154t196.5 215h326l-119 -559h118l-38 -185
h-119l-29 -138h-214zM1625 326l-1 -12h268l86 400h-11q-14 -15 -60 -63.5t-67 -71.5t-60 -66.5t-76 -88.5t-79 -98z" />
    <glyph glyph-name="questiondown" unicode="&#xbf;" horiz-adv-x="1141" 
d="M956 69q-26 -181 -159.5 -292t-340.5 -111q-210 0 -339.5 101.5t-129.5 258.5q0 126 75 231t210 165q112 50 158 93t60 113l9 43h270l-12 -63q-22 -132 -77.5 -201.5t-173.5 -121.5q-120 -55 -169.5 -109t-49.5 -126q0 -62 49 -103t134 -41q77 0 134.5 43.5t78.5 119.5
h273zM694 1152q82 0 133.5 -45t51.5 -118q0 -78 -52 -129t-133 -51q-80 0 -132 45.5t-52 117.5q0 76 51.5 128t132.5 52z" />
    <glyph glyph-name="Agrave" unicode="&#xc0;" horiz-adv-x="1501" 
d="M874 1142l-304 -565h381l-58 565h-19zM1000 0l-35 344h-509l-186 -344h-315l820 1443h349l187 -1443h-311zM890 1591l-128 324h274l62 -324h-208z" />
    <glyph glyph-name="Aacute" unicode="&#xc1;" horiz-adv-x="1501" 
d="M874 1142l-304 -565h381l-58 565h-19zM1000 0l-35 344h-509l-186 -344h-315l820 1443h349l187 -1443h-311zM1073 1591h-208l198 324h275z" />
    <glyph glyph-name="Acircumflex" unicode="&#xc2;" horiz-adv-x="1501" 
d="M874 1142l-304 -565h381l-58 565h-19zM1000 0l-35 344h-509l-186 -344h-315l820 1443h349l187 -1443h-311zM1187 1925l186 -335h-250l-90 195h-18l-176 -195h-267l324 335h291z" />
    <glyph glyph-name="Atilde" unicode="&#xc3;" horiz-adv-x="1501" 
d="M874 1142l-304 -565h381l-58 565h-19zM1000 0l-35 344h-509l-186 -344h-315l820 1443h349l187 -1443h-311zM602 1608q24 135 94 215t173 80q43 0 80.5 -15t62.5 -37t47 -44t44.5 -37t43.5 -15q62 0 89 119h181q-23 -134 -92.5 -214.5t-173.5 -80.5q-43 0 -80.5 15
t-62.5 37t-47 44t-44.5 37t-43.5 15q-62 0 -89 -119h-182z" />
    <glyph glyph-name="Adieresis" unicode="&#xc4;" horiz-adv-x="1501" 
d="M874 1142l-304 -565h381l-58 565h-19zM1000 0l-35 344h-509l-186 -344h-315l820 1443h349l187 -1443h-311zM775 1601q-65 0 -110.5 45.5t-45.5 110.5q0 66 45.5 111.5t110.5 45.5t110.5 -45.5t45.5 -111.5q0 -65 -45.5 -110.5t-110.5 -45.5zM1256 1601q-64 0 -109.5 45.5
t-45.5 110.5q0 66 45.5 111.5t109.5 45.5q65 0 110.5 -45.5t45.5 -111.5q0 -65 -45.5 -110.5t-110.5 -45.5z" />
    <glyph glyph-name="Aring" unicode="&#xc5;" horiz-adv-x="1501" 
d="M874 1142l-304 -565h381l-58 565h-19zM1000 0l-35 344h-509l-186 -344h-315l820 1443h349l187 -1443h-311zM1019 1535q-88 0 -151 60.5t-63 149.5t63 149.5t151 60.5q89 0 152 -61t63 -149t-63 -149t-152 -61zM1019 1655q39 0 66 25.5t27 64.5t-27 64.5t-66 25.5
t-65.5 -25.5t-26.5 -64.5t26.5 -64.5t65.5 -25.5z" />
    <glyph glyph-name="AE" unicode="&#xc6;" horiz-adv-x="2059" 
d="M1138 1202h-130l-379 -604h379zM880 0l80 364h-465l-234 -364h-307l903 1443h1259l-54 -258h-650l-75 -341h614l-50 -239h-613l-77 -347h650l-52 -258h-929z" />
    <glyph glyph-name="Ccedilla" unicode="&#xc7;" horiz-adv-x="1533" 
d="M1511 932h-294v14q-5 120 -88.5 193t-216.5 73q-129 0 -236 -81t-168 -224t-61 -318q0 -166 84.5 -262.5t230.5 -96.5q123 0 220 64t132 170h299q-43 -206 -199.5 -339t-383.5 -157l-71 -93q62 -7 108.5 -50t46.5 -117q0 -95 -78 -147t-206 -52q-87 0 -156 22l29 135
q47 -15 102 -15q114 0 114 56q0 54 -115 54h-55l23 112l71 95q-233 29 -369 189.5t-136 410.5q0 263 102 471.5t283 324.5t408 116q163 0 296.5 -66t209.5 -182t76 -257q0 -28 -2 -43z" />
    <glyph glyph-name="Egrave" unicode="&#xc8;" horiz-adv-x="1273" 
d="M1067 258l-52 -258h-957l307 1443h956l-53 -258h-652l-75 -337h616l-50 -239h-615l-78 -351h653zM783 1591l-128 324h274l62 -324h-208z" />
    <glyph glyph-name="Eacute" unicode="&#xc9;" horiz-adv-x="1273" 
d="M1067 258l-52 -258h-957l307 1443h956l-53 -258h-652l-75 -337h616l-50 -239h-615l-78 -351h653zM966 1591h-208l198 324h275z" />
    <glyph glyph-name="Ecircumflex" unicode="&#xca;" horiz-adv-x="1273" 
d="M1067 258l-52 -258h-957l307 1443h956l-53 -258h-652l-75 -337h616l-50 -239h-615l-78 -351h653zM1081 1925l186 -335h-250l-90 195h-18l-176 -195h-267l324 335h291z" />
    <glyph glyph-name="Edieresis" unicode="&#xcb;" horiz-adv-x="1273" 
d="M1067 258l-52 -258h-957l307 1443h956l-53 -258h-652l-75 -337h616l-50 -239h-615l-78 -351h653zM668 1601q-65 0 -110.5 45.5t-45.5 110.5q0 66 45.5 111.5t110.5 45.5t110.5 -45.5t45.5 -111.5q0 -65 -45.5 -110.5t-110.5 -45.5zM1149 1601q-64 0 -109.5 45.5
t-45.5 110.5q0 66 45.5 111.5t109.5 45.5q65 0 110.5 -45.5t45.5 -111.5q0 -65 -45.5 -110.5t-110.5 -45.5z" />
    <glyph glyph-name="Igrave" unicode="&#xcc;" horiz-adv-x="653" 
d="M362 0h-304l307 1443h304zM457 1591l-128 324h274l62 -324h-208z" />
    <glyph glyph-name="Iacute" unicode="&#xcd;" horiz-adv-x="653" 
d="M362 0h-304l307 1443h304zM640 1591h-208l198 324h275z" />
    <glyph glyph-name="Icircumflex" unicode="&#xce;" horiz-adv-x="653" 
d="M362 0h-304l307 1443h304zM755 1925l186 -335h-250l-90 195h-18l-176 -195h-267l324 335h291z" />
    <glyph glyph-name="Idieresis" unicode="&#xcf;" horiz-adv-x="653" 
d="M362 0h-304l307 1443h304zM342 1601q-65 0 -110.5 45.5t-45.5 110.5q0 66 45.5 111.5t110.5 45.5t110.5 -45.5t45.5 -111.5q0 -65 -45.5 -110.5t-110.5 -45.5zM823 1601q-64 0 -109.5 45.5t-45.5 110.5q0 66 45.5 111.5t109.5 45.5q65 0 110.5 -45.5t45.5 -111.5
q0 -65 -45.5 -110.5t-110.5 -45.5z" />
    <glyph glyph-name="Eth" unicode="&#xd0;" horiz-adv-x="1535" 
d="M417 257h270q205 0 337 157t132 408q0 170 -92 267.5t-255 97.5h-191l-74 -341h263l-48 -228h-264zM365 1443h511q276 0 433.5 -155.5t157.5 -431.5q0 -245 -96.5 -440.5t-268.5 -305.5t-388 -110h-655l131 618h-120l47 228h121z" />
    <glyph glyph-name="Ntilde" unicode="&#xd1;" horiz-adv-x="1573" 
d="M351 0h-293l307 1443h231l479 -929h18l202 929h293l-307 -1443h-229l-483 922h-18zM611 1608q24 135 94 215t173 80q43 0 80.5 -15t62.5 -37t47 -44t44.5 -37t43.5 -15q62 0 89 119h181q-23 -134 -92.5 -214.5t-173.5 -80.5q-43 0 -80.5 15t-62.5 37t-47 44t-44.5 37
t-43.5 15q-62 0 -89 -119h-182z" />
    <glyph glyph-name="Ograve" unicode="&#xd2;" horiz-adv-x="1618" 
d="M917 1209q-129 0 -236.5 -80.5t-169.5 -221t-62 -309.5q0 -165 89.5 -265t236.5 -100q129 0 236 79.5t168.5 220t61.5 311.5q0 165 -89 265t-235 100zM763 -37q-185 0 -328 80t-219.5 219.5t-76.5 313.5q0 157 39 297.5t110.5 250.5t168.5 190.5t218 123t254 42.5
q282 0 452 -173t170 -440q0 -197 -60.5 -366t-165 -287t-250 -184.5t-312.5 -66.5zM871 1590l-128 324h274l62 -324h-208z" />
    <glyph glyph-name="Oacute" unicode="&#xd3;" horiz-adv-x="1618" 
d="M917 1209q-129 0 -236.5 -80.5t-169.5 -221t-62 -309.5q0 -165 89.5 -265t236.5 -100q129 0 236 79.5t168.5 220t61.5 311.5q0 165 -89 265t-235 100zM763 -37q-185 0 -328 80t-219.5 219.5t-76.5 313.5q0 157 39 297.5t110.5 250.5t168.5 190.5t218 123t254 42.5
q282 0 452 -173t170 -440q0 -197 -60.5 -366t-165 -287t-250 -184.5t-312.5 -66.5zM1054 1590h-208l198 324h275z" />
    <glyph glyph-name="Ocircumflex" unicode="&#xd4;" horiz-adv-x="1618" 
d="M917 1209q-129 0 -236.5 -80.5t-169.5 -221t-62 -309.5q0 -165 89.5 -265t236.5 -100q129 0 236 79.5t168.5 220t61.5 311.5q0 165 -89 265t-235 100zM763 -37q-185 0 -328 80t-219.5 219.5t-76.5 313.5q0 157 39 297.5t110.5 250.5t168.5 190.5t218 123t254 42.5
q282 0 452 -173t170 -440q0 -197 -60.5 -366t-165 -287t-250 -184.5t-312.5 -66.5zM1168 1924l186 -335h-250l-90 195h-18l-176 -195h-267l324 335h291z" />
    <glyph glyph-name="Otilde" unicode="&#xd5;" horiz-adv-x="1618" 
d="M917 1209q-129 0 -236.5 -80.5t-169.5 -221t-62 -309.5q0 -165 89.5 -265t236.5 -100q129 0 236 79.5t168.5 220t61.5 311.5q0 165 -89 265t-235 100zM763 -37q-185 0 -328 80t-219.5 219.5t-76.5 313.5q0 157 39 297.5t110.5 250.5t168.5 190.5t218 123t254 42.5
q282 0 452 -173t170 -440q0 -197 -60.5 -366t-165 -287t-250 -184.5t-312.5 -66.5zM583 1607q24 135 94 215t173 80q43 0 80.5 -15t62.5 -37t47 -44t44.5 -37t43.5 -15q62 0 89 119h181q-23 -134 -92.5 -214.5t-173.5 -80.5q-43 0 -80.5 15t-62.5 37t-47 44t-44.5 37
t-43.5 15q-62 0 -89 -119h-182z" />
    <glyph glyph-name="Odieresis" unicode="&#xd6;" horiz-adv-x="1618" 
d="M917 1209q-129 0 -236.5 -80.5t-169.5 -221t-62 -309.5q0 -165 89.5 -265t236.5 -100q129 0 236 79.5t168.5 220t61.5 311.5q0 165 -89 265t-235 100zM763 -37q-185 0 -328 80t-219.5 219.5t-76.5 313.5q0 157 39 297.5t110.5 250.5t168.5 190.5t218 123t254 42.5
q282 0 452 -173t170 -440q0 -197 -60.5 -366t-165 -287t-250 -184.5t-312.5 -66.5zM756 1600q-65 0 -110.5 45.5t-45.5 110.5q0 66 45.5 111.5t110.5 45.5t110.5 -45.5t45.5 -111.5q0 -65 -45.5 -110.5t-110.5 -45.5zM1237 1600q-64 0 -109.5 45.5t-45.5 110.5
q0 66 45.5 111.5t109.5 45.5q65 0 110.5 -45.5t45.5 -111.5q0 -65 -45.5 -110.5t-110.5 -45.5z" />
    <glyph glyph-name="multiply" unicode="&#xd7;" horiz-adv-x="1415" 
d="M938 75l-251 327l-400 -327l-143 185l404 331l-251 327l194 166l251 -327l400 327l143 -185l-404 -331l251 -327z" />
    <glyph glyph-name="Oslash" unicode="&#xd8;" horiz-adv-x="1592" 
d="M1236 962l-686 -655q87 -85 223 -85q132 0 241.5 81.5t172 224.5t62.5 318q0 64 -13 116zM459 465l692 660q-89 95 -232 95q-99 0 -187 -48.5t-151.5 -131.5t-101 -199t-37.5 -245q0 -69 17 -131zM1574 1284l-102 -97q79 -143 79 -320q0 -197 -60.5 -366t-165 -287
t-250 -184.5t-312.5 -66.5q-252 0 -421 145l-96 -91l-118 133l99 94q-88 147 -88 332q0 157 39 297.5t110.5 250.5t168.5 190.5t218 123t254 42.5q263 0 433 -154l94 90z" />
    <glyph glyph-name="Ugrave" unicode="&#xd9;" horiz-adv-x="1564" 
d="M734 -37q-260 0 -412 131t-154 339q0 64 13 126l187 884h305l-186 -877q-11 -50 -11 -102q3 -108 75.5 -169t200.5 -61q127 0 214 72.5t116 206.5l198 930h304l-211 -997q-48 -229 -215 -356t-424 -127zM914 1591l-128 324h274l62 -324h-208z" />
    <glyph glyph-name="Uacute" unicode="&#xda;" horiz-adv-x="1564" 
d="M734 -37q-260 0 -412 131t-154 339q0 64 13 126l187 884h305l-186 -877q-11 -50 -11 -102q3 -108 75.5 -169t200.5 -61q127 0 214 72.5t116 206.5l198 930h304l-211 -997q-48 -229 -215 -356t-424 -127zM1097 1591h-208l198 324h275z" />
    <glyph glyph-name="Ucircumflex" unicode="&#xdb;" horiz-adv-x="1564" 
d="M734 -37q-260 0 -412 131t-154 339q0 64 13 126l187 884h305l-186 -877q-11 -50 -11 -102q3 -108 75.5 -169t200.5 -61q127 0 214 72.5t116 206.5l198 930h304l-211 -997q-48 -229 -215 -356t-424 -127zM1211 1925l186 -335h-250l-90 195h-18l-176 -195h-267l324 335h291
z" />
    <glyph glyph-name="Udieresis" unicode="&#xdc;" horiz-adv-x="1564" 
d="M734 -37q-260 0 -412 131t-154 339q0 64 13 126l187 884h305l-186 -877q-11 -50 -11 -102q3 -108 75.5 -169t200.5 -61q127 0 214 72.5t116 206.5l198 930h304l-211 -997q-48 -229 -215 -356t-424 -127zM799 1601q-65 0 -110.5 45.5t-45.5 110.5q0 66 45.5 111.5
t110.5 45.5t110.5 -45.5t45.5 -111.5q0 -65 -45.5 -110.5t-110.5 -45.5zM1280 1601q-64 0 -109.5 45.5t-45.5 110.5q0 66 45.5 111.5t109.5 45.5q65 0 110.5 -45.5t45.5 -111.5q0 -65 -45.5 -110.5t-110.5 -45.5z" />
    <glyph glyph-name="Yacute" unicode="&#xdd;" horiz-adv-x="1451" 
d="M762 0h-304l114 531l-310 912h316l196 -607h18l447 607h330l-697 -924zM1036 1591h-208l198 324h275z" />
    <glyph glyph-name="Thorn" unicode="&#xde;" horiz-adv-x="1382" 
d="M59 0l307 1443h302l-50 -232h270q188 0 309 -112t121 -285q0 -148 -73 -267.5t-206 -188t-302 -68.5h-314l-63 -290h-301zM565 963l-92 -427h237q141 0 222.5 66.5t81.5 179.5q0 87 -56.5 134t-164.5 47h-228z" />
    <glyph glyph-name="germandbls" unicode="&#xdf;" horiz-adv-x="1406" 
d="M352 0h-291l234 1088q36 167 174.5 264t340.5 97q211 0 345.5 -104t134.5 -267q0 -130 -85 -225.5t-217 -115.5l-4 -19q135 -24 211 -103t76 -199q0 -195 -141 -314t-366 -119q-144 0 -252 40l50 234q73 -34 167 -34q109 0 180 58.5t71 149.5q0 81 -67 125.5t-184 44.5
h-75l50 245h75q92 0 156 53.5t64 132.5q0 77 -55 124.5t-143 47.5q-92 0 -154 -56.5t-84 -161.5z" />
    <glyph glyph-name="agrave" unicode="&#xe0;" horiz-adv-x="1202" 
d="M492 202q93 0 165 52t90 132l21 95l-228 -8q-100 -4 -156.5 -43t-56.5 -104q0 -55 46 -89.5t119 -34.5zM369 -17q-140 0 -234 86t-94 215q0 168 129.5 266.5t361.5 105.5l274 9l15 68q5 25 5 40q0 57 -49 90.5t-133 33.5q-147 0 -192 -98h-275q35 151 167.5 239.5
t320.5 88.5q202 0 325 -89.5t123 -235.5q0 -50 -9 -89l-151 -713h-283l29 136h-18q-47 -71 -131 -112t-181 -41zM610 1250l-134 354h279l63 -354h-208z" />
    <glyph glyph-name="aacute" unicode="&#xe1;" horiz-adv-x="1202" 
d="M492 202q93 0 165 52t90 132l21 95l-228 -8q-100 -4 -156.5 -43t-56.5 -104q0 -55 46 -89.5t119 -34.5zM369 -17q-140 0 -234 86t-94 215q0 168 129.5 266.5t361.5 105.5l274 9l15 68q5 25 5 40q0 57 -49 90.5t-133 33.5q-147 0 -192 -98h-275q35 151 167.5 239.5
t320.5 88.5q202 0 325 -89.5t123 -235.5q0 -50 -9 -89l-151 -713h-283l29 136h-18q-47 -71 -131 -112t-181 -41zM808 1250h-208l212 354h278z" />
    <glyph glyph-name="acircumflex" unicode="&#xe2;" horiz-adv-x="1202" 
d="M492 202q93 0 165 52t90 132l21 95l-228 -8q-100 -4 -156.5 -43t-56.5 -104q0 -55 46 -89.5t119 -34.5zM369 -17q-140 0 -234 86t-94 215q0 168 129.5 266.5t361.5 105.5l274 9l15 68q5 25 5 40q0 57 -49 90.5t-133 33.5q-147 0 -192 -98h-275q35 151 167.5 239.5
t320.5 88.5q202 0 325 -89.5t123 -235.5q0 -50 -9 -89l-151 -713h-283l29 136h-18q-47 -71 -131 -112t-181 -41zM925 1605l190 -354h-251l-92 209h-18l-178 -209h-262l320 354h291z" />
    <glyph glyph-name="atilde" unicode="&#xe3;" horiz-adv-x="1202" 
d="M492 202q93 0 165 52t90 132l21 95l-228 -8q-100 -4 -156.5 -43t-56.5 -104q0 -55 46 -89.5t119 -34.5zM369 -17q-140 0 -234 86t-94 215q0 168 129.5 266.5t361.5 105.5l274 9l15 68q5 25 5 40q0 57 -49 90.5t-133 33.5q-147 0 -192 -98h-275q35 151 167.5 239.5
t320.5 88.5q202 0 325 -89.5t123 -235.5q0 -50 -9 -89l-151 -713h-283l29 136h-18q-47 -71 -131 -112t-181 -41zM333 1282q24 135 93.5 215t172.5 80q52 0 97.5 -23t71 -50.5t55 -50.5t54.5 -23q62 0 90 119h181q-24 -134 -93.5 -214.5t-172.5 -80.5q-43 0 -80.5 15
t-62.5 37t-47 44t-44.5 37t-43.5 15q-63 0 -90 -120h-181z" />
    <glyph glyph-name="adieresis" unicode="&#xe4;" horiz-adv-x="1202" 
d="M492 202q93 0 165 52t90 132l21 95l-228 -8q-100 -4 -156.5 -43t-56.5 -104q0 -55 46 -89.5t119 -34.5zM369 -17q-140 0 -234 86t-94 215q0 168 129.5 266.5t361.5 105.5l274 9l15 68q5 25 5 40q0 57 -49 90.5t-133 33.5q-147 0 -192 -98h-275q35 151 167.5 239.5
t320.5 88.5q202 0 325 -89.5t123 -235.5q0 -50 -9 -89l-151 -713h-283l29 136h-18q-47 -71 -131 -112t-181 -41zM505 1276q-64 0 -109.5 45t-45.5 111t45.5 111.5t109.5 45.5q65 0 110.5 -45.5t45.5 -111.5t-45.5 -111t-110.5 -45zM987 1276q-65 0 -110.5 45t-45.5 111
t45.5 111.5t110.5 45.5t110 -45.5t45 -111.5t-45 -111t-110 -45z" />
    <glyph glyph-name="aring" unicode="&#xe5;" horiz-adv-x="1202" 
d="M492 202q93 0 165 52t90 132l21 95l-228 -8q-100 -4 -156.5 -43t-56.5 -104q0 -55 46 -89.5t119 -34.5zM369 -17q-140 0 -234 86t-94 215q0 168 129.5 266.5t361.5 105.5l274 9l15 68q5 25 5 40q0 57 -49 90.5t-133 33.5q-147 0 -192 -98h-275q35 151 167.5 239.5
t320.5 88.5q202 0 325 -89.5t123 -235.5q0 -50 -9 -89l-151 -713h-283l29 136h-18q-47 -71 -131 -112t-181 -41zM759 1245q-101 0 -173.5 68.5t-72.5 169.5q0 103 72.5 171.5t173.5 68.5t173 -68.5t72 -171.5q0 -101 -72 -169.5t-173 -68.5zM759 1380q44 0 75.5 29.5
t31.5 73.5q0 45 -31.5 75t-75.5 30q-45 0 -76 -30t-31 -75q0 -44 31 -73.5t76 -29.5z" />
    <glyph glyph-name="ae" unicode="&#xe6;" horiz-adv-x="1925" 
d="M1255 -24q-123 0 -233 56.5t-154 145.5h-18q-58 -87 -170.5 -144.5t-244.5 -57.5q-171 0 -281.5 89.5t-110.5 222.5q0 174 127.5 270.5t363.5 104.5l274 9l15 61q5 28 5 40q0 57 -49 90.5t-134 33.5q-147 0 -191 -98h-275q35 154 164.5 241t317.5 87q115 0 205 -42
t132 -114h18q68 75 160.5 115.5t199.5 40.5q193 0 323.5 -128t131.5 -334q0 -86 -18 -180h-768q-1 -8 -1 -32q0 -121 66 -185.5t166 -64.5q161 0 216 114h281q-39 -154 -178 -247.5t-340 -93.5zM1076 669h479q3 9 3 38q0 85 -54.5 140.5t-148.5 55.5q-100 0 -175 -64
t-104 -170zM494 195q92 0 164.5 55t90.5 136l21 95l-228 -8q-100 -4 -157 -43t-57 -105q0 -56 46.5 -93t119.5 -37z" />
    <glyph glyph-name="ccedilla" unicode="&#xe7;" horiz-adv-x="1208" 
d="M1156 723h-276q-4 76 -59.5 120.5t-139.5 44.5q-131 0 -215 -122t-84 -303q0 -120 58 -183t150 -63q82 0 141 40.5t84 115.5h279q-26 -159 -150 -269t-313 -126l-79 -103q62 -7 108.5 -50t46.5 -117q0 -95 -78 -147t-206 -52q-87 0 -156 22l29 135q47 -15 102 -15
q114 0 114 56q0 54 -115 54h-55l23 112l86 115q-168 33 -264 153t-96 300q0 195 76 351t215.5 245.5t317.5 89.5q193 0 317 -107t137 -254q2 -13 2 -43z" />
    <glyph glyph-name="egrave" unicode="&#xe8;" horiz-adv-x="1251" 
d="M401 669h479q3 18 3 38q0 85 -55 140.5t-149 55.5q-99 0 -174 -64t-104 -170zM582 -24q-218 0 -353 127t-135 347q0 302 166 489.5t431 187.5q201 0 333 -127t132 -335q0 -82 -17 -180h-770q0 -4 -0.5 -15.5t-0.5 -15.5q0 -122 66 -186.5t166 -64.5q163 0 218 114h280
q-38 -154 -176.5 -247.5t-339.5 -93.5zM622 1250l-134 354h279l63 -354h-208z" />
    <glyph glyph-name="eacute" unicode="&#xe9;" horiz-adv-x="1251" 
d="M401 669h479q3 18 3 38q0 85 -55 140.5t-149 55.5q-99 0 -174 -64t-104 -170zM582 -24q-218 0 -353 127t-135 347q0 302 166 489.5t431 187.5q201 0 333 -127t132 -335q0 -82 -17 -180h-770q0 -4 -0.5 -15.5t-0.5 -15.5q0 -122 66 -186.5t166 -64.5q163 0 218 114h280
q-38 -154 -176.5 -247.5t-339.5 -93.5zM820 1250h-208l212 354h278z" />
    <glyph glyph-name="ecircumflex" unicode="&#xea;" horiz-adv-x="1251" 
d="M401 669h479q3 18 3 38q0 85 -55 140.5t-149 55.5q-99 0 -174 -64t-104 -170zM582 -24q-218 0 -353 127t-135 347q0 302 166 489.5t431 187.5q201 0 333 -127t132 -335q0 -82 -17 -180h-770q0 -4 -0.5 -15.5t-0.5 -15.5q0 -122 66 -186.5t166 -64.5q163 0 218 114h280
q-38 -154 -176.5 -247.5t-339.5 -93.5zM937 1605l190 -354h-251l-92 209h-18l-178 -209h-262l320 354h291z" />
    <glyph glyph-name="edieresis" unicode="&#xeb;" horiz-adv-x="1251" 
d="M401 669h479q3 18 3 38q0 85 -55 140.5t-149 55.5q-99 0 -174 -64t-104 -170zM582 -24q-218 0 -353 127t-135 347q0 302 166 489.5t431 187.5q201 0 333 -127t132 -335q0 -82 -17 -180h-770q0 -4 -0.5 -15.5t-0.5 -15.5q0 -122 66 -186.5t166 -64.5q163 0 218 114h280
q-38 -154 -176.5 -247.5t-339.5 -93.5zM517 1276q-64 0 -109.5 45t-45.5 111t45.5 111.5t109.5 45.5q65 0 110.5 -45.5t45.5 -111.5t-45.5 -111t-110.5 -45zM999 1276q-65 0 -110.5 45t-45.5 111t45.5 111.5t110.5 45.5t110 -45.5t45 -111.5t-45 -111t-110 -45z" />
    <glyph glyph-name="igrave" unicode="&#xec;" horiz-adv-x="599" 
d="M37 0l234 1103h291l-234 -1103h-291zM350 1250l-134 354h279l63 -354h-208z" />
    <glyph glyph-name="iacute" unicode="&#xed;" horiz-adv-x="599" 
d="M37 0l234 1103h291l-234 -1103h-291zM548 1250h-208l212 354h278z" />
    <glyph glyph-name="icircumflex" unicode="&#xee;" horiz-adv-x="599" 
d="M37 0l234 1103h291l-234 -1103h-291zM665 1605l190 -354h-251l-92 209h-18l-178 -209h-262l320 354h291z" />
    <glyph glyph-name="idieresis" unicode="&#xef;" horiz-adv-x="599" 
d="M37 0l234 1103h291l-234 -1103h-291zM245 1276q-64 0 -109.5 45t-45.5 111t45.5 111.5t109.5 45.5q65 0 110.5 -45.5t45.5 -111.5t-45.5 -111t-110.5 -45zM727 1276q-65 0 -110.5 45t-45.5 111t45.5 111.5t110.5 45.5t110 -45.5t45 -111.5t-45 -111t-110 -45z" />
    <glyph glyph-name="eth" unicode="&#xf0;" horiz-adv-x="1301" 
d="M597 215q83 0 155.5 53.5t115 141t42.5 185.5q0 103 -63.5 167t-163.5 64q-81 0 -151 -55t-109 -142t-39 -181q0 -109 59.5 -171t153.5 -62zM1189 1321l-134 -42q172 -210 172 -516q0 -153 -38 -290q-65 -225 -219.5 -359.5t-377.5 -134.5t-365 132.5t-142 349.5
q0 151 69.5 284t193 213.5t269.5 80.5q119 0 209.5 -50.5t128.5 -128.5h16q-18 208 -136 349l-344 -109l33 151l194 61q-73 48 -160 77l35 166q210 -54 354 -170l274 87z" />
    <glyph glyph-name="ntilde" unicode="&#xf1;" horiz-adv-x="1285" 
d="M25 0l235 1103h283l-38 -175h18q121 193 339 193q150 0 239.5 -91.5t89.5 -231.5q0 -60 -15 -131l-141 -667h-291l132 619q10 46 10 84q0 77 -47.5 125t-131.5 48q-95 0 -162 -62.5t-89 -163.5l-139 -650h-292zM429 1288q24 135 93.5 215t172.5 80q52 0 97.5 -23
t71 -50.5t55 -50.5t54.5 -23q62 0 90 119h181q-24 -134 -93.5 -214.5t-172.5 -80.5q-43 0 -80.5 15t-62.5 37t-47 44t-44.5 37t-43.5 15q-63 0 -90 -120h-181z" />
    <glyph glyph-name="ograve" unicode="&#xf2;" horiz-adv-x="1299" 
d="M603 215q122 0 210 122t88 291q0 123 -53 192t-148 69q-130 0 -217 -121t-87 -301q0 -116 56 -184t151 -68zM716 1127q221 0 355.5 -132t134.5 -351q0 -189 -80.5 -342t-222.5 -239.5t-317 -86.5q-222 0 -357.5 132.5t-135.5 349.5q0 190 80.5 343t223 239.5t319.5 86.5z
M646 1250l-134 354h279l63 -354h-208z" />
    <glyph glyph-name="oacute" unicode="&#xf3;" horiz-adv-x="1299" 
d="M603 215q122 0 210 122t88 291q0 123 -53 192t-148 69q-130 0 -217 -121t-87 -301q0 -116 56 -184t151 -68zM716 1127q221 0 355.5 -132t134.5 -351q0 -189 -80.5 -342t-222.5 -239.5t-317 -86.5q-222 0 -357.5 132.5t-135.5 349.5q0 190 80.5 343t223 239.5t319.5 86.5z
M844 1250h-208l212 354h278z" />
    <glyph glyph-name="ocircumflex" unicode="&#xf4;" horiz-adv-x="1299" 
d="M603 215q122 0 210 122t88 291q0 123 -53 192t-148 69q-130 0 -217 -121t-87 -301q0 -116 56 -184t151 -68zM716 1127q221 0 355.5 -132t134.5 -351q0 -189 -80.5 -342t-222.5 -239.5t-317 -86.5q-222 0 -357.5 132.5t-135.5 349.5q0 190 80.5 343t223 239.5t319.5 86.5z
M961 1605l190 -354h-251l-92 209h-18l-178 -209h-262l320 354h291z" />
    <glyph glyph-name="otilde" unicode="&#xf5;" horiz-adv-x="1299" 
d="M603 215q122 0 210 122t88 291q0 123 -53 192t-148 69q-130 0 -217 -121t-87 -301q0 -116 56 -184t151 -68zM716 1127q221 0 355.5 -132t134.5 -351q0 -189 -80.5 -342t-222.5 -239.5t-317 -86.5q-222 0 -357.5 132.5t-135.5 349.5q0 190 80.5 343t223 239.5t319.5 86.5z
M369 1282q24 135 93.5 215t172.5 80q52 0 97.5 -23t71 -50.5t55 -50.5t54.5 -23q62 0 90 119h181q-24 -134 -93.5 -214.5t-172.5 -80.5q-43 0 -80.5 15t-62.5 37t-47 44t-44.5 37t-43.5 15q-63 0 -90 -120h-181z" />
    <glyph glyph-name="odieresis" unicode="&#xf6;" horiz-adv-x="1299" 
d="M603 215q122 0 210 122t88 291q0 123 -53 192t-148 69q-130 0 -217 -121t-87 -301q0 -116 56 -184t151 -68zM716 1127q221 0 355.5 -132t134.5 -351q0 -189 -80.5 -342t-222.5 -239.5t-317 -86.5q-222 0 -357.5 132.5t-135.5 349.5q0 190 80.5 343t223 239.5t319.5 86.5z
M541 1276q-64 0 -109.5 45t-45.5 111t45.5 111.5t109.5 45.5q65 0 110.5 -45.5t45.5 -111.5t-45.5 -111t-110.5 -45zM1023 1276q-65 0 -110.5 45t-45.5 111t45.5 111.5t110.5 45.5t110 -45.5t45 -111.5t-45 -111t-110 -45z" />
    <glyph glyph-name="divide" unicode="&#xf7;" horiz-adv-x="1415" 
d="M1208 461h-1038l49 237h1038zM789 814q-75 0 -120.5 45.5t-45.5 111.5q0 73 45.5 120t120.5 47q74 0 119.5 -45.5t45.5 -111.5q0 -73 -45 -120t-120 -47zM624 30q-75 0 -120.5 45.5t-45.5 111.5q0 73 45.5 120.5t120.5 47.5q74 0 119.5 -46t45.5 -112q0 -73 -45 -120
t-120 -47z" />
    <glyph glyph-name="oslash" unicode="&#xf8;" horiz-adv-x="1299" 
d="M882 754l-410 -492q52 -47 131 -47q122 0 210 122t88 291q0 73 -19 126zM411 359l409 490q-49 40 -120 40q-130 0 -217 -121t-87 -301q0 -60 15 -108zM1183 1114l-105 -126q128 -131 128 -344q0 -189 -80.5 -342t-222.5 -239.5t-317 -86.5q-164 0 -288 77l-105 -126
l-90 63l111 133q-121 132 -121 335q0 190 80.5 343t223 239.5t319.5 86.5q160 0 277 -71l97 116z" />
    <glyph glyph-name="ugrave" unicode="&#xf9;" horiz-adv-x="1285" 
d="M1260 1103l-233 -1103h-283l36 167h-18q-108 -191 -328 -191q-151 0 -244 88t-93 234q0 58 15 141l139 664h293l-131 -616q-10 -47 -10 -86q0 -173 174 -173q98 0 164.5 62.5t89.5 168.5l137 644h292zM690 1250l-134 354h279l63 -354h-208z" />
    <glyph glyph-name="uacute" unicode="&#xfa;" horiz-adv-x="1285" 
d="M1260 1103l-233 -1103h-283l36 167h-18q-108 -191 -328 -191q-151 0 -244 88t-93 234q0 58 15 141l139 664h293l-131 -616q-10 -47 -10 -86q0 -173 174 -173q98 0 164.5 62.5t89.5 168.5l137 644h292zM888 1250h-208l212 354h278z" />
    <glyph glyph-name="ucircumflex" unicode="&#xfb;" horiz-adv-x="1285" 
d="M1260 1103l-233 -1103h-283l36 167h-18q-108 -191 -328 -191q-151 0 -244 88t-93 234q0 58 15 141l139 664h293l-131 -616q-10 -47 -10 -86q0 -173 174 -173q98 0 164.5 62.5t89.5 168.5l137 644h292zM1005 1605l190 -354h-251l-92 209h-18l-178 -209h-262l320 354h291z
" />
    <glyph glyph-name="udieresis" unicode="&#xfc;" horiz-adv-x="1285" 
d="M1260 1103l-233 -1103h-283l36 167h-18q-108 -191 -328 -191q-151 0 -244 88t-93 234q0 58 15 141l139 664h293l-131 -616q-10 -47 -10 -86q0 -173 174 -173q98 0 164.5 62.5t89.5 168.5l137 644h292zM585 1276q-64 0 -109.5 45t-45.5 111t45.5 111.5t109.5 45.5
q65 0 110.5 -45.5t45.5 -111.5t-45.5 -111t-110.5 -45zM1067 1276q-65 0 -110.5 45t-45.5 111t45.5 111.5t110.5 45.5t110 -45.5t45 -111.5t-45 -111t-110 -45z" />
    <glyph glyph-name="yacute" unicode="&#xfd;" horiz-adv-x="1208" 
d="M89 -403q-19 0 -73.5 3t-61.5 4l48 233q20 -6 82 -6q151 0 211 122l22 44l-144 1106h297l64 -822h18l405 822h312l-630 -1143q-106 -200 -231.5 -281.5t-318.5 -81.5zM849 1250h-208l212 354h278z" />
    <glyph glyph-name="thorn" unicode="&#xfe;" horiz-adv-x="1337" 
d="M638 230q131 0 221 120.5t90 298.5q0 111 -56.5 171t-149.5 60q-131 0 -224 -122.5t-93 -292.5q0 -111 58.5 -173t153.5 -62zM365 200l-117 -545h-292l395 1852h291l-118 -557h18q121 172 332 172q165 0 271 -116t106 -307q0 -203 -73 -367t-200 -256.5t-282 -92.5
q-117 0 -201.5 59.5t-111.5 157.5h-18z" />
    <glyph glyph-name="ydieresis" unicode="&#xff;" horiz-adv-x="1208" 
d="M89 -403q-19 0 -73.5 3t-61.5 4l48 233q20 -6 82 -6q151 0 211 122l22 44l-144 1106h297l64 -822h18l405 822h312l-630 -1143q-106 -200 -231.5 -281.5t-318.5 -81.5zM546 1276q-64 0 -109.5 45t-45.5 111t45.5 111.5t109.5 45.5q65 0 110.5 -45.5t45.5 -111.5
t-45.5 -111t-110.5 -45zM1028 1276q-65 0 -110.5 45t-45.5 111t45.5 111.5t110.5 45.5t110 -45.5t45 -111.5t-45 -111t-110 -45z" />
    <glyph glyph-name="Amacron" unicode="&#x100;" horiz-adv-x="1501" 
d="M874 1142l-304 -565h381l-58 565h-19zM1000 0l-35 344h-509l-186 -344h-315l820 1443h349l187 -1443h-311zM1395 1844l-38 -181h-725l37 181h726z" />
    <glyph glyph-name="amacron" unicode="&#x101;" horiz-adv-x="1202" 
d="M492 202q93 0 165 52t90 132l21 95l-228 -8q-100 -4 -156.5 -43t-56.5 -104q0 -55 46 -89.5t119 -34.5zM369 -17q-140 0 -234 86t-94 215q0 168 129.5 266.5t361.5 105.5l274 9l15 68q5 25 5 40q0 57 -49 90.5t-133 33.5q-147 0 -192 -98h-275q35 151 167.5 239.5
t320.5 88.5q202 0 325 -89.5t123 -235.5q0 -50 -9 -89l-151 -713h-283l29 136h-18q-47 -71 -131 -112t-181 -41zM1125 1519l-37 -181h-726l38 181h725z" />
    <glyph glyph-name="Abreve" unicode="&#x102;" horiz-adv-x="1501" 
d="M874 1142l-304 -565h381l-58 565h-19zM1000 0l-35 344h-509l-186 -344h-315l820 1443h349l187 -1443h-311zM1007 1579q-182 0 -280.5 98.5t-86.5 238.5l202 -1q-4 -75 42.5 -120.5t129.5 -45.5q164 0 201 166h204q-22 -153 -131 -244.5t-281 -91.5z" />
    <glyph glyph-name="abreve" unicode="&#x103;" horiz-adv-x="1202" 
d="M492 202q93 0 165 52t90 132l21 95l-228 -8q-100 -4 -156.5 -43t-56.5 -104q0 -55 46 -89.5t119 -34.5zM369 -17q-140 0 -234 86t-94 215q0 168 129.5 266.5t361.5 105.5l274 9l15 68q5 25 5 40q0 57 -49 90.5t-133 33.5q-147 0 -192 -98h-275q35 151 167.5 239.5
t320.5 88.5q202 0 325 -89.5t123 -235.5q0 -50 -9 -89l-151 -713h-283l29 136h-18q-47 -71 -131 -112t-181 -41zM749 1247q-72 0 -132.5 16.5t-101 44.5t-71.5 64t-44 75.5t-19 80t4 76.5h202q-9 -79 34 -131t136 -52q84 0 137.5 47t67.5 136h202q-16 -162 -126 -259.5
t-289 -97.5z" />
    <glyph glyph-name="Aogonek" unicode="&#x104;" horiz-adv-x="1501" 
d="M1190 -286l-35 -167q-35 -13 -97 -13q-126 0 -204 59t-78 154q0 80 60 153.5t162 112.5l-33 331h-509l-186 -344h-315l820 1443h349l187 -1443l-56 -5q-105 -14 -174 -68t-69 -122q0 -44 35 -69.5t96 -25.5q35 0 47 4zM874 1142l-304 -565h381l-58 565h-19z" />
    <glyph glyph-name="aogonek" unicode="&#x105;" horiz-adv-x="1202" 
d="M768 481l-228 -8q-100 -4 -156.5 -43t-56.5 -104q0 -55 46 -89.5t119 -34.5q93 0 165 52t90 132zM452 799h-275q35 151 167.5 239.5t320.5 88.5q202 0 325 -89.5t123 -235.5q0 -50 -9 -89l-151 -713q-113 -17 -188 -70.5t-75 -120.5q0 -45 34.5 -71t94.5 -26q32 0 74 8
l-35 -170q-53 -17 -123 -17q-108 0 -182.5 61.5t-74.5 163.5q0 83 53 153t144 114l24 111h-18q-47 -71 -131 -112t-181 -41q-140 0 -234 86t-94 215q0 168 129.5 266.5t361.5 105.5l274 9l15 68q5 25 5 40q0 57 -49 90.5t-133 33.5q-147 0 -192 -98z" />
    <glyph glyph-name="Cacute" unicode="&#x106;" horiz-adv-x="1533" 
d="M1217 932v14q-5 120 -88.5 193t-216.5 73q-129 0 -236 -81t-168 -224t-61 -318q0 -166 84.5 -262.5t230.5 -96.5q123 0 220 64t132 170h299q-47 -228 -231 -364.5t-446 -136.5q-272 0 -435 165t-163 440q0 263 102 471.5t283 324.5t408 116q163 0 296.5 -66t209.5 -182
t76 -257q0 -28 -2 -43h-294zM1043 1592h-208l198 324h275z" />
    <glyph glyph-name="cacute" unicode="&#x107;" horiz-adv-x="1208" 
d="M700 1127q193 0 317 -107t137 -254q2 -13 2 -43h-276q-4 76 -59.5 120.5t-139.5 44.5q-131 0 -215 -122t-84 -303q0 -120 58 -183t150 -63q82 0 141 40.5t84 115.5h279q-29 -172 -169.5 -284.5t-351.5 -112.5q-220 0 -351 126.5t-131 338.5q0 195 76 351t215.5 245.5
t317.5 89.5zM833 1250h-208l212 354h278z" />
    <glyph glyph-name="Ccircumflex" unicode="&#x108;" horiz-adv-x="1533" 
d="M1217 932v14q-5 120 -88.5 193t-216.5 73q-129 0 -236 -81t-168 -224t-61 -318q0 -166 84.5 -262.5t230.5 -96.5q123 0 220 64t132 170h299q-47 -228 -231 -364.5t-446 -136.5q-272 0 -435 165t-163 440q0 263 102 471.5t283 324.5t408 116q163 0 296.5 -66t209.5 -182
t76 -257q0 -28 -2 -43h-294zM1158 1926l186 -335h-250l-90 195h-18l-176 -195h-267l324 335h291z" />
    <glyph glyph-name="ccircumflex" unicode="&#x109;" horiz-adv-x="1208" 
d="M700 1127q193 0 317 -107t137 -254q2 -13 2 -43h-276q-4 76 -59.5 120.5t-139.5 44.5q-131 0 -215 -122t-84 -303q0 -120 58 -183t150 -63q82 0 141 40.5t84 115.5h279q-29 -172 -169.5 -284.5t-351.5 -112.5q-220 0 -351 126.5t-131 338.5q0 195 76 351t215.5 245.5
t317.5 89.5zM950 1605l190 -354h-251l-92 209h-18l-178 -209h-262l320 354h291z" />
    <glyph glyph-name="Cdotaccent" unicode="&#x10a;" horiz-adv-x="1533" 
d="M1217 932v14q-5 120 -88.5 193t-216.5 73q-129 0 -236 -81t-168 -224t-61 -318q0 -166 84.5 -262.5t230.5 -96.5q123 0 220 64t132 170h299q-47 -228 -231 -364.5t-446 -136.5q-272 0 -435 165t-163 440q0 263 102 471.5t283 324.5t408 116q163 0 296.5 -66t209.5 -182
t76 -257q0 -28 -2 -43h-294zM985 1595q-68 0 -116 48.5t-48 117.5q0 70 48 118.5t116 48.5t116.5 -48.5t48.5 -118.5q0 -69 -48 -117.5t-117 -48.5z" />
    <glyph glyph-name="cdotaccent" unicode="&#x10b;" horiz-adv-x="1208" 
d="M700 1127q193 0 317 -107t137 -254q2 -13 2 -43h-276q-4 76 -59.5 120.5t-139.5 44.5q-131 0 -215 -122t-84 -303q0 -120 58 -183t150 -63q82 0 141 40.5t84 115.5h279q-29 -172 -169.5 -284.5t-351.5 -112.5q-220 0 -351 126.5t-131 338.5q0 195 76 351t215.5 245.5
t317.5 89.5zM771 1268q-68 0 -116.5 49t-48.5 118t48.5 117.5t116.5 48.5t116 -48.5t48 -117.5q0 -70 -48 -118.5t-116 -48.5z" />
    <glyph glyph-name="Ccaron" unicode="&#x10c;" horiz-adv-x="1533" 
d="M1217 932v14q-5 120 -88.5 193t-216.5 73q-129 0 -236 -81t-168 -224t-61 -318q0 -166 84.5 -262.5t230.5 -96.5q123 0 220 64t132 170h299q-47 -228 -231 -364.5t-446 -136.5q-272 0 -435 165t-163 440q0 263 102 471.5t283 324.5t408 116q163 0 296.5 -66t209.5 -182
t76 -257q0 -28 -2 -43h-294zM798 1591l-186 335h251l90 -195h18l175 195h267l-324 -335h-291z" />
    <glyph glyph-name="ccaron" unicode="&#x10d;" horiz-adv-x="1208" 
d="M700 1127q193 0 317 -107t137 -254q2 -13 2 -43h-276q-4 76 -59.5 120.5t-139.5 44.5q-131 0 -215 -122t-84 -303q0 -120 58 -183t150 -63q82 0 141 40.5t84 115.5h279q-29 -172 -169.5 -284.5t-351.5 -112.5q-220 0 -351 126.5t-131 338.5q0 195 76 351t215.5 245.5
t317.5 89.5zM604 1251l-190 354h251l92 -209h18l179 209h261l-320 -354h-291z" />
    <glyph glyph-name="Dcaron" unicode="&#x10e;" horiz-adv-x="1535" 
d="M365 1443h511q276 0 433.5 -155.5t157.5 -431.5q0 -245 -96.5 -440.5t-268.5 -305.5t-388 -110h-655zM618 1187l-201 -930h270q205 0 337 157t132 408q0 170 -92 267.5t-255 97.5h-191zM674 1590l-186 335h251l90 -195h18l175 195h267l-324 -335h-291z" />
    <glyph glyph-name="dcaron" unicode="&#x10f;" horiz-adv-x="1517" 
d="M1530 1605h240l-176 -528h-175zM469 -17q-168 0 -275 116t-107 314q0 201 74 364t202 253.5t283 90.5q119 0 202.5 -57.5t110.5 -148.5h18l130 609h292l-323 -1524h-283l32 153h-18q-59 -80 -145 -125t-193 -45zM599 223q131 0 223 122.5t92 293.5q0 111 -58.5 173
t-153.5 62q-132 0 -222.5 -117.5t-90.5 -293.5q0 -110 59.5 -175t150.5 -65z" />
    <glyph glyph-name="Dcroat" unicode="&#x110;" horiz-adv-x="1535" 
d="M417 257h270q205 0 337 157t132 408q0 170 -92 267.5t-255 97.5h-191l-74 -341h263l-48 -228h-264zM365 1443h511q276 0 433.5 -155.5t157.5 -431.5q0 -245 -96.5 -440.5t-268.5 -305.5t-388 -110h-655l131 618h-120l47 228h121z" />
    <glyph glyph-name="dcroat" unicode="&#x111;" horiz-adv-x="1342" 
d="M599 223q131 0 223 122.5t92 293.5q0 111 -58.5 173t-153.5 62q-132 0 -222.5 -117.5t-90.5 -293.5q0 -110 59.5 -175t150.5 -65zM1524 1417l-34 -162h-148l-266 -1255h-283l32 153h-18q-59 -80 -145 -125t-193 -45q-168 0 -275 116t-107 314q0 201 74 364t202 253.5
t283 90.5q119 0 202.5 -57.5t110.5 -148.5h18l73 340h-208l34 162h208l23 107h292l-23 -107h148z" />
    <glyph glyph-name="Emacron" unicode="&#x112;" horiz-adv-x="1273" 
d="M1067 258l-52 -258h-957l307 1443h956l-53 -258h-652l-75 -337h616l-50 -239h-615l-78 -351h653zM1288 1844l-38 -181h-725l37 181h726z" />
    <glyph glyph-name="emacron" unicode="&#x113;" horiz-adv-x="1251" 
d="M401 669h479q3 18 3 38q0 85 -55 140.5t-149 55.5q-99 0 -174 -64t-104 -170zM582 -24q-218 0 -353 127t-135 347q0 302 166 489.5t431 187.5q201 0 333 -127t132 -335q0 -82 -17 -180h-770q0 -4 -0.5 -15.5t-0.5 -15.5q0 -122 66 -186.5t166 -64.5q163 0 218 114h280
q-38 -154 -176.5 -247.5t-339.5 -93.5zM1137 1519l-37 -181h-726l38 181h725z" />
    <glyph glyph-name="Ebreve" unicode="&#x114;" horiz-adv-x="1273" 
d="M1067 258l-52 -258h-957l307 1443h956l-53 -258h-652l-75 -337h616l-50 -239h-615l-78 -351h653zM901 1579q-182 0 -280.5 98.5t-86.5 238.5l202 -1q-4 -75 42.5 -120.5t129.5 -45.5q164 0 201 166h204q-22 -153 -131 -244.5t-281 -91.5z" />
    <glyph glyph-name="ebreve" unicode="&#x115;" horiz-adv-x="1251" 
d="M401 669h479q3 18 3 38q0 85 -55 140.5t-149 55.5q-99 0 -174 -64t-104 -170zM582 -24q-218 0 -353 127t-135 347q0 302 166 489.5t431 187.5q201 0 333 -127t132 -335q0 -82 -17 -180h-770q0 -4 -0.5 -15.5t-0.5 -15.5q0 -122 66 -186.5t166 -64.5q163 0 218 114h280
q-38 -154 -176.5 -247.5t-339.5 -93.5zM761 1247q-72 0 -132.5 16.5t-101 44.5t-71.5 64t-44 75.5t-19 80t4 76.5h202q-9 -79 34 -131t136 -52q84 0 137.5 47t67.5 136h202q-16 -162 -126 -259.5t-289 -97.5z" />
    <glyph glyph-name="Edotaccent" unicode="&#x116;" horiz-adv-x="1273" 
d="M1067 258l-52 -258h-957l307 1443h956l-53 -258h-652l-75 -337h616l-50 -239h-615l-78 -351h653zM908 1594q-68 0 -116 48.5t-48 117.5q0 70 48 118.5t116 48.5t116.5 -48.5t48.5 -118.5t-48.5 -118t-116.5 -48z" />
    <glyph glyph-name="edotaccent" unicode="&#x117;" horiz-adv-x="1251" 
d="M401 669h479q3 18 3 38q0 85 -55 140.5t-149 55.5q-99 0 -174 -64t-104 -170zM582 -24q-218 0 -353 127t-135 347q0 302 166 489.5t431 187.5q201 0 333 -127t132 -335q0 -82 -17 -180h-770q0 -4 -0.5 -15.5t-0.5 -15.5q0 -122 66 -186.5t166 -64.5q163 0 218 114h280
q-38 -154 -176.5 -247.5t-339.5 -93.5zM758 1268q-68 0 -116.5 49t-48.5 118t48.5 117.5t116.5 48.5t116 -48.5t48 -117.5q0 -70 -48 -118.5t-116 -48.5z" />
    <glyph glyph-name="Eogonek" unicode="&#x118;" horiz-adv-x="1274" 
d="M58 0l307 1443h956l-53 -258h-652l-75 -337h616l-50 -239h-615l-78 -351h653l-52 -257l-44 -6q-105 -14 -174 -68t-69 -122q0 -44 35 -69.5t96 -25.5q35 0 47 4l-35 -167q-35 -13 -97 -13q-126 0 -204 59t-78 154q0 75 50 139t129 96l3 18h-616z" />
    <glyph glyph-name="eogonek" unicode="&#x119;" horiz-adv-x="1251" 
d="M730 -466q-125 0 -203.5 59t-78.5 154q0 64 46 125t114 87l4 20q-14 -3 -30 -3q-223 0 -355.5 128.5t-132.5 345.5q0 301 165.5 489t431.5 188q205 0 335 -129t130 -333q0 -84 -17 -180h-770q0 -7 -0.5 -17.5t-0.5 -13.5q0 -115 63 -183t169 -68q163 0 218 114h280
q-39 -161 -206 -266q-109 -68 -158.5 -126.5t-49.5 -119.5q0 -44 35.5 -69.5t95.5 -25.5q35 0 47 4l-35 -167q-41 -13 -97 -13zM401 669h479q3 18 3 38q0 88 -56.5 142t-147.5 54q-98 0 -173.5 -63t-104.5 -171z" />
    <glyph glyph-name="Ecaron" unicode="&#x11a;" horiz-adv-x="1273" 
d="M1067 258l-52 -258h-957l307 1443h956l-53 -258h-652l-75 -337h616l-50 -239h-615l-78 -351h653zM721 1590l-186 335h251l90 -195h18l175 195h267l-324 -335h-291z" />
    <glyph glyph-name="ecaron" unicode="&#x11b;" horiz-adv-x="1251" 
d="M401 669h479q3 18 3 38q0 85 -55 140.5t-149 55.5q-99 0 -174 -64t-104 -170zM582 -24q-218 0 -353 127t-135 347q0 302 166 489.5t431 187.5q201 0 333 -127t132 -335q0 -82 -17 -180h-770q0 -4 -0.5 -15.5t-0.5 -15.5q0 -122 66 -186.5t166 -64.5q163 0 218 114h280
q-38 -154 -176.5 -247.5t-339.5 -93.5zM591 1251l-190 354h251l92 -209h18l179 209h261l-320 -354h-291z" />
    <glyph glyph-name="Gcircumflex" unicode="&#x11c;" horiz-adv-x="1566" 
d="M1492 760l-37 -184q-58 -299 -240 -456t-467 -157q-275 0 -441.5 167.5t-166.5 443.5q0 263 101 469.5t281 321.5t408 115q158 0 290 -62t210.5 -169.5t82.5 -238.5v-33h-294q-6 104 -92 169t-216 65q-198 0 -330 -175t-132 -441q0 -168 88 -265.5t239 -97.5
q141 0 242 75.5t127 201.5l5 25h-307l47 226h602zM1156 1926l186 -335h-250l-90 195h-18l-176 -195h-267l324 335h291z" />
    <glyph glyph-name="gcircumflex" unicode="&#x11d;" horiz-adv-x="1327" 
d="M488 -417q-221 0 -359.5 94.5t-137.5 239.5h290q5 -55 65.5 -89t160.5 -34q112 0 178 49t86 139l44 194l-18 1q-109 -155 -325 -155q-166 0 -273.5 115.5t-107.5 300.5q0 190 72 347t197.5 246.5t276.5 89.5q114 0 203 -58t120 -152h17l42 192h284l-246 -1147
q-37 -175 -186.5 -274t-382.5 -99zM599 237q129 0 218.5 116t89.5 286q0 107 -58 171t-156 64q-130 0 -216.5 -112.5t-86.5 -285.5q0 -110 56.5 -174.5t152.5 -64.5zM950 1606l190 -354h-251l-92 209h-18l-178 -209h-262l320 354h291z" />
    <glyph glyph-name="Gbreve" unicode="&#x11e;" horiz-adv-x="1566" 
d="M1492 760l-37 -184q-58 -299 -240 -456t-467 -157q-275 0 -441.5 167.5t-166.5 443.5q0 263 101 469.5t281 321.5t408 115q158 0 290 -62t210.5 -169.5t82.5 -238.5v-33h-294q-6 104 -92 169t-216 65q-198 0 -330 -175t-132 -441q0 -168 88 -265.5t239 -97.5
q141 0 242 75.5t127 201.5l5 25h-307l47 226h602zM976 1580q-182 0 -280.5 98.5t-86.5 238.5l202 -1q-4 -75 42.5 -120.5t129.5 -45.5q164 0 201 166h204q-22 -153 -131 -244.5t-281 -91.5z" />
    <glyph glyph-name="gbreve" unicode="&#x11f;" horiz-adv-x="1327" 
d="M488 -417q-221 0 -359.5 94.5t-137.5 239.5h290q5 -55 65.5 -89t160.5 -34q112 0 178 49t86 139l44 194l-18 1q-109 -155 -325 -155q-166 0 -273.5 115.5t-107.5 300.5q0 190 72 347t197.5 246.5t276.5 89.5q114 0 203 -58t120 -152h17l42 192h284l-246 -1147
q-37 -175 -186.5 -274t-382.5 -99zM599 237q129 0 218.5 116t89.5 286q0 107 -58 171t-156 64q-130 0 -216.5 -112.5t-86.5 -285.5q0 -110 56.5 -174.5t152.5 -64.5zM774 1248q-72 0 -132.5 16.5t-101 44.5t-71.5 64t-44 75.5t-19 80t4 76.5h202q-9 -79 34 -131t136 -52
q84 0 137.5 47t67.5 136h202q-16 -162 -126 -259.5t-289 -97.5z" />
    <glyph glyph-name="Gdotaccent" unicode="&#x120;" horiz-adv-x="1566" 
d="M1492 760l-37 -184q-58 -299 -240 -456t-467 -157q-275 0 -441.5 167.5t-166.5 443.5q0 263 101 469.5t281 321.5t408 115q158 0 290 -62t210.5 -169.5t82.5 -238.5v-33h-294q-6 104 -92 169t-216 65q-198 0 -330 -175t-132 -441q0 -168 88 -265.5t239 -97.5
q141 0 242 75.5t127 201.5l5 25h-307l47 226h602zM983 1595q-68 0 -116 48.5t-48 117.5q0 70 48 118.5t116 48.5t116.5 -48.5t48.5 -118.5q0 -69 -48 -117.5t-117 -48.5z" />
    <glyph glyph-name="gdotaccent" unicode="&#x121;" horiz-adv-x="1327" 
d="M488 -417q-221 0 -359.5 94.5t-137.5 239.5h290q5 -55 65.5 -89t160.5 -34q112 0 178 49t86 139l44 194l-18 1q-109 -155 -325 -155q-166 0 -273.5 115.5t-107.5 300.5q0 190 72 347t197.5 246.5t276.5 89.5q114 0 203 -58t120 -152h17l42 192h284l-246 -1147
q-37 -175 -186.5 -274t-382.5 -99zM599 237q129 0 218.5 116t89.5 286q0 107 -58 171t-156 64q-130 0 -216.5 -112.5t-86.5 -285.5q0 -110 56.5 -174.5t152.5 -64.5zM771 1269q-68 0 -116.5 49t-48.5 118t48.5 117.5t116.5 48.5t116 -48.5t48 -117.5q0 -70 -48 -118.5
t-116 -48.5z" />
    <glyph glyph-name="Gcommaaccent" unicode="&#x122;" horiz-adv-x="1566" 
d="M1492 760l-37 -184q-58 -299 -240 -456t-467 -157q-275 0 -441.5 167.5t-166.5 443.5q0 263 101 469.5t281 321.5t408 115q158 0 290 -62t210.5 -169.5t82.5 -238.5v-33h-294q-6 104 -92 169t-216 65q-198 0 -330 -175t-132 -441q0 -168 88 -265.5t239 -97.5
q141 0 242 75.5t127 201.5l5 25h-307l47 226h602zM671 -494h-213l146 365h283z" />
    <glyph glyph-name="gcommaaccent" unicode="&#x123;" horiz-adv-x="1327" 
d="M797 1617h213l-147 -366h-282zM488 -417q-221 0 -359.5 94.5t-137.5 239.5h290q5 -55 65.5 -89t160.5 -34q112 0 178 49t86 139l44 194l-18 1q-109 -155 -325 -155q-166 0 -273.5 115.5t-107.5 300.5q0 190 72 347t197.5 246.5t276.5 89.5q114 0 203 -58t120 -152h17
l42 192h284l-246 -1147q-37 -175 -186.5 -274t-382.5 -99zM599 237q129 0 218.5 116t89.5 286q0 107 -58 171t-156 64q-130 0 -216.5 -112.5t-86.5 -285.5q0 -110 56.5 -174.5t152.5 -64.5z" />
    <glyph glyph-name="Hcircumflex" unicode="&#x124;" horiz-adv-x="1605" 
d="M1314 0h-305l129 603h-648l-129 -603h-303l307 1443h304l-125 -582h648l125 582h304zM1230 1925l186 -335h-250l-90 195h-18l-176 -195h-267l324 335h291z" />
    <glyph glyph-name="hcircumflex" unicode="&#x125;" horiz-adv-x="1301" 
d="M33 0l323 1515h292l-125 -578h18q119 187 333 187q154 0 243.5 -90t89.5 -227q0 -58 -14 -131l-142 -676h-291l132 628q10 48 10 84q0 79 -49 125t-134 46q-97 0 -164.5 -62t-89.5 -162l-140 -659h-292zM737 1997l186 -335h-250l-90 195h-18l-176 -195h-267l324 335h291z
" />
    <glyph glyph-name="Hbar" unicode="&#x126;" horiz-adv-x="1605" 
d="M1192 861l39 182h-648l-39 -182h648zM1746 1271l-48 -228h-162l-222 -1043h-305l129 603h-648l-129 -603h-303l222 1043h-152l47 228h153l37 172h304l-37 -172h648l37 172h304l-37 -172h162z" />
    <glyph glyph-name="hbar" unicode="&#x127;" horiz-adv-x="1301" 
d="M523 937h18q119 187 333 187q154 0 243.5 -90t89.5 -227q0 -58 -14 -131l-142 -676h-291l132 628q10 48 10 84q0 79 -49 125t-134 46q-97 0 -164.5 -62t-89.5 -162l-140 -659h-292l268 1255h-137l34 162h137l21 98h292l-21 -98h233l-35 -162h-233z" />
    <glyph glyph-name="Itilde" unicode="&#x128;" horiz-adv-x="653" 
d="M362 0h-304l307 1443h304zM169 1608q24 135 94 215t173 80q43 0 80.5 -15t62.5 -37t47 -44t44.5 -37t43.5 -15q62 0 89 119h181q-23 -134 -92.5 -214.5t-173.5 -80.5q-43 0 -80.5 15t-62.5 37t-47 44t-44.5 37t-43.5 15q-62 0 -89 -119h-182z" />
    <glyph glyph-name="itilde" unicode="&#x129;" horiz-adv-x="599" 
d="M37 0l234 1103h291l-234 -1103h-291zM73 1282q24 135 93.5 215t172.5 80q52 0 97.5 -23t71 -50.5t55 -50.5t54.5 -23q62 0 90 119h181q-24 -134 -93.5 -214.5t-172.5 -80.5q-43 0 -80.5 15t-62.5 37t-47 44t-44.5 37t-43.5 15q-63 0 -90 -120h-181z" />
    <glyph glyph-name="Imacron" unicode="&#x12a;" horiz-adv-x="653" 
d="M362 0h-304l307 1443h304zM962 1844l-38 -181h-725l37 181h726z" />
    <glyph glyph-name="imacron" unicode="&#x12b;" horiz-adv-x="599" 
d="M37 0l234 1103h291l-234 -1103h-291zM780 1519l-31 -181h-617l32 181h616z" />
    <glyph glyph-name="Ibreve" unicode="&#x12c;" horiz-adv-x="653" 
d="M362 0h-304l307 1443h304zM575 1579q-182 0 -280.5 98.5t-86.5 238.5l202 -1q-4 -75 42.5 -120.5t129.5 -45.5q164 0 201 166h204q-22 -153 -131 -244.5t-281 -91.5z" />
    <glyph glyph-name="ibreve" unicode="&#x12d;" horiz-adv-x="599" 
d="M37 0l234 1103h291l-234 -1103h-291zM489 1247q-72 0 -132.5 16.5t-101 44.5t-71.5 64t-44 75.5t-19 80t4 76.5h202q-9 -79 34 -131t136 -52q84 0 137.5 47t67.5 136h202q-16 -162 -126 -259.5t-289 -97.5z" />
    <glyph glyph-name="Iogonek" unicode="&#x12e;" horiz-adv-x="653" 
d="M164 -466q-132 0 -209 59t-77 147q0 75 47.5 140.5t128.5 101.5l311 1461h304l-308 -1447l-22 -1q-96 -14 -159 -67.5t-63 -122.5q0 -44 35 -69.5t96 -25.5q30 0 46 4l-35 -167q-43 -13 -95 -13z" />
    <glyph glyph-name="iogonek" unicode="&#x12f;" horiz-adv-x="599" 
d="M233 -453q-38 -13 -95 -13q-127 0 -206.5 57.5t-79.5 148.5q0 75 48 141.5t135 105.5l236 1116h291l-235 -1108l-15 -1q-97 -12 -159 -66t-62 -123q0 -44 34.5 -69.5t95.5 -25.5q30 0 47 4zM482 1257q-76 0 -124 40t-48 103q0 67 48.5 109t123.5 42q76 0 124 -40t48 -102
q0 -67 -48 -109.5t-124 -42.5z" />
    <glyph glyph-name="Idotaccent" unicode="&#x130;" horiz-adv-x="653" 
d="M362 0h-304l307 1443h304zM582 1594q-68 0 -116 48.5t-48 117.5q0 70 48 118.5t116 48.5t116.5 -48.5t48.5 -118.5t-48.5 -118t-116.5 -48z" />
    <glyph glyph-name="dotlessi" unicode="&#x131;" horiz-adv-x="599" 
d="M37 0l234 1103h291l-234 -1103h-291z" />
    <glyph glyph-name="IJ" unicode="&#x132;" horiz-adv-x="1882" 
d="M362 0h-304l307 1443h304zM696 382q0 21 1 31h293v-9q1 -77 49.5 -122t130.5 -45q167 0 212 209l213 997h302l-222 -1042q-44 -213 -176.5 -325.5t-341.5 -112.5q-210 0 -338 116.5t-123 302.5z" />
    <glyph glyph-name="ij" unicode="&#x133;" horiz-adv-x="1198" 
d="M37 0l234 1103h291l-234 -1103h-291zM486 1268q-68 0 -116.5 49t-48.5 118t48.5 117.5t116.5 48.5t116 -48.5t48 -117.5q0 -70 -48 -118.5t-116 -48.5zM1162 1103l-247 -1159q-66 -320 -404 -320q-80 0 -138 13l49 225q30 -6 64 -6q62 0 96.5 28t48.5 92l240 1127h291z
M1085 1268q-68 0 -116.5 49t-48.5 118t48.5 117.5t116.5 48.5t116 -48.5t48 -117.5q0 -70 -48 -118.5t-116 -48.5z" />
    <glyph glyph-name="Jcircumflex" unicode="&#x134;" horiz-adv-x="1229" 
d="M43 382q0 21 1 31h293v-9q1 -77 49.5 -122t130.5 -45q167 0 212 209l213 997h302l-222 -1042q-44 -213 -176.5 -325.5t-341.5 -112.5q-210 0 -338 116.5t-123 302.5zM1330 1925l186 -335h-250l-90 195h-18l-176 -195h-267l324 335h291z" />
    <glyph glyph-name="jcircumflex" unicode="&#x135;" horiz-adv-x="599" 
d="M563 1103l-247 -1159q-66 -320 -404 -320q-80 0 -138 13l49 225q30 -6 64 -6q62 0 96.5 28t48.5 92l240 1127h291zM665 1605l190 -354h-251l-92 209h-18l-178 -209h-262l320 354h291z" />
    <glyph glyph-name="Kcommaaccent" unicode="&#x136;" horiz-adv-x="1454" 
d="M360 0h-302l307 1443h302l-137 -635h18l660 635h357l-670 -653l383 -790h-341l-292 606l-192 -182zM546 -494h-213l146 365h283z" />
    <glyph glyph-name="kcommaaccent" unicode="&#x137;" horiz-adv-x="1210" 
d="M325 0h-292l324 1524h291l-177 -834h18l448 413h340l-529 -482l328 -621h-321l-242 457l-110 -94zM443 -494h-213l146 365h283z" />
    <glyph glyph-name="Lacute" unicode="&#x139;" horiz-adv-x="1219" 
d="M1056 263l-54 -263h-944l307 1443h303l-253 -1180h641zM640 1591h-208l198 324h275z" />
    <glyph glyph-name="lacute" unicode="&#x13a;" horiz-adv-x="593" 
d="M33 0l324 1524h293l-324 -1524h-293zM626 1671h-208l198 324h275z" />
    <glyph glyph-name="Lcommaaccent" unicode="&#x13b;" horiz-adv-x="1219" 
d="M1056 263l-54 -263h-944l307 1443h303l-253 -1180h641zM439 -494h-213l146 365h283z" />
    <glyph glyph-name="lcommaaccent" unicode="&#x13c;" horiz-adv-x="593" 
d="M33 0l324 1524h293l-324 -1524h-293zM89 -494h-213l146 365h283z" />
    <glyph glyph-name="Lcaron" unicode="&#x13d;" horiz-adv-x="1219" 
d="M1056 263l-54 -263h-944l307 1443h303l-253 -1180h641zM937 1605h240l-178 -541h-176z" />
    <glyph glyph-name="lcaron" unicode="&#x13e;" horiz-adv-x="789" 
d="M33 0l324 1524h293l-324 -1524h-293zM803 1605h240l-176 -527h-175z" />
    <glyph glyph-name="Lslash" unicode="&#x141;" horiz-adv-x="1237" 
d="M434 263h641l-54 -263h-944l142 666l-186 -86l42 205l188 87l121 571h303l-89 -415l261 121l-43 -205l-262 -122z" />
    <glyph glyph-name="lslash" unicode="&#x142;" horiz-adv-x="593" 
d="M675 1090l-42 -205l-132 -64l-175 -821h-293l141 664l-129 -62l42 205l131 63l139 654h293l-106 -497z" />
    <glyph glyph-name="Nacute" unicode="&#x143;" horiz-adv-x="1573" 
d="M351 0h-293l307 1443h231l479 -929h18l202 929h293l-307 -1443h-229l-483 922h-18zM1082 1591h-208l198 324h275z" />
    <glyph glyph-name="nacute" unicode="&#x144;" horiz-adv-x="1285" 
d="M25 0l235 1103h283l-38 -175h18q121 193 339 193q150 0 239.5 -91.5t89.5 -231.5q0 -60 -15 -131l-141 -667h-291l132 619q10 46 10 84q0 77 -47.5 125t-131.5 48q-95 0 -162 -62.5t-89 -163.5l-139 -650h-292zM904 1256h-208l212 354h278z" />
    <glyph glyph-name="Ncommaaccent" unicode="&#x145;" horiz-adv-x="1573" 
d="M351 0h-293l307 1443h231l479 -929h18l202 929h293l-307 -1443h-229l-483 922h-18zM602 -494h-213l146 365h283z" />
    <glyph glyph-name="ncommaaccent" unicode="&#x146;" horiz-adv-x="1285" 
d="M25 0l235 1103h283l-38 -175h18q121 193 339 193q150 0 239.5 -91.5t89.5 -231.5q0 -60 -15 -131l-141 -667h-291l132 619q10 46 10 84q0 77 -47.5 125t-131.5 48q-95 0 -162 -62.5t-89 -163.5l-139 -650h-292zM443 -494h-213l146 365h283z" />
    <glyph glyph-name="Ncaron" unicode="&#x147;" horiz-adv-x="1573" 
d="M351 0h-293l307 1443h231l479 -929h18l202 929h293l-307 -1443h-229l-483 922h-18zM837 1590l-186 335h251l90 -195h18l175 195h267l-324 -335h-291z" />
    <glyph glyph-name="ncaron" unicode="&#x148;" horiz-adv-x="1285" 
d="M25 0l235 1103h283l-38 -175h18q121 193 339 193q150 0 239.5 -91.5t89.5 -231.5q0 -60 -15 -131l-141 -667h-291l132 619q10 46 10 84q0 77 -47.5 125t-131.5 48q-95 0 -162 -62.5t-89 -163.5l-139 -650h-292zM675 1257l-190 354h251l92 -209h18l179 209h261l-320 -354
h-291z" />
    <glyph glyph-name="Omacron" unicode="&#x14c;" horiz-adv-x="1618" 
d="M917 1209q-129 0 -236.5 -80.5t-169.5 -221t-62 -309.5q0 -165 89.5 -265t236.5 -100q129 0 236 79.5t168.5 220t61.5 311.5q0 165 -89 265t-235 100zM763 -37q-185 0 -328 80t-219.5 219.5t-76.5 313.5q0 157 39 297.5t110.5 250.5t168.5 190.5t218 123t254 42.5
q282 0 452 -173t170 -440q0 -197 -60.5 -366t-165 -287t-250 -184.5t-312.5 -66.5zM1376 1843l-38 -181h-725l37 181h726z" />
    <glyph glyph-name="omacron" unicode="&#x14d;" horiz-adv-x="1299" 
d="M603 215q122 0 210 122t88 291q0 123 -53 192t-148 69q-130 0 -217 -121t-87 -301q0 -116 56 -184t151 -68zM716 1127q221 0 355.5 -132t134.5 -351q0 -189 -80.5 -342t-222.5 -239.5t-317 -86.5q-222 0 -357.5 132.5t-135.5 349.5q0 190 80.5 343t223 239.5t319.5 86.5z
M1161 1519l-37 -181h-726l38 181h725z" />
    <glyph glyph-name="Obreve" unicode="&#x14e;" horiz-adv-x="1618" 
d="M917 1209q-129 0 -236.5 -80.5t-169.5 -221t-62 -309.5q0 -165 89.5 -265t236.5 -100q129 0 236 79.5t168.5 220t61.5 311.5q0 165 -89 265t-235 100zM763 -37q-185 0 -328 80t-219.5 219.5t-76.5 313.5q0 157 39 297.5t110.5 250.5t168.5 190.5t218 123t254 42.5
q282 0 452 -173t170 -440q0 -197 -60.5 -366t-165 -287t-250 -184.5t-312.5 -66.5zM988 1578q-182 0 -280.5 98.5t-86.5 238.5l202 -1q-4 -75 42.5 -120.5t129.5 -45.5q164 0 201 166h204q-22 -153 -131 -244.5t-281 -91.5z" />
    <glyph glyph-name="obreve" unicode="&#x14f;" horiz-adv-x="1299" 
d="M603 215q122 0 210 122t88 291q0 123 -53 192t-148 69q-130 0 -217 -121t-87 -301q0 -116 56 -184t151 -68zM716 1127q221 0 355.5 -132t134.5 -351q0 -189 -80.5 -342t-222.5 -239.5t-317 -86.5q-222 0 -357.5 132.5t-135.5 349.5q0 190 80.5 343t223 239.5t319.5 86.5z
M785 1247q-72 0 -132.5 16.5t-101 44.5t-71.5 64t-44 75.5t-19 80t4 76.5h202q-9 -79 34 -131t136 -52q84 0 137.5 47t67.5 136h202q-16 -162 -126 -259.5t-289 -97.5z" />
    <glyph glyph-name="Ohungarumlaut" unicode="&#x150;" horiz-adv-x="1618" 
d="M917 1209q-129 0 -236.5 -80.5t-169.5 -221t-62 -309.5q0 -165 89.5 -265t236.5 -100q129 0 236 79.5t168.5 220t61.5 311.5q0 165 -89 265t-235 100zM763 -37q-185 0 -328 80t-219.5 219.5t-76.5 313.5q0 157 39 297.5t110.5 250.5t168.5 190.5t218 123t254 42.5
q282 0 452 -173t170 -440q0 -197 -60.5 -366t-165 -287t-250 -184.5t-312.5 -66.5zM853 1589h-203l145 318h249zM1234 1589h-209l199 318h266z" />
    <glyph glyph-name="ohungarumlaut" unicode="&#x151;" horiz-adv-x="1299" 
d="M603 215q122 0 210 122t88 291q0 123 -53 192t-148 69q-130 0 -217 -121t-87 -301q0 -116 56 -184t151 -68zM716 1127q221 0 355.5 -132t134.5 -351q0 -189 -80.5 -342t-222.5 -239.5t-317 -86.5q-222 0 -357.5 132.5t-135.5 349.5q0 190 80.5 343t223 239.5t319.5 86.5z
M429 1251l162 354h255l-214 -354h-203zM804 1251l222 354h273l-286 -354h-209z" />
    <glyph glyph-name="OE" unicode="&#x152;" horiz-adv-x="2312" 
d="M1148 0l23 102h-15q-62 -62 -166 -100.5t-222 -38.5q-276 0 -450 171t-174 442q0 193 60 361.5t164 287.5t251 187t315 68q153 0 274 -63t186 -172h18l43 198h901l-53 -258h-652l-75 -337h616l-50 -239h-615l-78 -351h653l-52 -258h-902zM1249 846q0 166 -90 267.5
t-237 101.5q-130 0 -238.5 -82t-170.5 -224t-62 -312q0 -166 90 -267.5t238 -101.5q131 0 239 81.5t169.5 223t61.5 313.5z" />
    <glyph glyph-name="oe" unicode="&#x153;" horiz-adv-x="2048" 
d="M1380 -24q-119 0 -217.5 49t-157.5 138h-18q-147 -187 -403 -187q-222 0 -356.5 132t-134.5 349q0 190 80 343.5t222 240t318 86.5q119 0 214.5 -49.5t150.5 -140.5h19q148 190 391 190q205 0 335 -129t131 -333q0 -88 -18 -180h-769q-1 -12 -1 -32q0 -115 63 -182.5
t169 -67.5q162 0 217 114h281q-39 -156 -179 -248.5t-337 -92.5zM1198 669h479q3 9 3 38q0 88 -56 142t-147 54q-99 0 -174.5 -63t-104.5 -171zM396 466q0 -116 56 -184t151 -68q122 0 210 122t88 292q0 123 -53 192t-148 69q-130 0 -217 -121.5t-87 -301.5z" />
    <glyph glyph-name="Racute" unicode="&#x154;" horiz-adv-x="1418" 
d="M58 0l307 1443h571q200 0 326 -114.5t126 -294.5q0 -161 -97 -292t-260 -184l198 -558h-325l-172 523h-258l-112 -523h-304zM619 1199l-98 -444h264q132 0 213.5 70t81.5 182q0 91 -56 141.5t-157 50.5h-248zM954 1591h-208l198 324h275z" />
    <glyph glyph-name="racute" unicode="&#x155;" horiz-adv-x="908" 
d="M21 0l235 1103h283l-31 -152h18q94 170 274 170q91 0 142 -24l-58 -268q-75 30 -168 30q-218 0 -272 -251l-131 -608h-292zM692 1250h-208l212 354h278z" />
    <glyph glyph-name="Rcommaaccent" unicode="&#x156;" horiz-adv-x="1418" 
d="M58 0l307 1443h571q200 0 326 -114.5t126 -294.5q0 -161 -97 -292t-260 -184l198 -558h-325l-172 523h-258l-112 -523h-304zM619 1199l-98 -444h264q132 0 213.5 70t81.5 182q0 91 -56 141.5t-157 50.5h-248zM532 -494h-213l146 365h283z" />
    <glyph glyph-name="rcommaaccent" unicode="&#x157;" horiz-adv-x="908" 
d="M21 0l235 1103h283l-31 -152h18q94 170 274 170q91 0 142 -24l-58 -268q-75 30 -168 30q-218 0 -272 -251l-131 -608h-292zM81 -494h-213l146 365h283z" />
    <glyph glyph-name="Rcaron" unicode="&#x158;" horiz-adv-x="1418" 
d="M58 0l307 1443h571q200 0 326 -114.5t126 -294.5q0 -161 -97 -292t-260 -184l198 -558h-325l-172 523h-258l-112 -523h-304zM619 1199l-98 -444h264q132 0 213.5 70t81.5 182q0 91 -56 141.5t-157 50.5h-248zM709 1590l-186 335h251l90 -195h18l175 195h267l-324 -335
h-291z" />
    <glyph glyph-name="rcaron" unicode="&#x159;" horiz-adv-x="908" 
d="M21 0l235 1103h283l-31 -152h18q94 170 274 170q91 0 142 -24l-58 -268q-75 30 -168 30q-218 0 -272 -251l-131 -608h-292zM463 1251l-190 354h251l92 -209h18l179 209h261l-320 -354h-291z" />
    <glyph glyph-name="Sacute" unicode="&#x15a;" horiz-adv-x="1362" 
d="M65 412h292q16 -92 99 -148t201 -56q122 0 198 52t76 137q0 63 -49.5 105.5t-166.5 79.5l-150 47q-160 50 -247.5 152.5t-87.5 241.5q0 130 73.5 234.5t203.5 163.5t291 59q237 0 389.5 -124.5t159.5 -322.5h-285q-14 91 -89.5 146.5t-186.5 55.5q-106 0 -177.5 -50
t-71.5 -126q0 -61 46.5 -105.5t147.5 -76.5l148 -46q184 -58 270 -152t86 -240q0 -214 -165.5 -345t-434.5 -131q-248 0 -402.5 120t-167.5 329zM938 1591h-208l198 324h275z" />
    <glyph glyph-name="sacute" unicode="&#x15b;" horiz-adv-x="1150" 
d="M169 770q0 161 126.5 259t330.5 98q200 0 322.5 -89.5t133.5 -238.5h-267q-10 52 -61.5 83.5t-127.5 31.5q-77 0 -126.5 -32t-49.5 -82q0 -36 29 -62t93 -47l179 -63q134 -46 194.5 -115t60.5 -175q0 -162 -133 -262t-348 -100q-212 0 -345.5 94.5t-139.5 247.5h281
q12 -57 68 -93t137 -36q85 0 136.5 32t51.5 85q0 36 -25.5 61t-87.5 45l-172 60q-132 45 -196 117.5t-64 180.5zM757 1250h-208l212 354h278z" />
    <glyph glyph-name="Scircumflex" unicode="&#x15c;" horiz-adv-x="1362" 
d="M65 412h292q16 -92 99 -148t201 -56q122 0 198 52t76 137q0 63 -49.5 105.5t-166.5 79.5l-150 47q-160 50 -247.5 152.5t-87.5 241.5q0 130 73.5 234.5t203.5 163.5t291 59q237 0 389.5 -124.5t159.5 -322.5h-285q-14 91 -89.5 146.5t-186.5 55.5q-106 0 -177.5 -50
t-71.5 -126q0 -61 46.5 -105.5t147.5 -76.5l148 -46q184 -58 270 -152t86 -240q0 -214 -165.5 -345t-434.5 -131q-248 0 -402.5 120t-167.5 329zM1052 1925l186 -335h-250l-90 195h-18l-176 -195h-267l324 335h291z" />
    <glyph glyph-name="scircumflex" unicode="&#x15d;" horiz-adv-x="1150" 
d="M169 770q0 161 126.5 259t330.5 98q200 0 322.5 -89.5t133.5 -238.5h-267q-10 52 -61.5 83.5t-127.5 31.5q-77 0 -126.5 -32t-49.5 -82q0 -36 29 -62t93 -47l179 -63q134 -46 194.5 -115t60.5 -175q0 -162 -133 -262t-348 -100q-212 0 -345.5 94.5t-139.5 247.5h281
q12 -57 68 -93t137 -36q85 0 136.5 32t51.5 85q0 36 -25.5 61t-87.5 45l-172 60q-132 45 -196 117.5t-64 180.5zM874 1605l190 -354h-251l-92 209h-18l-178 -209h-262l320 354h291z" />
    <glyph glyph-name="Scedilla" unicode="&#x15e;" horiz-adv-x="1362" 
d="M731 877l148 -46q184 -58 270 -152t86 -240q0 -194 -137.5 -321t-367.5 -150l-70 -93q62 -7 108.5 -50t46.5 -117q0 -95 -78 -147t-206 -52q-87 0 -156 22l29 135q47 -15 102 -15q114 0 114 56q0 54 -115 54h-55l23 112l71 95q-210 21 -338.5 138.5t-140.5 305.5h292
q16 -92 99 -148t201 -56q122 0 198 52t76 137q0 63 -49.5 105.5t-166.5 79.5l-150 47q-160 50 -247.5 152.5t-87.5 241.5q0 130 73.5 234.5t203.5 163.5t291 59q237 0 389.5 -124.5t159.5 -322.5h-285q-14 91 -89.5 146.5t-186.5 55.5q-106 0 -177.5 -50t-71.5 -126
q0 -61 46.5 -105.5t147.5 -76.5z" />
    <glyph glyph-name="scedilla" unicode="&#x15f;" horiz-adv-x="1150" 
d="M572 691l179 -63q134 -46 194.5 -115t60.5 -175q0 -146 -111 -243.5t-295 -114.5l-79 -105q62 -7 108.5 -50t46.5 -117q0 -95 -78 -147t-206 -52q-87 0 -156 22l29 135q47 -15 102 -15q114 0 114 56q0 54 -115 54h-55l23 112l82 110q-168 23 -269.5 113t-106.5 222h281
q12 -57 68 -93t137 -36q85 0 136.5 32t51.5 85q0 36 -25.5 61t-87.5 45l-172 60q-132 45 -196 117.5t-64 180.5q0 161 126.5 259t330.5 98q200 0 322.5 -89.5t133.5 -238.5h-267q-10 52 -61.5 83.5t-127.5 31.5q-77 0 -126.5 -32t-49.5 -82q0 -36 29 -62t93 -47z" />
    <glyph glyph-name="Scaron" unicode="&#x160;" horiz-adv-x="1362" 
d="M65 412h292q16 -92 99 -148t201 -56q122 0 198 52t76 137q0 63 -49.5 105.5t-166.5 79.5l-150 47q-160 50 -247.5 152.5t-87.5 241.5q0 130 73.5 234.5t203.5 163.5t291 59q237 0 389.5 -124.5t159.5 -322.5h-285q-14 91 -89.5 146.5t-186.5 55.5q-106 0 -177.5 -50
t-71.5 -126q0 -61 46.5 -105.5t147.5 -76.5l148 -46q184 -58 270 -152t86 -240q0 -214 -165.5 -345t-434.5 -131q-248 0 -402.5 120t-167.5 329zM693 1590l-186 335h251l90 -195h18l175 195h267l-324 -335h-291z" />
    <glyph glyph-name="scaron" unicode="&#x161;" horiz-adv-x="1150" 
d="M169 770q0 161 126.5 259t330.5 98q200 0 322.5 -89.5t133.5 -238.5h-267q-10 52 -61.5 83.5t-127.5 31.5q-77 0 -126.5 -32t-49.5 -82q0 -36 29 -62t93 -47l179 -63q134 -46 194.5 -115t60.5 -175q0 -162 -133 -262t-348 -100q-212 0 -345.5 94.5t-139.5 247.5h281
q12 -57 68 -93t137 -36q85 0 136.5 32t51.5 85q0 36 -25.5 61t-87.5 45l-172 60q-132 45 -196 117.5t-64 180.5zM528 1251l-190 354h251l92 -209h18l179 209h261l-320 -354h-291z" />
    <glyph glyph-name="Tcedilla" unicode="&#x162;" horiz-adv-x="1349" 
d="M281 1443h1168l-53 -258h-432l-254 -1185h-1l-95 -125q62 -7 108.5 -50t46.5 -117q0 -95 -78 -147t-206 -52q-85 0 -156 22l29 135q48 -15 102 -15q114 0 114 56q0 54 -115 54h-55l24 112l95 127h-117l254 1185h-432z" />
    <glyph glyph-name="tcedilla" unicode="&#x163;" horiz-adv-x="846" 
d="M588 863l-104 -479q-8 -40 -8 -64q0 -98 122 -98q51 0 87 6l-45 -219q-54 -13 -158 -13h-8l-92 -121q62 -7 108.5 -50t46.5 -117q0 -95 -78 -147t-206 -52q-87 0 -156 22l29 135q47 -15 102 -15q114 0 114 56q0 54 -115 54h-55l23 112l115 154q-67 28 -104 80t-37 124
q0 43 11 95l116 537h-177l48 229h176l58 273h292l-58 -273h235l-49 -229h-233z" />
    <glyph glyph-name="Tcaron" unicode="&#x164;" horiz-adv-x="1349" 
d="M710 0h-304l254 1185h-432l53 258h1168l-53 -258h-432zM744 1590l-186 335h251l90 -195h18l175 195h267l-324 -335h-291z" />
    <glyph glyph-name="tcaron" unicode="&#x165;" horiz-adv-x="857" 
d="M482 -4q-142 0 -227.5 62.5t-85.5 172.5q0 43 11 95l116 537h-177l48 229h176l58 273h292l-58 -273h235l-49 -229h-233l-104 -479q-8 -40 -8 -64q0 -98 122 -98q51 0 87 6l-45 -219q-54 -13 -158 -13zM876 1757h240l-176 -527h-175z" />
    <glyph glyph-name="Tbar" unicode="&#x166;" horiz-adv-x="1349" 
d="M1396 1185h-432l-81 -380h284l-48 -228h-285l-124 -577h-304l124 577h-287l47 228h289l81 380h-432l53 258h1168z" />
    <glyph glyph-name="tbar" unicode="&#x167;" horiz-adv-x="846" 
d="M821 863h-233l-49 -225h206l-36 -161h-205l-20 -93q-8 -40 -8 -64q0 -98 122 -98q51 0 87 6l-45 -219q-54 -13 -158 -13q-142 0 -227.5 62.5t-85.5 172.5q0 43 11 95l33 151h-176l36 161h174l49 225h-177l48 229h176l58 273h292l-58 -273h235z" />
    <glyph glyph-name="Utilde" unicode="&#x168;" horiz-adv-x="1564" 
d="M734 -37q-260 0 -412 131t-154 339q0 64 13 126l187 884h305l-186 -877q-11 -50 -11 -102q3 -108 75.5 -169t200.5 -61q127 0 214 72.5t116 206.5l198 930h304l-211 -997q-48 -229 -215 -356t-424 -127zM626 1608q24 135 94 215t173 80q43 0 80.5 -15t62.5 -37t47 -44
t44.5 -37t43.5 -15q62 0 89 119h181q-23 -134 -92.5 -214.5t-173.5 -80.5q-43 0 -80.5 15t-62.5 37t-47 44t-44.5 37t-43.5 15q-62 0 -89 -119h-182z" />
    <glyph glyph-name="utilde" unicode="&#x169;" horiz-adv-x="1285" 
d="M1260 1103l-233 -1103h-283l36 167h-18q-108 -191 -328 -191q-151 0 -244 88t-93 234q0 58 15 141l139 664h293l-131 -616q-10 -47 -10 -86q0 -173 174 -173q98 0 164.5 62.5t89.5 168.5l137 644h292zM413 1282q24 135 93.5 215t172.5 80q52 0 97.5 -23t71 -50.5
t55 -50.5t54.5 -23q62 0 90 119h181q-24 -134 -93.5 -214.5t-172.5 -80.5q-43 0 -80.5 15t-62.5 37t-47 44t-44.5 37t-43.5 15q-63 0 -90 -120h-181z" />
    <glyph glyph-name="Umacron" unicode="&#x16a;" horiz-adv-x="1564" 
d="M734 -37q-260 0 -412 131t-154 339q0 64 13 126l187 884h305l-186 -877q-11 -50 -11 -102q3 -108 75.5 -169t200.5 -61q127 0 214 72.5t116 206.5l198 930h304l-211 -997q-48 -229 -215 -356t-424 -127zM1419 1844l-38 -181h-725l37 181h726z" />
    <glyph glyph-name="umacron" unicode="&#x16b;" horiz-adv-x="1285" 
d="M1260 1103l-233 -1103h-283l36 167h-18q-108 -191 -328 -191q-151 0 -244 88t-93 234q0 58 15 141l139 664h293l-131 -616q-10 -47 -10 -86q0 -173 174 -173q98 0 164.5 62.5t89.5 168.5l137 644h292zM1205 1519l-37 -181h-726l38 181h725z" />
    <glyph glyph-name="Ubreve" unicode="&#x16c;" horiz-adv-x="1564" 
d="M734 -37q-260 0 -412 131t-154 339q0 64 13 126l187 884h305l-186 -877q-11 -50 -11 -102q3 -108 75.5 -169t200.5 -61q127 0 214 72.5t116 206.5l198 930h304l-211 -997q-48 -229 -215 -356t-424 -127zM1031 1579q-182 0 -280.5 98.5t-86.5 238.5l202 -1
q-4 -75 42.5 -120.5t129.5 -45.5q164 0 201 166h204q-22 -153 -131 -244.5t-281 -91.5z" />
    <glyph glyph-name="ubreve" unicode="&#x16d;" horiz-adv-x="1285" 
d="M1260 1103l-233 -1103h-283l36 167h-18q-108 -191 -328 -191q-151 0 -244 88t-93 234q0 58 15 141l139 664h293l-131 -616q-10 -47 -10 -86q0 -173 174 -173q98 0 164.5 62.5t89.5 168.5l137 644h292zM829 1247q-72 0 -132.5 16.5t-101 44.5t-71.5 64t-44 75.5t-19 80
t4 76.5h202q-9 -79 34 -131t136 -52q84 0 137.5 47t67.5 136h202q-16 -162 -126 -259.5t-289 -97.5z" />
    <glyph glyph-name="Uring" unicode="&#x16e;" horiz-adv-x="1564" 
d="M734 -37q-260 0 -412 131t-154 339q0 64 13 126l187 884h305l-186 -877q-11 -50 -11 -102q3 -108 75.5 -169t200.5 -61q127 0 214 72.5t116 206.5l198 930h304l-211 -997q-48 -229 -215 -356t-424 -127zM1043 1535q-88 0 -151 60.5t-63 149.5t63 149.5t151 60.5
q89 0 152 -61t63 -149t-63 -149t-152 -61zM1043 1655q39 0 66 25.5t27 64.5t-27 64.5t-66 25.5t-65.5 -25.5t-26.5 -64.5t26.5 -64.5t65.5 -25.5z" />
    <glyph glyph-name="uring" unicode="&#x16f;" horiz-adv-x="1285" 
d="M1260 1103l-233 -1103h-283l36 167h-18q-108 -191 -328 -191q-151 0 -244 88t-93 234q0 58 15 141l139 664h293l-131 -616q-10 -47 -10 -86q0 -173 174 -173q98 0 164.5 62.5t89.5 168.5l137 644h292zM839 1245q-101 0 -173.5 68.5t-72.5 169.5q0 103 72.5 171.5
t173.5 68.5t173 -68.5t72 -171.5q0 -101 -72 -169.5t-173 -68.5zM839 1380q44 0 75.5 29.5t31.5 73.5q0 45 -31.5 75t-75.5 30q-45 0 -76 -30t-31 -75q0 -44 31 -73.5t76 -29.5z" />
    <glyph glyph-name="Uhungarumlaut" unicode="&#x170;" horiz-adv-x="1564" 
d="M734 -37q-260 0 -412 131t-154 339q0 64 13 126l187 884h305l-186 -877q-11 -50 -11 -102q3 -108 75.5 -169t200.5 -61q127 0 214 72.5t116 206.5l198 930h304l-211 -997q-48 -229 -215 -356t-424 -127zM896 1590h-203l145 318h249zM1277 1590h-209l199 318h266z" />
    <glyph glyph-name="uhungarumlaut" unicode="&#x171;" horiz-adv-x="1285" 
d="M1260 1103l-233 -1103h-283l36 167h-18q-108 -191 -328 -191q-151 0 -244 88t-93 234q0 58 15 141l139 664h293l-131 -616q-10 -47 -10 -86q0 -173 174 -173q98 0 164.5 62.5t89.5 168.5l137 644h292zM473 1251l162 354h255l-214 -354h-203zM848 1251l222 354h273
l-286 -354h-209z" />
    <glyph glyph-name="Uogonek" unicode="&#x172;" horiz-adv-x="1564" 
d="M1003 -453q-36 -13 -97 -13q-126 0 -203.5 59t-77.5 154q0 64 44.5 119.5t113.5 82.5l5 21q-26 -7 -54 -7q-261 0 -413.5 131.5t-152.5 339.5q0 63 13 125l187 884h305l-186 -877q-11 -53 -11 -96q0 -112 72.5 -174t203.5 -62q127 0 214 72.5t116 206.5l198 930h304
l-211 -997q-30 -142 -111 -248t-201 -168q-91 -45 -145.5 -105t-54.5 -120q0 -44 35 -69.5t95 -25.5q36 0 47 4z" />
    <glyph glyph-name="uogonek" unicode="&#x173;" horiz-adv-x="1285" 
d="M912 -453q-38 -13 -97 -13q-126 0 -204 59t-78 154q0 80 58 145.5t153 101.5l36 173h-18q-108 -191 -328 -191q-151 0 -244 88t-93 234q0 58 15 141l139 664h293l-131 -616q-10 -47 -10 -86q0 -173 174 -173q98 0 164.5 62.5t89.5 168.5l137 644h292l-234 -1108l-13 -1
q-103 -16 -173.5 -69t-70.5 -120q0 -44 35.5 -69.5t95.5 -25.5q35 0 47 4z" />
    <glyph glyph-name="Wcircumflex" unicode="&#x174;" horiz-adv-x="2067" 
d="M1108 955l-469 -955h-285l-76 1443h302l16 -1017h16l482 1017h245l59 -1017h16l445 1017h311l-685 -1443h-291l-70 955h-16zM1461 1925l186 -335h-250l-90 195h-18l-176 -195h-267l324 335h291z" />
    <glyph glyph-name="wcircumflex" unicode="&#x175;" horiz-adv-x="1735" 
d="M1791 1103l-527 -1103h-312l-35 758h-18l-355 -758h-306l-60 1103h284l5 -787h18l355 787h283l25 -791h18l334 791h291zM1229 1605l190 -354h-251l-92 209h-18l-178 -209h-262l320 354h291z" />
    <glyph glyph-name="Ycircumflex" unicode="&#x176;" horiz-adv-x="1451" 
d="M762 0h-304l114 531l-310 912h316l196 -607h18l447 607h330l-697 -924zM1151 1925l186 -335h-250l-90 195h-18l-176 -195h-267l324 335h291z" />
    <glyph glyph-name="ycircumflex" unicode="&#x177;" horiz-adv-x="1208" 
d="M89 -403q-19 0 -73.5 3t-61.5 4l48 233q20 -6 82 -6q151 0 211 122l22 44l-144 1106h297l64 -822h18l405 822h312l-630 -1143q-106 -200 -231.5 -281.5t-318.5 -81.5zM966 1605l190 -354h-251l-92 209h-18l-178 -209h-262l320 354h291z" />
    <glyph glyph-name="Ydieresis" unicode="&#x178;" horiz-adv-x="1451" 
d="M762 0h-304l114 531l-310 912h316l196 -607h18l447 607h330l-697 -924zM738 1601q-65 0 -110.5 45.5t-45.5 110.5q0 66 45.5 111.5t110.5 45.5t110.5 -45.5t45.5 -111.5q0 -65 -45.5 -110.5t-110.5 -45.5zM1219 1601q-64 0 -109.5 45.5t-45.5 110.5q0 66 45.5 111.5
t109.5 45.5q65 0 110.5 -45.5t45.5 -111.5q0 -65 -45.5 -110.5t-110.5 -45.5z" />
    <glyph glyph-name="Zacute" unicode="&#x179;" horiz-adv-x="1384" 
d="M19 0l42 204l915 963l2 18h-689l53 258h1076l-42 -203l-913 -964l-2 -18h724l-53 -258h-1113zM998 1591h-208l198 324h275z" />
    <glyph glyph-name="zacute" unicode="&#x17a;" horiz-adv-x="1160" 
d="M4 0l35 172l689 681l2 18h-532l49 232h898l-41 -192l-652 -661l-1 -18h519l-48 -232h-918zM827 1250h-208l212 354h278z" />
    <glyph glyph-name="Zdotaccent" unicode="&#x17b;" horiz-adv-x="1384" 
d="M19 0l42 204l915 963l2 18h-689l53 258h1076l-42 -203l-913 -964l-2 -18h724l-53 -258h-1113zM940 1594q-68 0 -116 48.5t-48 117.5q0 70 48 118.5t116 48.5t116.5 -48.5t48.5 -118.5t-48.5 -118t-116.5 -48z" />
    <glyph glyph-name="zdotaccent" unicode="&#x17c;" horiz-adv-x="1160" 
d="M4 0l35 172l689 681l2 18h-532l49 232h898l-41 -192l-652 -661l-1 -18h519l-48 -232h-918zM765 1268q-68 0 -116.5 49t-48.5 118t48.5 117.5t116.5 48.5t116 -48.5t48 -117.5q0 -70 -48 -118.5t-116 -48.5z" />
    <glyph glyph-name="Zcaron" unicode="&#x17d;" horiz-adv-x="1384" 
d="M19 0l42 204l915 963l2 18h-689l53 258h1076l-42 -203l-913 -964l-2 -18h724l-53 -258h-1113zM753 1590l-186 335h251l90 -195h18l175 195h267l-324 -335h-291z" />
    <glyph glyph-name="zcaron" unicode="&#x17e;" horiz-adv-x="1160" 
d="M4 0l35 172l689 681l2 18h-532l49 232h898l-41 -192l-652 -661l-1 -18h519l-48 -232h-918zM598 1251l-190 354h251l92 -209h18l179 209h261l-320 -354h-291z" />
    <glyph glyph-name="uni04D8" unicode="&#x4d8;" horiz-adv-x="1571" 
d="M754 -37q-277 0 -442 163t-165 437q0 121 23 229h1010q4 46 4 66q0 160 -84 257.5t-247 97.5q-117 0 -201.5 -50t-129.5 -138h-301q64 203 237 329t412 126q296 0 459.5 -172t163.5 -476q0 -246 -94.5 -444.5t-263.5 -311.5t-381 -113zM760 234q152 0 247 89t131 241
h-685q-3 -15 -3 -33q0 -140 82 -218.5t228 -78.5z" />
    <glyph glyph-name="uni04D8" unicode="&#x18f;" horiz-adv-x="1571" 
d="M754 -37q-277 0 -442 163t-165 437q0 121 23 229h1010q4 46 4 66q0 160 -84 257.5t-247 97.5q-117 0 -201.5 -50t-129.5 -138h-301q64 203 237 329t412 126q296 0 459.5 -172t163.5 -476q0 -246 -94.5 -444.5t-263.5 -311.5t-381 -113zM760 234q152 0 247 89t131 241
h-685q-3 -15 -3 -33q0 -140 82 -218.5t228 -78.5z" />
    <glyph glyph-name="florin" unicode="&#x192;" horiz-adv-x="1415" 
d="M1475 1393l-51 -229q-64 31 -160 31q-100 0 -164.5 -46.5t-101.5 -144.5l-60 -160h342l-34 -163h-370l-117 -311q-77 -208 -203.5 -296t-323.5 -88q-60 0 -125.5 13t-99.5 29l51 234q65 -37 164 -37q97 0 160 47.5t102 150.5l97 258h-315l34 163h342l79 209
q76 204 203.5 291.5t326.5 87.5q60 0 125.5 -12t98.5 -27z" />
    <glyph glyph-name="Ohorn" unicode="&#x1a0;" horiz-adv-x="1640" 
d="M1241 844q0 165 -89 265t-235 100q-129 0 -236.5 -80.5t-169.5 -221t-62 -309.5q0 -165 89.5 -265t236.5 -100q129 0 236 79.5t168.5 220t61.5 311.5zM1551 867q0 -197 -60.5 -366t-165 -287t-250 -184.5t-312.5 -66.5q-185 0 -328 80t-219.5 219.5t-76.5 313.5
q0 157 39 297.5t110.5 250.5t168.5 190.5t218 123t254 42.5q88 0 217 -22t217 -22q70 0 105 23t45 69l35 158h231l-46 -219q-22 -106 -93.5 -163.5t-176.5 -57.5q-30 0 -58 7l-8 -13q73 -59 113.5 -157.5t40.5 -215.5z" />
    <glyph glyph-name="ohorn" unicode="&#x1a1;" horiz-adv-x="1380" 
d="M1206 644q0 -189 -80.5 -342t-222.5 -239.5t-317 -86.5q-222 0 -357.5 132.5t-135.5 349.5q0 190 80.5 343t223 239.5t319.5 86.5q53 0 159.5 -16t160.5 -16q72 0 102 20.5t42 73.5l38 164h231l-51 -245q-42 -192 -235 -192q-23 0 -45 11l-8 -13q45 -45 70.5 -118.5
t25.5 -151.5zM396 467q0 -116 56 -184t151 -68q122 0 210 122t88 291q0 123 -53 192t-148 69q-130 0 -217 -121t-87 -301z" />
    <glyph glyph-name="Uhorn" unicode="&#x1af;" horiz-adv-x="1755" 
d="M734 -37q-261 0 -413.5 131t-152.5 339q0 64 13 126l187 884h305l-186 -877q-11 -50 -11 -102q0 -107 74 -168.5t202 -61.5q127 0 214 72.5t116 206.5l198 930h298q91 0 108 79l37 164h231l-47 -225q-22 -104 -91.5 -159.5t-172.5 -55.5h-100l-170 -800
q-48 -229 -215 -356t-424 -127z" />
    <glyph glyph-name="uhorn" unicode="&#x1b0;" horiz-adv-x="1508" 
d="M762 167q-108 -191 -328 -191q-151 0 -244 88t-93 234q0 58 15 141l139 664h293l-131 -616q-10 -47 -10 -86q0 -173 174 -173q98 0 164.5 62.5t89.5 168.5l138 644h276q91 0 108 76l39 174h232l-50 -234q-22 -104 -91.5 -160t-172.5 -56h-91l-192 -903h-283l36 167h-18z
" />
    <glyph glyph-name="uni01C4" unicode="&#x1c4;" horiz-adv-x="2919" 
d="M365 1443h511q276 0 433.5 -155.5t157.5 -431.5q0 -245 -96.5 -440.5t-268.5 -305.5t-388 -110h-655zM618 1187l-201 -930h270q205 0 337 157t132 408q0 170 -92 267.5t-255 97.5h-191zM1554 0l42 204l915 963l2 18h-689l53 258h1076l-42 -203l-913 -964l-2 -18h724
l-53 -258h-1113zM2288 1590l-186 335h251l90 -195h18l175 195h267l-324 -335h-291z" />
    <glyph glyph-name="uni01C5" unicode="&#x1c5;" horiz-adv-x="2695" 
d="M365 1443h511q276 0 433.5 -155.5t157.5 -431.5q0 -245 -96.5 -440.5t-268.5 -305.5t-388 -110h-655zM618 1187l-201 -930h270q205 0 337 157t132 408q0 170 -92 267.5t-255 97.5h-191zM1539 0l35 172l689 681l2 18h-532l49 232h898l-41 -192l-652 -661l-1 -18h519
l-48 -232h-918zM2133 1251l-190 354h251l92 -209h18l179 209h261l-320 -354h-291z" />
    <glyph glyph-name="uni01C6" unicode="&#x1c6;" horiz-adv-x="2502" 
d="M469 -17q-168 0 -275 116t-107 314q0 201 74 364t202 253.5t283 90.5q119 0 202.5 -57.5t110.5 -148.5h18l130 609h292l-323 -1524h-283l32 153h-18q-59 -80 -145 -125t-193 -45zM599 223q131 0 223 122.5t92 293.5q0 111 -58.5 173t-153.5 62q-132 0 -222.5 -117.5
t-90.5 -293.5q0 -110 59.5 -175t150.5 -65zM1346 0l35 172l689 681l2 18h-532l49 232h898l-41 -192l-652 -661l-1 -18h519l-48 -232h-918zM1940 1251l-190 354h251l92 -209h18l179 209h261l-320 -354h-291z" />
    <glyph glyph-name="uni01C7" unicode="&#x1c7;" horiz-adv-x="2447" 
d="M1056 263l-54 -263h-944l307 1443h303l-253 -1180h641zM1262 382q0 21 1 31h293v-9q1 -77 49.5 -122t130.5 -45q167 0 212 209l213 997h302l-222 -1042q-44 -213 -176.5 -325.5t-341.5 -112.5q-210 0 -338 116.5t-123 302.5z" />
    <glyph glyph-name="uni01C8" unicode="&#x1c8;" horiz-adv-x="1818" 
d="M1056 263l-54 -263h-944l307 1443h303l-253 -1180h641zM1782 1103l-247 -1159q-66 -320 -404 -320q-80 0 -138 13l49 225q30 -6 64 -6q62 0 96.5 28t48.5 92l240 1127h291zM1705 1268q-68 0 -116.5 49t-48.5 118t48.5 117.5t116.5 48.5t116 -48.5t48 -117.5
q0 -70 -48 -118.5t-116 -48.5z" />
    <glyph glyph-name="uni01C9" unicode="&#x1c9;" horiz-adv-x="1192" 
d="M33 0l324 1524h293l-324 -1524h-293zM1156 1103l-247 -1159q-66 -320 -404 -320q-80 0 -138 13l49 225q30 -6 64 -6q62 0 96.5 28t48.5 92l240 1127h291zM1079 1268q-68 0 -116.5 49t-48.5 118t48.5 117.5t116.5 48.5t116 -48.5t48 -117.5q0 -70 -48 -118.5t-116 -48.5z
" />
    <glyph glyph-name="uni01CA" unicode="&#x1ca;" horiz-adv-x="2801" 
d="M351 0h-293l307 1443h231l479 -929h18l202 929h293l-307 -1443h-229l-483 922h-18zM1616 382q0 21 1 31h293v-9q1 -77 49.5 -122t130.5 -45q167 0 212 209l213 997h302l-222 -1042q-44 -213 -176.5 -325.5t-341.5 -112.5q-210 0 -338 116.5t-123 302.5z" />
    <glyph glyph-name="uni01CB" unicode="&#x1cb;" horiz-adv-x="2172" 
d="M351 0h-293l307 1443h231l479 -929h18l202 929h293l-307 -1443h-229l-483 922h-18zM2136 1103l-247 -1159q-66 -320 -404 -320q-80 0 -138 13l49 225q30 -6 64 -6q62 0 96.5 28t48.5 92l240 1127h291zM2059 1268q-68 0 -116.5 49t-48.5 118t48.5 117.5t116.5 48.5
t116 -48.5t48 -117.5q0 -70 -48 -118.5t-116 -48.5z" />
    <glyph glyph-name="uni01CC" unicode="&#x1cc;" horiz-adv-x="1884" 
d="M25 0l235 1103h283l-38 -175h18q121 193 339 193q150 0 239.5 -91.5t89.5 -231.5q0 -60 -15 -131l-141 -667h-291l132 619q10 46 10 84q0 77 -47.5 125t-131.5 48q-95 0 -162 -62.5t-89 -163.5l-139 -650h-292zM1848 1103l-247 -1159q-66 -320 -404 -320q-80 0 -138 13
l49 225q30 -6 64 -6q62 0 96.5 28t48.5 92l240 1127h291zM1771 1268q-68 0 -116.5 49t-48.5 118t48.5 117.5t116.5 48.5t116 -48.5t48 -117.5q0 -70 -48 -118.5t-116 -48.5z" />
    <glyph glyph-name="Acaron" unicode="&#x1cd;" horiz-adv-x="1501" 
d="M874 1142l-304 -565h381l-58 565h-19zM1000 0l-35 344h-509l-186 -344h-315l820 1443h349l187 -1443h-311zM828 1590l-186 335h251l90 -195h18l175 195h267l-324 -335h-291z" />
    <glyph glyph-name="acaron" unicode="&#x1ce;" horiz-adv-x="1202" 
d="M492 202q93 0 165 52t90 132l21 95l-228 -8q-100 -4 -156.5 -43t-56.5 -104q0 -55 46 -89.5t119 -34.5zM369 -17q-140 0 -234 86t-94 215q0 168 129.5 266.5t361.5 105.5l274 9l15 68q5 25 5 40q0 57 -49 90.5t-133 33.5q-147 0 -192 -98h-275q35 151 167.5 239.5
t320.5 88.5q202 0 325 -89.5t123 -235.5q0 -50 -9 -89l-151 -713h-283l29 136h-18q-47 -71 -131 -112t-181 -41zM579 1251l-190 354h251l92 -209h18l179 209h261l-320 -354h-291z" />
    <glyph glyph-name="Icaron" unicode="&#x1cf;" horiz-adv-x="653" 
d="M362 0h-304l307 1443h304zM395 1590l-186 335h251l90 -195h18l175 195h267l-324 -335h-291z" />
    <glyph glyph-name="icaron" unicode="&#x1d0;" horiz-adv-x="599" 
d="M37 0l234 1103h291l-234 -1103h-291zM319 1251l-190 354h251l92 -209h18l179 209h261l-320 -354h-291z" />
    <glyph glyph-name="Ocaron" unicode="&#x1d1;" horiz-adv-x="1618" 
d="M917 1209q-129 0 -236.5 -80.5t-169.5 -221t-62 -309.5q0 -165 89.5 -265t236.5 -100q129 0 236 79.5t168.5 220t61.5 311.5q0 165 -89 265t-235 100zM763 -37q-185 0 -328 80t-219.5 219.5t-76.5 313.5q0 157 39 297.5t110.5 250.5t168.5 190.5t218 123t254 42.5
q282 0 452 -173t170 -440q0 -197 -60.5 -366t-165 -287t-250 -184.5t-312.5 -66.5zM809 1589l-186 335h251l90 -195h18l175 195h267l-324 -335h-291z" />
    <glyph glyph-name="ocaron" unicode="&#x1d2;" horiz-adv-x="1299" 
d="M603 215q122 0 210 122t88 291q0 123 -53 192t-148 69q-130 0 -217 -121t-87 -301q0 -116 56 -184t151 -68zM716 1127q221 0 355.5 -132t134.5 -351q0 -189 -80.5 -342t-222.5 -239.5t-317 -86.5q-222 0 -357.5 132.5t-135.5 349.5q0 190 80.5 343t223 239.5t319.5 86.5z
M615 1251l-190 354h251l92 -209h18l179 209h261l-320 -354h-291z" />
    <glyph glyph-name="Ucaron" unicode="&#x1d3;" horiz-adv-x="1564" 
d="M734 -37q-260 0 -412 131t-154 339q0 64 13 126l187 884h305l-186 -877q-11 -50 -11 -102q3 -108 75.5 -169t200.5 -61q127 0 214 72.5t116 206.5l198 930h304l-211 -997q-48 -229 -215 -356t-424 -127zM852 1590l-186 335h251l90 -195h18l175 195h267l-324 -335h-291z
" />
    <glyph glyph-name="ucaron" unicode="&#x1d4;" horiz-adv-x="1285" 
d="M1260 1103l-233 -1103h-283l36 167h-18q-108 -191 -328 -191q-151 0 -244 88t-93 234q0 58 15 141l139 664h293l-131 -616q-10 -47 -10 -86q0 -173 174 -173q98 0 164.5 62.5t89.5 168.5l137 644h292zM659 1251l-190 354h251l92 -209h18l179 209h261l-320 -354h-291z" />
    <glyph glyph-name="Udieresismacron" unicode="&#x1d5;" horiz-adv-x="1564" 
d="M734 -37q-260 0 -412 131t-154 339q0 64 13 126l187 884h305l-186 -877q-11 -50 -11 -102q3 -108 75.5 -169t200.5 -61q127 0 214 72.5t116 206.5l198 930h304l-211 -997q-48 -229 -215 -356t-424 -127zM801 1879q67 0 110 -42.5t43 -107.5t-43 -107.5t-110 -42.5
t-110.5 42.5t-43.5 107.5t43.5 107.5t110.5 42.5zM1498 2164l-36 -168h-745l35 168h746zM1269 1879q67 0 110.5 -42.5t43.5 -107.5t-43.5 -107.5t-110.5 -42.5q-66 0 -109.5 42.5t-43.5 107.5t43.5 107.5t109.5 42.5z" />
    <glyph glyph-name="udieresismacron" unicode="&#x1d6;" horiz-adv-x="1285" 
d="M1260 1103l-233 -1103h-283l36 167h-18q-108 -191 -328 -191q-151 0 -244 88t-93 234q0 58 15 141l139 664h293l-131 -616q-10 -47 -10 -86q0 -173 174 -173q98 0 164.5 62.5t89.5 168.5l137 644h292zM596 1251q-63 0 -104.5 42t-41.5 103q0 62 41.5 103.5t104.5 41.5
q64 0 105 -41.5t41 -103.5t-41 -103.5t-105 -41.5zM1039 1251q-64 0 -105 41.5t-41 103.5t41 103.5t105 41.5q63 0 104.5 -41.5t41.5 -103.5q0 -61 -41.5 -103t-104.5 -42zM1282 1881l-37 -181h-726l38 181h725z" />
    <glyph glyph-name="Udieresisacute" unicode="&#x1d7;" horiz-adv-x="1564" 
d="M734 -37q-260 0 -412 131t-154 339q0 64 13 126l187 884h305l-186 -877q-11 -50 -11 -102q3 -108 75.5 -169t200.5 -61q127 0 214 72.5t116 206.5l198 930h304l-211 -997q-48 -229 -215 -356t-424 -127zM918 1937l257 242h299l-306 -242h-250zM801 1579q-68 0 -112 43
t-44 109t44 109t112 43q67 0 111 -43t44 -109t-44 -109t-111 -43zM1269 1579q-67 0 -111 43t-44 109t44 109t111 43t111 -43t44 -109t-44 -109t-111 -43z" />
    <glyph glyph-name="udieresisacute" unicode="&#x1d8;" horiz-adv-x="1285" 
d="M1260 1103l-233 -1103h-283l36 167h-18q-108 -191 -328 -191q-151 0 -244 88t-93 234q0 58 15 141l139 664h293l-131 -616q-10 -47 -10 -86q0 -173 174 -173q98 0 164.5 62.5t89.5 168.5l137 644h292zM706 1657l263 302h280l-298 -302h-245zM585 1283q-64 0 -109.5 45
t-45.5 111t45.5 111.5t109.5 45.5q65 0 110.5 -45.5t45.5 -111.5t-45.5 -111t-110.5 -45zM1067 1283q-65 0 -110.5 45t-45.5 111t45.5 111.5t110.5 45.5t110 -45.5t45 -111.5t-45 -111t-110 -45z" />
    <glyph glyph-name="Udieresiscaron" unicode="&#x1d9;" horiz-adv-x="1564" 
d="M734 -37q-260 0 -412 131t-154 339q0 64 13 126l187 884h305l-186 -877q-11 -50 -11 -102q3 -108 75.5 -169t200.5 -61q127 0 214 72.5t116 206.5l198 930h304l-211 -997q-48 -229 -215 -356t-424 -127zM937 1910l-217 300h263l107 -168h18l176 168h288l-344 -300h-291z
M796 1853q66 0 108.5 -41t42.5 -103q0 -63 -42.5 -104t-108.5 -41t-109 41t-43 104q0 62 43 103t109 41zM1264 1853q66 0 108.5 -41t42.5 -103q0 -63 -42.5 -104t-108.5 -41t-109 41t-43 104q0 62 43 103t109 41z" />
    <glyph glyph-name="udieresiscaron" unicode="&#x1da;" horiz-adv-x="1285" 
d="M1260 1103l-233 -1103h-283l36 167h-18q-108 -191 -328 -191q-151 0 -244 88t-93 234q0 58 15 141l139 664h293l-131 -616q-10 -47 -10 -86q0 -173 174 -173q98 0 164.5 62.5t89.5 168.5l137 644h292zM597 1251q-63 0 -104.5 42t-41.5 103q0 62 41.5 103.5t104.5 41.5
q64 0 105 -41.5t41 -103.5t-41 -103.5t-105 -41.5zM1040 1251q-64 0 -105 41.5t-41 103.5t41 103.5t105 41.5q63 0 104.5 -41.5t41.5 -103.5q0 -61 -41.5 -103t-104.5 -42zM707 1622l-194 345h249l98 -200h18l183 200h277l-340 -345h-291z" />
    <glyph glyph-name="Udieresisgrave" unicode="&#x1db;" horiz-adv-x="1564" 
d="M734 -37q-260 0 -412 131t-154 339q0 64 13 126l187 884h305l-186 -877q-11 -50 -11 -102q3 -108 75.5 -169t200.5 -61q127 0 214 72.5t116 206.5l198 930h304l-211 -997q-48 -229 -215 -356t-424 -127zM1176 1937h-247l-179 242h290zM801 1579q-68 0 -112 43t-44 109
t44 109t112 43q67 0 111 -43t44 -109t-44 -109t-111 -43zM1269 1579q-67 0 -111 43t-44 109t44 109t111 43t111 -43t44 -109t-44 -109t-111 -43z" />
    <glyph glyph-name="udieresisgrave" unicode="&#x1dc;" horiz-adv-x="1285" 
d="M1260 1103l-233 -1103h-283l36 167h-18q-108 -191 -328 -191q-151 0 -244 88t-93 234q0 58 15 141l139 664h293l-131 -616q-10 -47 -10 -86q0 -173 174 -173q98 0 164.5 62.5t89.5 168.5l137 644h292zM966 1657h-240l-176 302h281zM585 1283q-64 0 -109.5 45t-45.5 111
t45.5 111.5t109.5 45.5q65 0 110.5 -45.5t45.5 -111.5t-45.5 -111t-110.5 -45zM1067 1283q-65 0 -110.5 45t-45.5 111t45.5 111.5t110.5 45.5t110 -45.5t45 -111.5t-45 -111t-110 -45z" />
    <glyph glyph-name="uni04D9" unicode="&#x4d9;" horiz-adv-x="1264" 
d="M432 784h-275q47 158 180 250.5t325 92.5q234 0 367 -131t133 -365q0 -142 -43.5 -263.5t-121 -207.5t-188.5 -135t-240 -49q-219 0 -345 125t-126 341q0 80 19 181h770q1 11 1.5 19.5t0.5 12.5q0 112 -65 178t-180 66q-77 0 -133.5 -32t-78.5 -83zM576 200q108 0 183 66
t97 173h-484q-4 -12 -4 -33q0 -92 57.5 -149t150.5 -57z" />
    <glyph glyph-name="uni04D9" unicode="&#x259;" horiz-adv-x="1264" 
d="M432 784h-275q47 158 180 250.5t325 92.5q234 0 367 -131t133 -365q0 -142 -43.5 -263.5t-121 -207.5t-188.5 -135t-240 -49q-219 0 -345 125t-126 341q0 80 19 181h770q1 11 1.5 19.5t0.5 12.5q0 112 -65 178t-180 66q-77 0 -133.5 -32t-78.5 -83zM576 200q108 0 183 66
t97 173h-484q-4 -12 -4 -33q0 -92 57.5 -149t150.5 -57z" />
    <glyph glyph-name="uni04D9" unicode="&#x1dd;" horiz-adv-x="1264" 
d="M432 784h-275q47 158 180 250.5t325 92.5q234 0 367 -131t133 -365q0 -142 -43.5 -263.5t-121 -207.5t-188.5 -135t-240 -49q-219 0 -345 125t-126 341q0 80 19 181h770q1 11 1.5 19.5t0.5 12.5q0 112 -65 178t-180 66q-77 0 -133.5 -32t-78.5 -83zM576 200q108 0 183 66
t97 173h-484q-4 -12 -4 -33q0 -92 57.5 -149t150.5 -57z" />
    <glyph glyph-name="Adieresismacron" unicode="&#x1de;" horiz-adv-x="1501" 
d="M874 1142l-304 -565h381l-58 565h-19zM1000 0l-35 344h-509l-186 -344h-315l820 1443h349l187 -1443h-311zM777 1879q67 0 110 -42.5t43 -107.5t-43 -107.5t-110 -42.5t-110.5 42.5t-43.5 107.5t43.5 107.5t110.5 42.5zM1474 2164l-36 -168h-745l35 168h746zM1245 1879
q67 0 110.5 -42.5t43.5 -107.5t-43.5 -107.5t-110.5 -42.5q-66 0 -109.5 42.5t-43.5 107.5t43.5 107.5t109.5 42.5z" />
    <glyph glyph-name="adieresismacron" unicode="&#x1df;" horiz-adv-x="1202" 
d="M492 202q93 0 165 52t90 132l21 95l-228 -8q-100 -4 -156.5 -43t-56.5 -104q0 -55 46 -89.5t119 -34.5zM369 -17q-140 0 -234 86t-94 215q0 168 129.5 266.5t361.5 105.5l274 9l15 68q5 25 5 40q0 57 -49 90.5t-133 33.5q-147 0 -192 -98h-275q35 151 167.5 239.5
t320.5 88.5q202 0 325 -89.5t123 -235.5q0 -50 -9 -89l-151 -713h-283l29 136h-18q-47 -71 -131 -112t-181 -41zM516 1251q-63 0 -104.5 42t-41.5 103q0 62 41.5 103.5t104.5 41.5q64 0 105 -41.5t41 -103.5t-41 -103.5t-105 -41.5zM959 1251q-64 0 -105 41.5t-41 103.5
t41 103.5t105 41.5q63 0 104.5 -41.5t41.5 -103.5q0 -61 -41.5 -103t-104.5 -42zM1202 1881l-37 -181h-726l38 181h725z" />
    <glyph glyph-name="Adotmacron" unicode="&#x1e0;" horiz-adv-x="1501" 
d="M874 1142l-304 -565h381l-58 565h-19zM1000 0l-35 344h-509l-186 -344h-315l820 1443h349l187 -1443h-311zM1010 1575q-68 0 -112 42.5t-44 107.5q0 64 44 106t112 42t112 -42t44 -106q0 -65 -44 -107.5t-112 -42.5zM1474 2164l-35 -168h-746l35 168h746z" />
    <glyph glyph-name="adotmacron" unicode="&#x1e1;" horiz-adv-x="1202" 
d="M492 202q93 0 165 52t90 132l21 95l-228 -8q-100 -4 -156.5 -43t-56.5 -104q0 -55 46 -89.5t119 -34.5zM369 -17q-140 0 -234 86t-94 215q0 168 129.5 266.5t361.5 105.5l274 9l15 68q5 25 5 40q0 57 -49 90.5t-133 33.5q-147 0 -192 -98h-275q35 151 167.5 239.5
t320.5 88.5q202 0 325 -89.5t123 -235.5q0 -50 -9 -89l-151 -713h-283l29 136h-18q-47 -71 -131 -112t-181 -41zM739 1251q-66 0 -108.5 42.5t-42.5 106.5q0 65 42.5 108t108.5 43t108 -43t42 -108q0 -64 -42.5 -106.5t-107.5 -42.5zM1202 1881l-37 -181h-726l38 181h725z
" />
    <glyph glyph-name="AEmacron" unicode="&#x1e2;" horiz-adv-x="2059" 
d="M1138 1202h-130l-379 -604h379zM880 0l80 364h-465l-234 -364h-307l903 1443h1259l-54 -258h-650l-75 -341h614l-50 -239h-613l-77 -347h650l-52 -258h-929zM1839 1844l-38 -181h-725l37 181h726z" />
    <glyph glyph-name="aemacron" unicode="&#x1e3;" horiz-adv-x="1925" 
d="M1255 -24q-123 0 -233 56.5t-154 145.5h-18q-58 -87 -170.5 -144.5t-244.5 -57.5q-171 0 -281.5 89.5t-110.5 222.5q0 174 127.5 270.5t363.5 104.5l274 9l15 61q5 28 5 40q0 57 -49 90.5t-134 33.5q-147 0 -191 -98h-275q35 154 164.5 241t317.5 87q115 0 205 -42
t132 -114h18q68 75 160.5 115.5t199.5 40.5q193 0 323.5 -128t131.5 -334q0 -86 -18 -180h-768q-1 -8 -1 -32q0 -121 66 -185.5t166 -64.5q161 0 216 114h281q-39 -154 -178 -247.5t-340 -93.5zM1076 669h479q3 9 3 38q0 85 -54.5 140.5t-148.5 55.5q-100 0 -175 -64
t-104 -170zM494 195q92 0 164.5 55t90.5 136l21 95l-228 -8q-100 -4 -157 -43t-57 -105q0 -56 46.5 -93t119.5 -37zM1410 1519l-37 -181h-726l38 181h725z" />
    <glyph glyph-name="Gcaron" unicode="&#x1e6;" horiz-adv-x="1566" 
d="M1492 760l-37 -184q-58 -299 -240 -456t-467 -157q-275 0 -441.5 167.5t-166.5 443.5q0 263 101 469.5t281 321.5t408 115q158 0 290 -62t210.5 -169.5t82.5 -238.5v-33h-294q-6 104 -92 169t-216 65q-198 0 -330 -175t-132 -441q0 -168 88 -265.5t239 -97.5
q141 0 242 75.5t127 201.5l5 25h-307l47 226h602zM796 1591l-186 335h251l90 -195h18l175 195h267l-324 -335h-291z" />
    <glyph glyph-name="gcaron" unicode="&#x1e7;" horiz-adv-x="1327" 
d="M488 -417q-221 0 -359.5 94.5t-137.5 239.5h290q5 -55 65.5 -89t160.5 -34q112 0 178 49t86 139l44 194l-18 1q-109 -155 -325 -155q-166 0 -273.5 115.5t-107.5 300.5q0 190 72 347t197.5 246.5t276.5 89.5q114 0 203 -58t120 -152h17l42 192h284l-246 -1147
q-37 -175 -186.5 -274t-382.5 -99zM599 237q129 0 218.5 116t89.5 286q0 107 -58 171t-156 64q-130 0 -216.5 -112.5t-86.5 -285.5q0 -110 56.5 -174.5t152.5 -64.5zM604 1252l-190 354h251l92 -209h18l179 209h261l-320 -354h-291z" />
    <glyph glyph-name="Kcaron" unicode="&#x1e8;" horiz-adv-x="1454" 
d="M360 0h-302l307 1443h302l-137 -635h18l660 635h357l-670 -653l383 -790h-341l-292 606l-192 -182zM785 1590l-186 335h251l90 -195h18l175 195h267l-324 -335h-291z" />
    <glyph glyph-name="kcaron" unicode="&#x1e9;" horiz-adv-x="1210" 
d="M325 0h-292l324 1524h291l-177 -834h18l448 413h340l-529 -482l328 -621h-321l-242 457l-110 -94zM381 1671l-186 335h251l90 -195h18l175 195h267l-324 -335h-291z" />
    <glyph glyph-name="Oogonek" unicode="&#x1ea;" horiz-adv-x="1618" 
d="M1030 -453q-38 -13 -97 -13q-126 0 -204 59t-78 154q0 63 44 119t114 83l4 20q-22 -6 -50 -6q-185 0 -328 80t-219.5 219.5t-76.5 313.5q0 157 39 297.5t110.5 250.5t168.5 190.5t218 123t254 42.5q282 0 452 -173t170 -440q0 -275 -123.5 -497.5t-332.5 -337.5
q-105 -58 -156.5 -112t-51.5 -115q0 -44 35.5 -69.5t95.5 -25.5q35 0 47 4zM1241 844q0 165 -89 265t-235 100q-129 0 -236.5 -80.5t-169.5 -221t-62 -309.5q0 -165 89.5 -265t236.5 -100q129 0 236 79.5t168.5 220t61.5 311.5z" />
    <glyph glyph-name="oogonek" unicode="&#x1eb;" horiz-adv-x="1299" 
d="M832 -453q-41 -13 -97 -13q-125 0 -203.5 59t-78.5 154q0 64 46 125t115 87l4 20q-18 -3 -32 -3q-222 0 -357.5 132.5t-135.5 349.5q0 190 80.5 343t223 239.5t319.5 86.5q221 0 355.5 -132t134.5 -351q0 -189 -80.5 -339t-221.5 -241q-215 -139 -215 -259
q0 -44 35.5 -69.5t95.5 -25.5q35 0 47 4zM396 467q0 -116 56 -184t151 -68q122 0 210 122t88 291q0 123 -53 192t-148 69q-130 0 -217 -121t-87 -301z" />
    <glyph glyph-name="Oogonekmacron" unicode="&#x1ec;" horiz-adv-x="1618" 
d="M1030 -453q-38 -13 -97 -13q-126 0 -204 59t-78 154q0 63 44 119t114 83l4 20q-22 -6 -50 -6q-185 0 -328 80t-219.5 219.5t-76.5 313.5q0 157 39 297.5t110.5 250.5t168.5 190.5t218 123t254 42.5q282 0 452 -173t170 -440q0 -275 -123.5 -497.5t-332.5 -337.5
q-105 -58 -156.5 -112t-51.5 -115q0 -44 35.5 -69.5t95.5 -25.5q35 0 47 4zM1241 844q0 165 -89 265t-235 100q-129 0 -236.5 -80.5t-169.5 -221t-62 -309.5q0 -165 89.5 -265t236.5 -100q129 0 236 79.5t168.5 220t61.5 311.5zM1376 1844l-38 -181h-725l37 181h726z" />
    <glyph glyph-name="oogonekmacron" unicode="&#x1ed;" horiz-adv-x="1299" 
d="M832 -453q-41 -13 -97 -13q-125 0 -203.5 59t-78.5 154q0 64 46 125t115 87l4 20q-18 -3 -32 -3q-222 0 -357.5 132.5t-135.5 349.5q0 190 80.5 343t223 239.5t319.5 86.5q221 0 355.5 -132t134.5 -351q0 -189 -80.5 -339t-221.5 -241q-215 -139 -215 -259
q0 -44 35.5 -69.5t95.5 -25.5q35 0 47 4zM396 467q0 -116 56 -184t151 -68q122 0 210 122t88 291q0 123 -53 192t-148 69q-130 0 -217 -121t-87 -301zM1161 1519l-37 -181h-726l38 181h725z" />
    <glyph glyph-name="uni01F1" unicode="&#x1f1;" horiz-adv-x="2919" 
d="M365 1443h511q276 0 433.5 -155.5t157.5 -431.5q0 -245 -96.5 -440.5t-268.5 -305.5t-388 -110h-655zM618 1187l-201 -930h270q205 0 337 157t132 408q0 170 -92 267.5t-255 97.5h-191zM1554 0l42 204l915 963l2 18h-689l53 258h1076l-42 -203l-913 -964l-2 -18h724
l-53 -258h-1113z" />
    <glyph glyph-name="uni01F2" unicode="&#x1f2;" horiz-adv-x="2695" 
d="M365 1443h511q276 0 433.5 -155.5t157.5 -431.5q0 -245 -96.5 -440.5t-268.5 -305.5t-388 -110h-655zM618 1187l-201 -930h270q205 0 337 157t132 408q0 170 -92 267.5t-255 97.5h-191zM1539 0l35 172l689 681l2 18h-532l49 232h898l-41 -192l-652 -661l-1 -18h519
l-48 -232h-918z" />
    <glyph glyph-name="uni01F3" unicode="&#x1f3;" horiz-adv-x="2502" 
d="M469 -17q-168 0 -275 116t-107 314q0 201 74 364t202 253.5t283 90.5q119 0 202.5 -57.5t110.5 -148.5h18l130 609h292l-323 -1524h-283l32 153h-18q-59 -80 -145 -125t-193 -45zM599 223q131 0 223 122.5t92 293.5q0 111 -58.5 173t-153.5 62q-132 0 -222.5 -117.5
t-90.5 -293.5q0 -110 59.5 -175t150.5 -65zM1346 0l35 172l689 681l2 18h-532l49 232h898l-41 -192l-652 -661l-1 -18h519l-48 -232h-918z" />
    <glyph glyph-name="Gacute" unicode="&#x1f4;" horiz-adv-x="1566" 
d="M1492 760l-37 -184q-58 -299 -240 -456t-467 -157q-275 0 -441.5 167.5t-166.5 443.5q0 263 101 469.5t281 321.5t408 115q158 0 290 -62t210.5 -169.5t82.5 -238.5v-33h-294q-6 104 -92 169t-216 65q-198 0 -330 -175t-132 -441q0 -168 88 -265.5t239 -97.5
q141 0 242 75.5t127 201.5l5 25h-307l47 226h602zM1041 1592h-208l198 324h275z" />
    <glyph glyph-name="gacute" unicode="&#x1f5;" horiz-adv-x="1327" 
d="M488 -417q-221 0 -359.5 94.5t-137.5 239.5h290q5 -55 65.5 -89t160.5 -34q112 0 178 49t86 139l44 194l-18 1q-109 -155 -325 -155q-166 0 -273.5 115.5t-107.5 300.5q0 190 72 347t197.5 246.5t276.5 89.5q114 0 203 -58t120 -152h17l42 192h284l-246 -1147
q-37 -175 -186.5 -274t-382.5 -99zM599 237q129 0 218.5 116t89.5 286q0 107 -58 171t-156 64q-130 0 -216.5 -112.5t-86.5 -285.5q0 -110 56.5 -174.5t152.5 -64.5zM833 1251h-208l212 354h278z" />
    <glyph glyph-name="Ngrave" unicode="&#x1f8;" horiz-adv-x="1573" 
d="M351 0h-293l307 1443h231l479 -929h18l202 929h293l-307 -1443h-229l-483 922h-18zM899 1591l-128 324h274l62 -324h-208z" />
    <glyph glyph-name="ngrave" unicode="&#x1f9;" horiz-adv-x="1285" 
d="M25 0l235 1103h283l-38 -175h18q121 193 339 193q150 0 239.5 -91.5t89.5 -231.5q0 -60 -15 -131l-141 -667h-291l132 619q10 46 10 84q0 77 -47.5 125t-131.5 48q-95 0 -162 -62.5t-89 -163.5l-139 -650h-292zM706 1256l-134 354h279l63 -354h-208z" />
    <glyph glyph-name="Aringacute" unicode="&#x1fa;" horiz-adv-x="1501" 
d="M874 1142l-304 -565h381l-58 565h-19zM1000 0l-35 344h-509l-186 -344h-315l820 1443h349l187 -1443h-311zM1014 1531q-93 0 -154.5 60t-61.5 151q0 90 61.5 149t154.5 59q92 0 153.5 -59t61.5 -149q0 -91 -61.5 -151t-153.5 -60zM1013 1655q37 0 61.5 24.5t24.5 60.5
q0 37 -24.5 61t-61.5 24t-61.5 -24.5t-24.5 -60.5t24.5 -60.5t61.5 -24.5zM1087 2214h264l-191 -191h-237z" />
    <glyph glyph-name="aringacute" unicode="&#x1fb;" horiz-adv-x="1202" 
d="M492 202q93 0 165 52t90 132l21 95l-228 -8q-100 -4 -156.5 -43t-56.5 -104q0 -55 46 -89.5t119 -34.5zM369 -17q-140 0 -234 86t-94 215q0 168 129.5 266.5t361.5 105.5l274 9l15 68q5 25 5 40q0 57 -49 90.5t-133 33.5q-147 0 -192 -98h-275q35 151 167.5 239.5
t320.5 88.5q202 0 325 -89.5t123 -235.5q0 -50 -9 -89l-151 -713h-283l29 136h-18q-47 -71 -131 -112t-181 -41zM666 1739l216 236h252l-255 -236h-213zM747 1215q-97 0 -162 64t-65 159t65 158.5t162 63.5t162 -63.5t65 -158.5t-65 -159t-162 -64zM656 1437q0 -39 26 -65
t65 -26t65.5 26t26.5 65t-26.5 65t-65.5 26t-65 -25.5t-26 -65.5z" />
    <glyph glyph-name="AEacute" unicode="&#x1fc;" horiz-adv-x="2059" 
d="M1138 1202h-130l-379 -604h379zM880 0l80 364h-465l-234 -364h-307l903 1443h1259l-54 -258h-650l-75 -341h614l-50 -239h-613l-77 -347h650l-52 -258h-929zM1517 1591h-208l198 324h275z" />
    <glyph glyph-name="aeacute" unicode="&#x1fd;" horiz-adv-x="1925" 
d="M1255 -24q-123 0 -233 56.5t-154 145.5h-18q-58 -87 -170.5 -144.5t-244.5 -57.5q-171 0 -281.5 89.5t-110.5 222.5q0 174 127.5 270.5t363.5 104.5l274 9l15 61q5 28 5 40q0 57 -49 90.5t-134 33.5q-147 0 -191 -98h-275q35 154 164.5 241t317.5 87q115 0 205 -42
t132 -114h18q68 75 160.5 115.5t199.5 40.5q193 0 323.5 -128t131.5 -334q0 -86 -18 -180h-768q-1 -8 -1 -32q0 -121 66 -185.5t166 -64.5q161 0 216 114h281q-39 -154 -178 -247.5t-340 -93.5zM1076 669h479q3 9 3 38q0 85 -54.5 140.5t-148.5 55.5q-100 0 -175 -64
t-104 -170zM494 195q92 0 164.5 55t90.5 136l21 95l-228 -8q-100 -4 -157 -43t-57 -105q0 -56 46.5 -93t119.5 -37zM1093 1250h-208l212 354h278z" />
    <glyph glyph-name="Oslashacute" unicode="&#x1fe;" horiz-adv-x="1592" 
d="M1319 1914l-265 -324h-208l198 324h275zM1236 962l-686 -655q87 -85 223 -85q132 0 241.5 81.5t172 224.5t62.5 318q0 64 -13 116zM459 465l692 660q-89 95 -232 95q-99 0 -187 -48.5t-151.5 -131.5t-101 -199t-37.5 -245q0 -69 17 -131zM1574 1284l-102 -97
q79 -143 79 -320q0 -197 -60.5 -366t-165 -287t-250 -184.5t-312.5 -66.5q-252 0 -421 145l-96 -91l-118 133l99 94q-88 147 -88 332q0 157 39 297.5t110.5 250.5t168.5 190.5t218 123t254 42.5q263 0 433 -154l94 90z" />
    <glyph glyph-name="oslashacute" unicode="&#x1ff;" horiz-adv-x="1299" 
d="M1126 1604l-282 -354h-208l212 354h278zM882 754l-410 -492q52 -47 131 -47q122 0 210 122t88 291q0 73 -19 126zM411 359l409 490q-49 40 -120 40q-130 0 -217 -121t-87 -301q0 -60 15 -108zM1183 1114l-105 -126q128 -131 128 -344q0 -189 -80.5 -342t-222.5 -239.5
t-317 -86.5q-164 0 -288 77l-105 -126l-90 63l111 133q-121 132 -121 335q0 190 80.5 343t223 239.5t319.5 86.5q160 0 277 -71l97 116z" />
    <glyph glyph-name="Adblgrave" unicode="&#x200;" horiz-adv-x="1501" 
d="M874 1142l-304 -565h381l-58 565h-19zM1000 0l-35 344h-509l-186 -344h-315l820 1443h349l187 -1443h-311zM1090 1590l-57 318h249l10 -318h-202zM709 1590l-122 318h266l65 -318h-209z" />
    <glyph glyph-name="adblgrave" unicode="&#x201;" horiz-adv-x="1202" 
d="M492 202q93 0 165 52t90 132l21 95l-228 -8q-100 -4 -156.5 -43t-56.5 -104q0 -55 46 -89.5t119 -34.5zM369 -17q-140 0 -234 86t-94 215q0 168 129.5 266.5t361.5 105.5l274 9l15 68q5 25 5 40q0 57 -49 90.5t-133 33.5q-147 0 -192 -98h-275q35 151 167.5 239.5
t320.5 88.5q202 0 325 -89.5t123 -235.5q0 -50 -9 -89l-151 -713h-283l29 136h-18q-47 -71 -131 -112t-181 -41zM1023 1251h-202l-64 354h254zM649 1251h-209l-137 354h273z" />
    <glyph glyph-name="Ainvertedbreve" unicode="&#x202;" horiz-adv-x="1501" 
d="M874 1142l-304 -565h381l-58 565h-19zM1000 0l-35 344h-509l-186 -344h-315l820 1443h349l187 -1443h-311zM983 1916q181 0 280 -98.5t87 -238.5l-202 1q4 75 -42.5 120.5t-129.5 45.5q-80 0 -131.5 -42t-69.5 -124h-204q21 153 130 244.5t282 91.5z" />
    <glyph glyph-name="ainvertedbreve" unicode="&#x203;" horiz-adv-x="1202" 
d="M492 202q93 0 165 52t90 132l21 95l-228 -8q-100 -4 -156.5 -43t-56.5 -104q0 -55 46 -89.5t119 -34.5zM369 -17q-140 0 -234 86t-94 215q0 168 129.5 266.5t361.5 105.5l274 9l15 68q5 25 5 40q0 57 -49 90.5t-133 33.5q-147 0 -192 -98h-275q35 151 167.5 239.5
t320.5 88.5q202 0 325 -89.5t123 -235.5q0 -50 -9 -89l-151 -713h-283l29 136h-18q-47 -71 -131 -112t-181 -41zM728 1604q72 0 132.5 -16.5t100.5 -44t71 -63.5t44 -76t19.5 -80.5t-3.5 -76.5h-202q9 80 -34 132t-136 52q-84 0 -137.5 -47.5t-67.5 -136.5h-203
q17 163 127.5 260.5t288.5 96.5z" />
    <glyph glyph-name="Edblgrave" unicode="&#x204;" horiz-adv-x="1273" 
d="M1067 258l-52 -258h-957l307 1443h956l-53 -258h-652l-75 -337h616l-50 -239h-615l-78 -351h653zM983 1590l-57 318h249l10 -318h-202zM602 1590l-122 318h266l65 -318h-209z" />
    <glyph glyph-name="edblgrave" unicode="&#x205;" horiz-adv-x="1251" 
d="M401 669h479q3 18 3 38q0 85 -55 140.5t-149 55.5q-99 0 -174 -64t-104 -170zM582 -24q-218 0 -353 127t-135 347q0 302 166 489.5t431 187.5q201 0 333 -127t132 -335q0 -82 -17 -180h-770q0 -4 -0.5 -15.5t-0.5 -15.5q0 -122 66 -186.5t166 -64.5q163 0 218 114h280
q-38 -154 -176.5 -247.5t-339.5 -93.5zM1035 1251h-202l-64 354h254zM661 1251h-209l-137 354h273z" />
    <glyph glyph-name="Einvertedbreve" unicode="&#x206;" horiz-adv-x="1273" 
d="M1067 258l-52 -258h-957l307 1443h956l-53 -258h-652l-75 -337h616l-50 -239h-615l-78 -351h653zM876 1916q92 0 165.5 -27.5t118.5 -74.5t67 -107.5t16 -127.5l-202 1q4 75 -42.5 120.5t-129.5 45.5q-80 0 -131.5 -42t-69.5 -124h-204q21 153 130 244.5t282 91.5z" />
    <glyph glyph-name="einvertedbreve" unicode="&#x207;" horiz-adv-x="1251" 
d="M401 669h479q3 18 3 38q0 85 -55 140.5t-149 55.5q-99 0 -174 -64t-104 -170zM582 -24q-218 0 -353 127t-135 347q0 302 166 489.5t431 187.5q201 0 333 -127t132 -335q0 -82 -17 -180h-770q0 -4 -0.5 -15.5t-0.5 -15.5q0 -122 66 -186.5t166 -64.5q163 0 218 114h280
q-38 -154 -176.5 -247.5t-339.5 -93.5zM740 1604q72 0 132.5 -16.5t100.5 -44t71 -63.5t44 -76t19.5 -80.5t-3.5 -76.5h-202q9 80 -34 132t-136 52q-84 0 -137.5 -47.5t-67.5 -136.5h-203q17 163 127.5 260.5t288.5 96.5z" />
    <glyph glyph-name="Idblgrave" unicode="&#x208;" horiz-adv-x="653" 
d="M362 0h-304l307 1443h304zM657 1590l-57 318h249l10 -318h-202zM276 1590l-122 318h266l65 -318h-209z" />
    <glyph glyph-name="idblgrave" unicode="&#x209;" horiz-adv-x="599" 
d="M37 0l234 1103h291l-234 -1103h-291zM763 1251h-202l-64 354h254zM389 1251h-209l-137 354h273z" />
    <glyph glyph-name="Iinvertedbreve" unicode="&#x20a;" horiz-adv-x="653" 
d="M362 0h-304l307 1443h304zM550 1916q92 0 165.5 -27.5t118.5 -74.5t67 -107.5t16 -127.5l-202 1q4 75 -42.5 120.5t-129.5 45.5q-80 0 -131.5 -42t-69.5 -124h-204q21 153 130 244.5t282 91.5z" />
    <glyph glyph-name="iinvertedbreve" unicode="&#x20b;" horiz-adv-x="599" 
d="M37 0l234 1103h291l-234 -1103h-291zM468 1604q72 0 132.5 -16.5t100.5 -44t71 -63.5t44 -76t19.5 -80.5t-3.5 -76.5h-202q9 80 -34 132t-136 52q-84 0 -137.5 -47.5t-67.5 -136.5h-203q17 163 127.5 260.5t288.5 96.5z" />
    <glyph glyph-name="Odblgrave" unicode="&#x20c;" horiz-adv-x="1618" 
d="M917 1209q-129 0 -236.5 -80.5t-169.5 -221t-62 -309.5q0 -165 89.5 -265t236.5 -100q129 0 236 79.5t168.5 220t61.5 311.5q0 165 -89 265t-235 100zM763 -37q-185 0 -328 80t-219.5 219.5t-76.5 313.5q0 157 39 297.5t110.5 250.5t168.5 190.5t218 123t254 42.5
q282 0 452 -173t170 -440q0 -197 -60.5 -366t-165 -287t-250 -184.5t-312.5 -66.5zM1071 1589l-57 318h249l10 -318h-202zM690 1589l-122 318h266l65 -318h-209z" />
    <glyph glyph-name="odblgrave" unicode="&#x20d;" horiz-adv-x="1299" 
d="M603 215q122 0 210 122t88 291q0 123 -53 192t-148 69q-130 0 -217 -121t-87 -301q0 -116 56 -184t151 -68zM716 1127q221 0 355.5 -132t134.5 -351q0 -189 -80.5 -342t-222.5 -239.5t-317 -86.5q-222 0 -357.5 132.5t-135.5 349.5q0 190 80.5 343t223 239.5t319.5 86.5z
M1059 1251h-202l-64 354h254zM685 1251h-209l-137 354h273z" />
    <glyph glyph-name="Oinvertedbreve" unicode="&#x20e;" horiz-adv-x="1618" 
d="M917 1209q-129 0 -236.5 -80.5t-169.5 -221t-62 -309.5q0 -165 89.5 -265t236.5 -100q129 0 236 79.5t168.5 220t61.5 311.5q0 165 -89 265t-235 100zM763 -37q-185 0 -328 80t-219.5 219.5t-76.5 313.5q0 157 39 297.5t110.5 250.5t168.5 190.5t218 123t254 42.5
q282 0 452 -173t170 -440q0 -197 -60.5 -366t-165 -287t-250 -184.5t-312.5 -66.5zM964 1915q92 0 165.5 -27.5t118.5 -74.5t67 -107.5t16 -127.5l-202 1q4 75 -42.5 120.5t-129.5 45.5q-80 0 -131.5 -42t-69.5 -124h-204q21 153 130 244.5t282 91.5z" />
    <glyph glyph-name="oinvertedbreve" unicode="&#x20f;" horiz-adv-x="1299" 
d="M603 215q122 0 210 122t88 291q0 123 -53 192t-148 69q-130 0 -217 -121t-87 -301q0 -116 56 -184t151 -68zM716 1127q221 0 355.5 -132t134.5 -351q0 -189 -80.5 -342t-222.5 -239.5t-317 -86.5q-222 0 -357.5 132.5t-135.5 349.5q0 190 80.5 343t223 239.5t319.5 86.5z
M764 1604q72 0 132.5 -16.5t100.5 -44t71 -63.5t44 -76t19.5 -80.5t-3.5 -76.5h-202q9 80 -34 132t-136 52q-84 0 -137.5 -47.5t-67.5 -136.5h-203q17 163 127.5 260.5t288.5 96.5z" />
    <glyph glyph-name="Rdblgrave" unicode="&#x210;" horiz-adv-x="1418" 
d="M58 0l307 1443h571q200 0 326 -114.5t126 -294.5q0 -161 -97 -292t-260 -184l198 -558h-325l-172 523h-258l-112 -523h-304zM619 1199l-98 -444h264q132 0 213.5 70t81.5 182q0 91 -56 141.5t-157 50.5h-248zM971 1590l-57 318h249l10 -318h-202zM590 1590l-122 318h266
l65 -318h-209z" />
    <glyph glyph-name="rdblgrave" unicode="&#x211;" horiz-adv-x="908" 
d="M21 0l235 1103h283l-31 -152h18q94 170 274 170q91 0 142 -24l-58 -268q-75 30 -168 30q-218 0 -272 -251l-131 -608h-292zM907 1251h-202l-64 354h254zM533 1251h-209l-137 354h273z" />
    <glyph glyph-name="Rinvertedbreve" unicode="&#x212;" horiz-adv-x="1418" 
d="M58 0l307 1443h571q200 0 326 -114.5t126 -294.5q0 -161 -97 -292t-260 -184l198 -558h-325l-172 523h-258l-112 -523h-304zM619 1199l-98 -444h264q132 0 213.5 70t81.5 182q0 91 -56 141.5t-157 50.5h-248zM864 1916q92 0 165.5 -27.5t118.5 -74.5t67 -107.5t16 -127.5
l-202 1q4 75 -42.5 120.5t-129.5 45.5q-80 0 -131.5 -42t-69.5 -124h-204q21 153 130 244.5t282 91.5z" />
    <glyph glyph-name="rinvertedbreve" unicode="&#x213;" horiz-adv-x="908" 
d="M21 0l235 1103h283l-31 -152h18q94 170 274 170q91 0 142 -24l-58 -268q-75 30 -168 30q-218 0 -272 -251l-131 -608h-292zM612 1604q72 0 132.5 -16.5t100.5 -44t71 -63.5t44 -76t19.5 -80.5t-3.5 -76.5h-202q9 80 -34 132t-136 52q-84 0 -137.5 -47.5t-67.5 -136.5
h-203q17 163 127.5 260.5t288.5 96.5z" />
    <glyph glyph-name="Udblgrave" unicode="&#x214;" horiz-adv-x="1564" 
d="M734 -37q-260 0 -412 131t-154 339q0 64 13 126l187 884h305l-186 -877q-11 -50 -11 -102q3 -108 75.5 -169t200.5 -61q127 0 214 72.5t116 206.5l198 930h304l-211 -997q-48 -229 -215 -356t-424 -127zM1114 1590l-57 318h249l10 -318h-202zM733 1590l-122 318h266
l65 -318h-209z" />
    <glyph glyph-name="udblgrave" unicode="&#x215;" horiz-adv-x="1285" 
d="M1260 1103l-233 -1103h-283l36 167h-18q-108 -191 -328 -191q-151 0 -244 88t-93 234q0 58 15 141l139 664h293l-131 -616q-10 -47 -10 -86q0 -173 174 -173q98 0 164.5 62.5t89.5 168.5l137 644h292zM1103 1251h-202l-64 354h254zM729 1251h-209l-137 354h273z" />
    <glyph glyph-name="Uinvertedbreve" unicode="&#x216;" horiz-adv-x="1564" 
d="M734 -37q-260 0 -412 131t-154 339q0 64 13 126l187 884h305l-186 -877q-11 -50 -11 -102q3 -108 75.5 -169t200.5 -61q127 0 214 72.5t116 206.5l198 930h304l-211 -997q-48 -229 -215 -356t-424 -127zM1007 1916q181 0 280 -98.5t87 -238.5l-202 1q4 75 -42.5 120.5
t-129.5 45.5q-80 0 -131.5 -42t-69.5 -124h-204q21 153 130 244.5t282 91.5z" />
    <glyph glyph-name="uinvertedbreve" unicode="&#x217;" horiz-adv-x="1285" 
d="M1260 1103l-233 -1103h-283l36 167h-18q-108 -191 -328 -191q-151 0 -244 88t-93 234q0 58 15 141l139 664h293l-131 -616q-10 -47 -10 -86q0 -173 174 -173q98 0 164.5 62.5t89.5 168.5l137 644h292zM808 1604q72 0 132.5 -16.5t100.5 -44t71 -63.5t44 -76t19.5 -80.5
t-3.5 -76.5h-202q9 80 -34 132t-136 52q-84 0 -137.5 -47.5t-67.5 -136.5h-203q17 163 127.5 260.5t288.5 96.5z" />
    <glyph glyph-name="Scommaaccent" unicode="&#x218;" horiz-adv-x="1362" 
d="M65 412h292q16 -92 99 -148t201 -56q122 0 198 52t76 137q0 63 -49.5 105.5t-166.5 79.5l-150 47q-160 50 -247.5 152.5t-87.5 241.5q0 130 73.5 234.5t203.5 163.5t291 59q237 0 389.5 -124.5t159.5 -322.5h-285q-14 91 -89.5 146.5t-186.5 55.5q-106 0 -177.5 -50
t-71.5 -126q0 -61 46.5 -105.5t147.5 -76.5l148 -46q184 -58 270 -152t86 -240q0 -214 -165.5 -345t-434.5 -131q-248 0 -402.5 120t-167.5 329zM558 -494h-213l146 365h283z" />
    <glyph glyph-name="scommaaccent" unicode="&#x219;" horiz-adv-x="1150" 
d="M169 770q0 161 126.5 259t330.5 98q200 0 322.5 -89.5t133.5 -238.5h-267q-10 52 -61.5 83.5t-127.5 31.5q-77 0 -126.5 -32t-49.5 -82q0 -36 29 -62t93 -47l179 -63q134 -46 194.5 -115t60.5 -175q0 -162 -133 -262t-348 -100q-212 0 -345.5 94.5t-139.5 247.5h281
q12 -57 68 -93t137 -36q85 0 136.5 32t51.5 85q0 36 -25.5 61t-87.5 45l-172 60q-132 45 -196 117.5t-64 180.5zM419 -494h-213l146 365h283z" />
    <glyph glyph-name="Tcommaaccent" unicode="&#x21a;" horiz-adv-x="1349" 
d="M710 0h-304l254 1185h-432l53 258h1168l-53 -258h-432zM466 -494h-213l146 365h283z" />
    <glyph glyph-name="tcommaaccent" unicode="&#x21b;" horiz-adv-x="846" 
d="M482 -4q-142 0 -227.5 62.5t-85.5 172.5q0 43 11 95l116 537h-177l48 229h176l58 273h292l-58 -273h235l-49 -229h-233l-104 -479q-8 -40 -8 -64q0 -98 122 -98q51 0 87 6l-45 -219q-54 -13 -158 -13zM280 -494h-213l146 365h283z" />
    <glyph glyph-name="Hcaron" unicode="&#x21e;" horiz-adv-x="1605" 
d="M1314 0h-305l129 603h-648l-129 -603h-303l307 1443h304l-125 -582h648l125 582h304zM871 1590l-186 335h251l90 -195h18l175 195h267l-324 -335h-291z" />
    <glyph glyph-name="hcaron" unicode="&#x21f;" horiz-adv-x="1301" 
d="M33 0l323 1515h292l-125 -578h18q119 187 333 187q154 0 243.5 -90t89.5 -227q0 -58 -14 -131l-142 -676h-291l132 628q10 48 10 84q0 79 -49 125t-134 46q-97 0 -164.5 -62t-89.5 -162l-140 -659h-292zM378 1662l-186 335h251l90 -195h18l175 195h267l-324 -335h-291z
" />
    <glyph glyph-name="Adotaccent" unicode="&#x226;" horiz-adv-x="1501" 
d="M874 1142l-304 -565h381l-58 565h-19zM1000 0l-35 344h-509l-186 -344h-315l820 1443h349l187 -1443h-311zM1015 1594q-68 0 -116 48.5t-48 117.5q0 70 48 118.5t116 48.5t116.5 -48.5t48.5 -118.5t-48 -118t-117 -48z" />
    <glyph glyph-name="adotaccent" unicode="&#x227;" horiz-adv-x="1202" 
d="M492 202q93 0 165 52t90 132l21 95l-228 -8q-100 -4 -156.5 -43t-56.5 -104q0 -55 46 -89.5t119 -34.5zM369 -17q-140 0 -234 86t-94 215q0 168 129.5 266.5t361.5 105.5l274 9l15 68q5 25 5 40q0 57 -49 90.5t-133 33.5q-147 0 -192 -98h-275q35 151 167.5 239.5
t320.5 88.5q202 0 325 -89.5t123 -235.5q0 -50 -9 -89l-151 -713h-283l29 136h-18q-47 -71 -131 -112t-181 -41zM746 1268q-68 0 -116.5 49t-48.5 118t48.5 117.5t116.5 48.5t116 -48.5t48 -117.5q0 -70 -48 -118.5t-116 -48.5z" />
    <glyph glyph-name="Ecedilla" unicode="&#x228;" horiz-adv-x="1273" 
d="M1268 1185h-652l-75 -337h616l-50 -239h-615l-78 -351h653l-52 -258h-363l-95 -125q62 -7 108.5 -50t46.5 -117q0 -95 -78 -147t-206 -52q-87 0 -156 22l29 135q47 -15 102 -15q114 0 114 56q0 54 -115 54h-55l23 112l95 127h-407l307 1443h956z" />
    <glyph glyph-name="ecedilla" unicode="&#x229;" horiz-adv-x="1251" 
d="M401 669h479q3 18 3 38q0 85 -55 140.5t-149 55.5q-99 0 -174 -64t-104 -170zM1139 485h-770q0 -4 -0.5 -15.5t-0.5 -15.5q0 -122 66 -186.5t166 -64.5q163 0 218 114h280q-33 -135 -145 -224.5t-277 -110.5l-81 -107q62 -7 108.5 -50t46.5 -117q0 -95 -78 -147t-206 -52
q-87 0 -156 22l29 135q47 -15 102 -15q114 0 114 56q0 54 -115 54h-55l23 112l82 109q-181 27 -288.5 149.5t-107.5 318.5q0 302 166 489.5t431 187.5q201 0 333 -127t132 -335q0 -82 -17 -180z" />
    <glyph glyph-name="Odieresismacron" unicode="&#x22a;" horiz-adv-x="1618" 
d="M917 1209q-129 0 -236.5 -80.5t-169.5 -221t-62 -309.5q0 -165 89.5 -265t236.5 -100q129 0 236 79.5t168.5 220t61.5 311.5q0 165 -89 265t-235 100zM763 -37q-185 0 -328 80t-219.5 219.5t-76.5 313.5q0 157 39 297.5t110.5 250.5t168.5 190.5t218 123t254 42.5
q282 0 452 -173t170 -440q0 -197 -60.5 -366t-165 -287t-250 -184.5t-312.5 -66.5zM758 1878q67 0 110 -42.5t43 -107.5t-43 -107.5t-110 -42.5t-110.5 42.5t-43.5 107.5t43.5 107.5t110.5 42.5zM1455 2163l-36 -168h-745l35 168h746zM1226 1878q67 0 110.5 -42.5
t43.5 -107.5t-43.5 -107.5t-110.5 -42.5q-66 0 -109.5 42.5t-43.5 107.5t43.5 107.5t109.5 42.5z" />
    <glyph glyph-name="odieresismacron" unicode="&#x22b;" horiz-adv-x="1299" 
d="M603 215q122 0 210 122t88 291q0 123 -53 192t-148 69q-130 0 -217 -121t-87 -301q0 -116 56 -184t151 -68zM716 1127q221 0 355.5 -132t134.5 -351q0 -189 -80.5 -342t-222.5 -239.5t-317 -86.5q-222 0 -357.5 132.5t-135.5 349.5q0 190 80.5 343t223 239.5t319.5 86.5z
M552 1251q-63 0 -104.5 42t-41.5 103q0 62 41.5 103.5t104.5 41.5q64 0 105 -41.5t41 -103.5t-41 -103.5t-105 -41.5zM995 1251q-64 0 -105 41.5t-41 103.5t41 103.5t105 41.5q63 0 104.5 -41.5t41.5 -103.5q0 -61 -41.5 -103t-104.5 -42zM1238 1881l-37 -181h-726l38 181
h725z" />
    <glyph glyph-name="Otildemacron" unicode="&#x22c;" horiz-adv-x="1618" 
d="M917 1209q-129 0 -236.5 -80.5t-169.5 -221t-62 -309.5q0 -165 89.5 -265t236.5 -100q129 0 236 79.5t168.5 220t61.5 311.5q0 165 -89 265t-235 100zM763 -37q-185 0 -328 80t-219.5 219.5t-76.5 313.5q0 157 39 297.5t110.5 250.5t168.5 190.5t218 123t254 42.5
q282 0 452 -173t170 -440q0 -197 -60.5 -366t-165 -287t-250 -184.5t-312.5 -66.5zM1454 2163l-37 -178h-745l37 178h745zM1138 1576q-49 0 -93.5 20t-71.5 43.5t-58.5 43.5t-58.5 20q-79 0 -97 -95h-181q17 125 91 196.5t176 71.5q49 0 93.5 -19.5t71.5 -43.5t58.5 -43.5
t58.5 -19.5q79 0 97 95h181q-18 -126 -92 -197.5t-175 -71.5z" />
    <glyph glyph-name="otildemacron" unicode="&#x22d;" horiz-adv-x="1299" 
d="M603 215q122 0 210 122t88 291q0 123 -53 192t-148 69q-130 0 -217 -121t-87 -301q0 -116 56 -184t151 -68zM716 1127q221 0 355.5 -132t134.5 -351q0 -189 -80.5 -342t-222.5 -239.5t-317 -86.5q-222 0 -357.5 132.5t-135.5 349.5q0 190 80.5 343t223 239.5t319.5 86.5z
M366 1282q24 135 93.5 215t172.5 80q52 0 97.5 -23t71 -50.5t55 -50.5t54.5 -23q62 0 90 119h181q-24 -134 -93.5 -214.5t-172.5 -80.5q-43 0 -80.5 15t-62.5 37t-47 44t-44.5 37t-43.5 15q-63 0 -90 -120h-181zM1232 1883l-37 -181h-726l38 181h725z" />
    <glyph glyph-name="Odotaccent" unicode="&#x22e;" horiz-adv-x="1618" 
d="M917 1209q-129 0 -236.5 -80.5t-169.5 -221t-62 -309.5q0 -165 89.5 -265t236.5 -100q129 0 236 79.5t168.5 220t61.5 311.5q0 165 -89 265t-235 100zM763 -37q-185 0 -328 80t-219.5 219.5t-76.5 313.5q0 157 39 297.5t110.5 250.5t168.5 190.5t218 123t254 42.5
q282 0 452 -173t170 -440q0 -197 -60.5 -366t-165 -287t-250 -184.5t-312.5 -66.5zM996 1593q-68 0 -116 48.5t-48 117.5q0 70 48 118.5t116 48.5t116.5 -48.5t48.5 -118.5q0 -69 -48.5 -117.5t-116.5 -48.5z" />
    <glyph glyph-name="odotaccent" unicode="&#x22f;" horiz-adv-x="1299" 
d="M603 215q122 0 210 122t88 291q0 123 -53 192t-148 69q-130 0 -217 -121t-87 -301q0 -116 56 -184t151 -68zM716 1127q221 0 355.5 -132t134.5 -351q0 -189 -80.5 -342t-222.5 -239.5t-317 -86.5q-222 0 -357.5 132.5t-135.5 349.5q0 190 80.5 343t223 239.5t319.5 86.5z
M782 1268q-68 0 -116.5 49t-48.5 118t48.5 117.5t116.5 48.5t116 -48.5t48 -117.5q0 -70 -48 -118.5t-116 -48.5z" />
    <glyph glyph-name="Odotaccentmacron" unicode="&#x230;" horiz-adv-x="1618" 
d="M917 1209q-129 0 -236.5 -80.5t-169.5 -221t-62 -309.5q0 -165 89.5 -265t236.5 -100q129 0 236 79.5t168.5 220t61.5 311.5q0 165 -89 265t-235 100zM763 -37q-185 0 -328 80t-219.5 219.5t-76.5 313.5q0 157 39 297.5t110.5 250.5t168.5 190.5t218 123t254 42.5
q282 0 452 -173t170 -440q0 -197 -60.5 -366t-165 -287t-250 -184.5t-312.5 -66.5zM991 1574q-68 0 -112 42.5t-44 107.5q0 64 44 106t112 42t112 -42t44 -106q0 -65 -44 -107.5t-112 -42.5zM1455 2163l-35 -168h-746l35 168h746z" />
    <glyph glyph-name="odotaccentmacron" unicode="&#x231;" horiz-adv-x="1299" 
d="M603 215q122 0 210 122t88 291q0 123 -53 192t-148 69q-130 0 -217 -121t-87 -301q0 -116 56 -184t151 -68zM716 1127q221 0 355.5 -132t134.5 -351q0 -189 -80.5 -342t-222.5 -239.5t-317 -86.5q-222 0 -357.5 132.5t-135.5 349.5q0 190 80.5 343t223 239.5t319.5 86.5z
M775 1251q-66 0 -108.5 42.5t-42.5 106.5q0 65 42.5 108t108.5 43t108 -43t42 -108q0 -64 -42.5 -106.5t-107.5 -42.5zM1238 1881l-37 -181h-726l38 181h725z" />
    <glyph glyph-name="Ymacron" unicode="&#x232;" horiz-adv-x="1451" 
d="M762 0h-304l114 531l-310 912h316l196 -607h18l447 607h330l-697 -924zM1358 1844l-38 -181h-725l37 181h726z" />
    <glyph glyph-name="ymacron" unicode="&#x233;" horiz-adv-x="1208" 
d="M89 -403q-19 0 -73.5 3t-61.5 4l48 233q20 -6 82 -6q151 0 211 122l22 44l-144 1106h297l64 -822h18l405 822h312l-630 -1143q-106 -200 -231.5 -281.5t-318.5 -81.5zM1166 1519l-37 -181h-726l38 181h725z" />
    <glyph glyph-name="dotlessj" unicode="&#x237;" horiz-adv-x="599" 
d="M563 1103l-247 -1159q-66 -320 -404 -320q-80 0 -138 13l49 225q30 -6 64 -6q62 0 96.5 28t48.5 92l240 1127h291z" />
    <glyph glyph-name="quoteright" unicode="&#x2019;" horiz-adv-x="651" 
d="M385 832h-203l239 611h287z" />
    <glyph glyph-name="quoteright" unicode="&#x2bc;" horiz-adv-x="651" 
d="M385 832h-203l239 611h287z" />
    <glyph glyph-name="circumflex" unicode="&#x2c6;" horiz-adv-x="1024" 
d="M871 1605l190 -354h-251l-92 209h-18l-178 -209h-262l320 354h291z" />
    <glyph glyph-name="caron" unicode="&#x2c7;" horiz-adv-x="1024" 
d="M525 1251l-190 354h251l92 -209h18l179 209h261l-320 -354h-291z" />
    <glyph glyph-name="breve" unicode="&#x2d8;" horiz-adv-x="1024" 
d="M708 1247q-106 0 -185.5 35.5t-119.5 90t-55 114.5t-4 117h202q-9 -79 34 -131t136 -52q84 0 137.5 47t67.5 136h202q-16 -162 -126 -259.5t-289 -97.5z" />
    <glyph glyph-name="dotaccent" unicode="&#x2d9;" horiz-adv-x="1024" 
d="M700 1268q-68 0 -116.5 49t-48.5 118t48.5 117.5t116.5 48.5t116 -48.5t48 -117.5q0 -70 -48 -118.5t-116 -48.5z" />
    <glyph glyph-name="ring" unicode="&#x2da;" horiz-adv-x="1024" 
d="M710 1245q-101 0 -173 68.5t-72 169.5q0 103 72 171.5t173 68.5t173 -68.5t72 -171.5q0 -101 -72 -169.5t-173 -68.5zM710 1380q45 0 76 29.5t31 73.5q0 45 -31 75t-76 30q-44 0 -75.5 -30t-31.5 -75q0 -44 31.5 -73.5t75.5 -29.5z" />
    <glyph glyph-name="ogonek" unicode="&#x2db;" horiz-adv-x="1024" 
d="M350 -467q-108 0 -182 61.5t-74 163.5q0 94 66.5 170.5t178.5 116.5l229 -45q-113 -17 -187.5 -70.5t-74.5 -120.5q0 -45 34 -71t95 -26q31 0 74 8l-36 -170q-51 -17 -123 -17z" />
    <glyph glyph-name="tilde" unicode="&#x2dc;" horiz-adv-x="1024" 
d="M288 1282q24 135 93.5 215t172.5 80q52 0 97.5 -23t71 -50.5t55 -50.5t54.5 -23q62 0 90 119h181q-24 -134 -93.5 -214.5t-172.5 -80.5q-43 0 -80.5 15t-62.5 37t-47 44t-44.5 37t-43.5 15q-62 0 -90 -120h-181z" />
    <glyph glyph-name="hungarumlaut" unicode="&#x2dd;" horiz-adv-x="1024" 
d="M264 1251l161 354h255l-214 -354h-202zM638 1251l222 354h273l-286 -354h-209z" />
    <glyph glyph-name="gravecmb" unicode="&#x300;" 
d="M50 1251l-134 354h279l63 -354h-208z" />
    <glyph glyph-name="acutecmb" unicode="&#x301;" 
d="M248 1251h-208l212 354h278z" />
    <glyph glyph-name="circumflexcmb" unicode="&#x302;" 
d="M365 1605l190 -354h-251l-92 209h-18l-178 -209h-262l320 354h291z" />
    <glyph glyph-name="tildecmb" unicode="&#x303;" 
d="M-227 1282q24 135 93.5 215t172.5 80q52 0 97.5 -23t71 -50.5t55 -50.5t54.5 -23q62 0 90 119h181q-24 -134 -93.5 -214.5t-172.5 -80.5q-43 0 -80.5 15t-62.5 37t-47 44t-44.5 37t-43.5 15q-63 0 -90 -120h-181z" />
    <glyph glyph-name="macroncmb" unicode="&#x304;" 
d="M565 1519l-37 -181h-726l38 181h725z" />
    <glyph glyph-name="brevecmb" unicode="&#x306;" 
d="M189 1247q-72 0 -132.5 16.5t-101 44.5t-71.5 64t-44 75.5t-19 80t4 76.5h202q-9 -79 34 -131t136 -52q84 0 137.5 47t67.5 136h202q-16 -162 -126 -259.5t-289 -97.5z" />
    <glyph glyph-name="dotaccentcmb" unicode="&#x307;" 
d="M186 1268q-68 0 -116.5 49t-48.5 118t48.5 117.5t116.5 48.5t116 -48.5t48 -117.5q0 -70 -48 -118.5t-116 -48.5z" />
    <glyph glyph-name="dieresiscmb" unicode="&#x308;" 
d="M-55 1276q-64 0 -109.5 45t-45.5 111t45.5 111.5t109.5 45.5q65 0 110.5 -45.5t45.5 -111.5t-45.5 -111t-110.5 -45zM427 1276q-65 0 -110.5 45t-45.5 111t45.5 111.5t110.5 45.5t110 -45.5t45 -111.5t-45 -111t-110 -45z" />
    <glyph glyph-name="hookabovecmb" unicode="&#x309;" 
d="M53 1511l32 154q46 12 101 12q117 0 186.5 -61t69.5 -154q0 -92 -68.5 -159t-176.5 -93l-53 128q49 16 80.5 42.5t31.5 61.5q0 36 -33.5 57t-89.5 21q-40 0 -80 -9z" />
    <glyph glyph-name="ringcmb" unicode="&#x30a;" 
d="M199 1245q-101 0 -173.5 68.5t-72.5 169.5q0 103 72.5 171.5t173.5 68.5t173 -68.5t72 -171.5q0 -101 -72 -169.5t-173 -68.5zM199 1380q44 0 75.5 29.5t31.5 73.5q0 45 -31.5 75t-75.5 30q-45 0 -76 -30t-31 -75q0 -44 31 -73.5t76 -29.5z" />
    <glyph glyph-name="hungarumlautcmb" unicode="&#x30b;" 
d="M-167 1251l162 354h255l-214 -354h-203zM208 1251l222 354h273l-286 -354h-209z" />
    <glyph glyph-name="caroncmb" unicode="&#x30c;" 
d="M19 1251l-190 354h251l92 -209h18l179 209h261l-320 -354h-291z" />
    <glyph glyph-name="dblgravecmb" unicode="&#x30f;" 
d="M463 1251h-202l-64 354h254zM89 1251h-209l-137 354h273z" />
    <glyph glyph-name="invertedbrevecmb" unicode="&#x311;" 
d="M168 1604q72 0 132.5 -16.5t100.5 -44t71 -63.5t44 -76t19.5 -80.5t-3.5 -76.5h-202q9 80 -34 132t-136 52q-84 0 -137.5 -47.5t-67.5 -136.5h-203q17 163 127.5 260.5t288.5 96.5z" />
    <glyph glyph-name="horncmb" unicode="&#x31b;" 
d="M-96 973l42 194h36q36 3 56 23.5t29 63.5l30 152h230l-39 -200q-24 -120 -97 -183.5t-180 -63.5q-74 0 -107 14z" />
    <glyph glyph-name="dotbelowcmb" unicode="&#x323;" 
d="M-180 -452q-68 0 -116 48.5t-48 117.5q0 70 48 118.5t116 48.5t116.5 -48.5t48.5 -118.5q0 -69 -48.5 -117.5t-116.5 -48.5z" />
    <glyph glyph-name="dieresisbelowcmb" unicode="&#x324;" 
d="M-419 -442q-65 0 -110.5 45.5t-45.5 110.5q0 66 45.5 111.5t110.5 45.5t110 -45.5t45 -111.5q0 -65 -45 -110.5t-110 -45.5zM62 -442q-65 0 -110.5 45.5t-45.5 110.5q0 66 45.5 111.5t110.5 45.5t110.5 -45.5t45.5 -111.5q0 -65 -45.5 -110.5t-110.5 -45.5z" />
    <glyph glyph-name="ringbelowcmb" unicode="&#x325;" 
d="M-176 -524q-101 0 -173.5 68.5t-72.5 169.5q0 103 72.5 171.5t173.5 68.5t173 -68.5t72 -171.5q0 -101 -72 -169.5t-173 -68.5zM-176 -389q44 0 75.5 29.5t31.5 73.5q0 45 -31.5 75t-75.5 30q-45 0 -76 -30t-31 -75q0 -44 31 -73.5t76 -29.5z" />
    <glyph glyph-name="commabelowcmb" unicode="&#x326;" 
d="M-208 -494h-213l146 365h283z" />
    <glyph glyph-name="cedillacmb" unicode="&#x327;" 
d="M-391 -469l29 135q47 -15 102 -15q114 0 114 56q0 54 -115 54h-55l23 112l116 155h166v-28l-95 -125q62 -7 108.5 -50t46.5 -117q0 -95 -78 -147t-206 -52q-87 0 -156 22z" />
    <glyph glyph-name="ogonekcmb" unicode="&#x328;" 
d="M-162 -467q-108 0 -182.5 61.5t-74.5 163.5q0 94 67 170.5t178 116.5l230 -45q-113 -17 -188 -70.5t-75 -120.5q0 -45 34.5 -71t94.5 -26q32 0 74 8l-35 -170q-53 -17 -123 -17z" />
    <glyph glyph-name="circumflexbelowcmb" unicode="&#x32d;" 
d="M-3 -129l191 -353h-252l-92 209h-18l-178 -209h-262l320 353h291z" />
    <glyph glyph-name="brevebelowcmb" unicode="&#x32e;" 
d="M-175 -464q-72 0 -132 16.5t-100.5 44t-71.5 64t-44 76t-19 80t4 76.5h201q-9 -79 34 -131t136 -52q85 0 138.5 47t67.5 136h202q-16 -163 -126.5 -260.5t-289.5 -96.5z" />
    <glyph glyph-name="tildebelowcmb" unicode="&#x330;" 
d="M-588 -419q24 135 93.5 215t172.5 80q52 0 97.5 -23t71 -50.5t55 -50.5t54.5 -23q64 0 90 119h181q-23 -134 -92.5 -214.5t-173.5 -80.5q-43 0 -80.5 15t-62.5 37t-47 43.5t-44.5 36.5t-43.5 15q-62 0 -90 -119h-181z" />
    <glyph glyph-name="macronbelowcmb" unicode="&#x332;" 
d="M202 -195l-38 -181h-725l37 181h726z" />
    <glyph glyph-name="macronbelowcmb" unicode="&#x331;" 
d="M202 -195l-38 -181h-725l37 181h726z" />
    <glyph glyph-name="greekquestionmark" unicode="&#x37e;" horiz-adv-x="712" 
d="M408 677q-78 0 -127.5 49t-49.5 119q0 77 49 128t128 51t128 -49t49 -119q0 -77 -48.5 -128t-128.5 -51zM148 -391h-205l228 625h286z" />
    <glyph glyph-name="tonosgreek" unicode="&#x384;" horiz-adv-x="1024" 
d="M507 1251l124 354h259l-176 -354h-207z" />
    <glyph glyph-name="dieresistonosgreek" unicode="&#x385;" horiz-adv-x="1024" 
d="M321 1249q-59 0 -101 41.5t-42 100.5q0 60 41.5 101t101.5 41q59 0 100 -41t41 -101q0 -59 -41 -100.5t-100 -41.5zM537 1251l92 354h257l-142 -354h-207zM1060 1249q-58 0 -99.5 41.5t-41.5 100.5q0 60 41.5 101t99.5 41q60 0 101.5 -41t41.5 -101q0 -59 -42 -100.5
t-101 -41.5z" />
    <glyph glyph-name="Alphatonosgreek" unicode="&#x386;" horiz-adv-x="1559" 
d="M933 1142l-304 -565h381l-58 565h-19zM1059 0l-35 344h-509l-186 -344h-315l820 1443h349l187 -1443h-311zM237 1089l123 354h260l-176 -354h-207z" />
    <glyph glyph-name="anoteleia" unicode="&#x387;" horiz-adv-x="712" 
d="M425 756q-78 0 -127.5 49.5t-49.5 118.5q0 78 49 128.5t128 50.5t128 -49t49 -119q0 -77 -49 -128t-128 -51z" />
    <glyph glyph-name="Epsilontonosgreek" unicode="&#x388;" horiz-adv-x="1656" 
d="M210 1089l123 354h260l-176 -354h-207zM1450 258l-52 -258h-957l307 1443h956l-53 -258h-652l-75 -337h616l-50 -239h-615l-78 -351h653z" />
    <glyph glyph-name="Etatonosgreek" unicode="&#x389;" horiz-adv-x="1988" 
d="M210 1089l123 354h260l-176 -354h-207zM1697 0h-305l129 603h-648l-129 -603h-303l307 1443h304l-125 -582h648l125 582h304z" />
    <glyph glyph-name="Iotatonosgreek" unicode="&#x38a;" horiz-adv-x="1036" 
d="M210 1089l123 354h260l-176 -354h-207zM745 0h-304l307 1443h304z" />
    <glyph glyph-name="Omicrontonosgreek" unicode="&#x38c;" horiz-adv-x="1937" 
d="M210 1089l123 354h260l-176 -354h-207zM1236 1209q-129 0 -236.5 -80.5t-169.5 -221t-62 -309.5q0 -165 89.5 -265t236.5 -100q129 0 236 79.5t168.5 220t61.5 311.5q0 165 -89 265t-235 100zM1082 -37q-185 0 -328 80t-219.5 219.5t-76.5 313.5q0 157 39 297.5
t110.5 250.5t168.5 190.5t218 123t254 42.5q282 0 452 -173t170 -440q0 -197 -60.5 -366t-165 -287t-250 -184.5t-312.5 -66.5z" />
    <glyph glyph-name="Upsilontonosgreek" unicode="&#x38e;" horiz-adv-x="1854" 
d="M210 1089l123 354h260l-176 -354h-207zM1165 0h-304l114 531l-310 912h316l196 -607h18l447 607h330l-697 -924z" />
    <glyph glyph-name="Omegatonosgreek" unicode="&#x38f;" horiz-adv-x="1999" 
d="M210 1089l123 354h260l-176 -354h-207zM1182 0l65 312q173 83 267 230t94 336q0 155 -91.5 246t-250.5 91q-207 0 -335 -145.5t-128 -377.5q0 -123 55 -221t161 -159l-65 -312h-576l51 247h286l4 19q-104 68 -160.5 183t-56.5 257q0 228 101.5 405t282.5 273t412 96
q283 0 452 -155.5t169 -412.5q0 -201 -104 -378t-283 -268l-4 -19h297l-51 -247h-592z" />
    <glyph glyph-name="iotadieresistonosgreek" unicode="&#x390;" horiz-adv-x="691" 
d="M536 1103l-154 -721q-7 -32 -7 -61q0 -94 121 -94q58 0 89 4l-47 -225q-50 -10 -156 -10q-155 0 -235 59.5t-80 174.5q0 45 11 96l166 777h292zM96 1249q-59 0 -100.5 41.5t-41.5 100.5q0 60 41.5 101t100.5 41t100.5 -41t41.5 -101q0 -59 -41.5 -100.5t-100.5 -41.5z
M313 1251l92 354h257l-142 -354h-207zM836 1249q-58 0 -99.5 41.5t-41.5 100.5q0 60 41.5 101t99.5 41q60 0 101.5 -41t41.5 -101q0 -59 -42 -100.5t-101 -41.5z" />
    <glyph glyph-name="Alphagreek" unicode="&#x391;" horiz-adv-x="1501" 
d="M874 1142l-304 -565h381l-58 565h-19zM1000 0l-35 344h-509l-186 -344h-315l820 1443h349l187 -1443h-311z" />
    <glyph glyph-name="Betagreek" unicode="&#x392;" horiz-adv-x="1420" 
d="M749 0h-691l307 1443h589q186 0 299.5 -85.5t113.5 -225.5q0 -142 -91.5 -245.5t-234.5 -123.5l-2 -19q119 -22 188.5 -99t69.5 -189q0 -200 -154 -328t-394 -128zM622 1219l-80 -368h240q124 0 202.5 60t78.5 154q0 75 -55.5 114.5t-160.5 39.5h-225zM410 237h287
q129 0 212 66t83 169q0 84 -60.5 129.5t-173.5 45.5h-259z" />
    <glyph glyph-name="Gammagreek" unicode="&#x393;" horiz-adv-x="1215" 
d="M361 0h-303l307 1443h925l-53 -258h-621z" />
    <glyph glyph-name="Deltagreek" unicode="&#x2206;" horiz-adv-x="1454" 
d="M1248 0h-1276l37 176l741 1267h350l184 -1268zM854 1154l-493 -879l-4 -17h616l4 17l-109 879h-14z" />
    <glyph glyph-name="Deltagreek" unicode="&#x394;" horiz-adv-x="1454" 
d="M1248 0h-1276l37 176l741 1267h350l184 -1268zM854 1154l-493 -879l-4 -17h616l4 17l-109 879h-14z" />
    <glyph glyph-name="Epsilongreek" unicode="&#x395;" horiz-adv-x="1273" 
d="M1067 258l-52 -258h-957l307 1443h956l-53 -258h-652l-75 -337h616l-50 -239h-615l-78 -351h653z" />
    <glyph glyph-name="Zetagreek" unicode="&#x396;" horiz-adv-x="1384" 
d="M19 0l42 204l915 963l2 18h-689l53 258h1076l-42 -203l-913 -964l-2 -18h724l-53 -258h-1113z" />
    <glyph glyph-name="Etagreek" unicode="&#x397;" horiz-adv-x="1605" 
d="M1314 0h-305l129 603h-648l-129 -603h-303l307 1443h304l-125 -582h648l125 582h304z" />
    <glyph glyph-name="Thetagreek" unicode="&#x398;" horiz-adv-x="1677" 
d="M1103 591h-511l51 252h512zM766 -37q-293 0 -459.5 164.5t-166.5 453.5q0 264 105 468.5t296 317.5t437 113q299 0 465.5 -163.5t166.5 -457.5q0 -197 -62 -364t-172 -284t-267.5 -182.5t-342.5 -65.5zM1303 841q0 184 -90.5 281.5t-262.5 97.5q-143 0 -258.5 -80.5
t-180.5 -223t-65 -319.5q0 -178 91 -276t260 -98q143 0 259 80.5t181.5 222t65.5 315.5z" />
    <glyph glyph-name="Iotagreek" unicode="&#x399;" horiz-adv-x="653" 
d="M362 0h-304l307 1443h304z" />
    <glyph glyph-name="Kappagreek" unicode="&#x39a;" horiz-adv-x="1454" 
d="M360 0h-302l307 1443h302l-137 -635h18l660 635h357l-670 -653l383 -790h-341l-292 606l-192 -182z" />
    <glyph glyph-name="Lambdagreek" unicode="&#x39b;" horiz-adv-x="1475" 
d="M861 1142l-574 -1142h-325l800 1443h349l167 -1443h-321l-77 1142h-19z" />
    <glyph glyph-name="Mugreek" unicode="&#x39c;" horiz-adv-x="1879" 
d="M340 0h-282l307 1443h347l186 -974h18l610 974h368l-307 -1443h-281l207 965h-16l-560 -887h-201l-173 887h-16z" />
    <glyph glyph-name="Nugreek" unicode="&#x39d;" horiz-adv-x="1573" 
d="M351 0h-293l307 1443h231l479 -929h18l202 929h293l-307 -1443h-229l-483 922h-18z" />
    <glyph glyph-name="Xigreek" unicode="&#x39e;" horiz-adv-x="1373" 
d="M333 1443h1087l-54 -265h-1088zM1156 604h-913l51 246h913zM81 265h1087l-54 -265h-1087z" />
    <glyph glyph-name="Omicrongreek" unicode="&#x39f;" horiz-adv-x="1618" 
d="M917 1209q-129 0 -236.5 -80.5t-169.5 -221t-62 -309.5q0 -165 89.5 -265t236.5 -100q129 0 236 79.5t168.5 220t61.5 311.5q0 165 -89 265t-235 100zM763 -37q-185 0 -328 80t-219.5 219.5t-76.5 313.5q0 157 39 297.5t110.5 250.5t168.5 190.5t218 123t254 42.5
q282 0 452 -173t170 -440q0 -197 -60.5 -366t-165 -287t-250 -184.5t-312.5 -66.5z" />
    <glyph glyph-name="Pigreek" unicode="&#x3a0;" horiz-adv-x="1585" 
d="M1294 0h-305l255 1185h-628l-255 -1185h-303l307 1443h1236z" />
    <glyph glyph-name="Rhogreek" unicode="&#x3a1;" horiz-adv-x="1368" 
d="M365 1443h527q214 0 343.5 -115.5t129.5 -306.5q0 -263 -172.5 -418t-451.5 -155h-282l-97 -448h-303zM618 1195l-110 -502h229q145 0 233 81.5t88 217.5q0 99 -62.5 151t-175.5 52h-202z" />
    <glyph glyph-name="Sigmagreek" unicode="&#x3a3;" horiz-adv-x="1370" 
d="M457 272l-3 -14h716l-53 -258h-1098l39 189l480 546l-232 492l44 216h1053l-53 -258h-670l-3 -14l184 -406l-11 -50z" />
    <glyph glyph-name="Taugreek" unicode="&#x3a4;" horiz-adv-x="1349" 
d="M710 0h-304l254 1185h-432l53 258h1168l-53 -258h-432z" />
    <glyph glyph-name="Upsilongreek" unicode="&#x3a5;" horiz-adv-x="1451" 
d="M762 0h-304l114 531l-310 912h316l196 -607h18l447 607h330l-697 -924z" />
    <glyph glyph-name="Phigreek" unicode="&#x3a6;" horiz-adv-x="1872" 
d="M656 -110l32 150q-266 31 -412 186t-146 393q0 157 59 294t166.5 239.5t266.5 165t351 71.5l33 150h280l-33 -156q264 -31 411 -184.5t147 -396.5q0 -157 -59.5 -294t-167 -238.5t-266.5 -164t-350 -71.5l-31 -144h-281zM739 287l183 855q-224 -18 -359.5 -155.5
t-135.5 -360.5q0 -145 81.5 -233t230.5 -106zM1019 281q228 20 361.5 157.5t133.5 358.5q0 146 -82 234t-229 105z" />
    <glyph glyph-name="Chigreek" unicode="&#x3a7;" horiz-adv-x="1494" 
d="M-29 0l629 744l-310 699h340l211 -494h18l400 494h337l-635 -732l323 -711h-334l-220 485h-18l-409 -485h-332z" />
    <glyph glyph-name="Psigreek" unicode="&#x3a8;" horiz-adv-x="1794" 
d="M925 0h-289l66 305q-243 21 -368 131.5t-125 303.5q0 57 14 127l121 576h289l-116 -548q-17 -81 -17 -126q0 -103 62.5 -153.5t191.5 -56.5l189 884h288l-190 -892q170 9 257.5 84t119.5 227l123 581h289l-128 -610q-37 -175 -120 -287.5t-229 -175t-364 -72.5z" />
    <glyph glyph-name="Omegagreek" unicode="&#x2126;" horiz-adv-x="1658" 
d="M841 0l65 312q173 83 267 230t94 336q0 155 -91.5 246t-250.5 91q-207 0 -335 -145.5t-128 -377.5q0 -123 55 -221t161 -159l-65 -312h-576l51 247h286l4 19q-104 68 -160.5 183t-56.5 257q0 228 101.5 405t282.5 273t412 96q283 0 452 -155.5t169 -412.5
q0 -201 -104 -378t-283 -268l-4 -19h297l-51 -247h-592z" />
    <glyph glyph-name="Omegagreek" unicode="&#x3a9;" horiz-adv-x="1658" 
d="M841 0l65 312q173 83 267 230t94 336q0 155 -91.5 246t-250.5 91q-207 0 -335 -145.5t-128 -377.5q0 -123 55 -221t161 -159l-65 -312h-576l51 247h286l4 19q-104 68 -160.5 183t-56.5 257q0 228 101.5 405t282.5 273t412 96q283 0 452 -155.5t169 -412.5
q0 -201 -104 -378t-283 -268l-4 -19h297l-51 -247h-592z" />
    <glyph glyph-name="Iotadieresisgreek" unicode="&#x3aa;" horiz-adv-x="653" 
d="M362 0h-304l307 1443h304zM342 1601q-65 0 -110.5 45.5t-45.5 110.5q0 66 45.5 111.5t110.5 45.5t110.5 -45.5t45.5 -111.5q0 -65 -45.5 -110.5t-110.5 -45.5zM823 1601q-64 0 -109.5 45.5t-45.5 110.5q0 66 45.5 111.5t109.5 45.5q65 0 110.5 -45.5t45.5 -111.5
q0 -65 -45.5 -110.5t-110.5 -45.5z" />
    <glyph glyph-name="Upsilondieresisgreek" unicode="&#x3ab;" horiz-adv-x="1451" 
d="M762 0h-304l114 531l-310 912h316l196 -607h18l447 607h330l-697 -924zM738 1601q-65 0 -110.5 45.5t-45.5 110.5q0 66 45.5 111.5t110.5 45.5t110.5 -45.5t45.5 -111.5q0 -65 -45.5 -110.5t-110.5 -45.5zM1219 1601q-64 0 -109.5 45.5t-45.5 110.5q0 66 45.5 111.5
t109.5 45.5q65 0 110.5 -45.5t45.5 -111.5q0 -65 -45.5 -110.5t-110.5 -45.5z" />
    <glyph glyph-name="alphatonosgreek" unicode="&#x3ac;" horiz-adv-x="1364" 
d="M433 -17q-167 0 -266 116t-99 312q0 202 69.5 364.5t193 254t276.5 91.5q253 0 324 -225l18 -1l45 208h283l-162 -760q-8 -34 -8 -59q0 -34 20 -49t65 -15q21 0 56 8l-47 -221q-56 -17 -134 -17q-134 0 -192.5 45t-58.5 148v11l-18 1q-51 -100 -148 -156t-217 -56z
M559 226q132 0 223 116t91 286q0 117 -56 183.5t-153 66.5q-126 0 -212.5 -119t-86.5 -295q0 -108 53.5 -173t140.5 -65zM683 1251l124 354h259l-176 -354h-207z" />
    <glyph glyph-name="epsilontonosgreek" unicode="&#x3ad;" horiz-adv-x="1203" 
d="M510 -24q-217 0 -341 77t-124 224q0 103 66 177t178 104l4 18q-142 68 -142 200q0 163 140 257t374 94q474 0 505 -363h-291q-14 69 -66 100t-162 31q-95 0 -150 -35.5t-55 -90.5q0 -105 177 -105h148l-44 -216h-171q-97 0 -150 -33t-53 -92q0 -55 50.5 -85.5
t144.5 -30.5q103 0 179 40.5t108 116.5h300q-43 -175 -214.5 -281.5t-410.5 -106.5zM607 1251l124 354h259l-176 -354h-207z" />
    <glyph glyph-name="etatonosgreek" unicode="&#x3ae;" horiz-adv-x="1368" 
d="M750 -366l210 992q9 39 9 79q0 77 -48.5 124t-130.5 47q-90 0 -158.5 -60t-91.5 -162l-140 -654h-291l161 755q8 40 8 60q0 36 -19 52t-62 16q-35 0 -59 -8l47 221q60 17 146 17q118 0 175.5 -44.5t68.5 -138.5l3 -22h19q58 103 147 158t203 55q144 0 235.5 -89.5
t91.5 -235.5q0 -59 -15 -132l-219 -1030h-290zM687 1257l124 354h259l-176 -354h-207z" />
    <glyph glyph-name="iotatonosgreek" unicode="&#x3af;" horiz-adv-x="691" 
d="M536 1103l-154 -721q-7 -32 -7 -61q0 -94 121 -94q58 0 89 4l-47 -225q-50 -10 -156 -10q-155 0 -235 59.5t-80 174.5q0 45 11 96l166 777h292zM316 1251l124 354h259l-176 -354h-207z" />
    <glyph glyph-name="upsilondieresistonosgreek" unicode="&#x3b0;" horiz-adv-x="1240" 
d="M848 1103h277q32 -114 32 -281q0 -412 -167 -629t-470 -217q-204 0 -316 94.5t-112 264.5q0 68 23 183l124 585h275l-128 -608q-14 -66 -14 -119q1 -147 174 -147q157 0 243 153.5t86 434.5q0 164 -27 286zM392 1249q-59 0 -100.5 41.5t-41.5 100.5q0 60 41.5 101
t100.5 41t100.5 -41t41.5 -101q0 -59 -41.5 -100.5t-100.5 -41.5zM609 1251l92 354h257l-142 -354h-207zM1132 1249q-58 0 -99.5 41.5t-41.5 100.5q0 60 41.5 101t99.5 41q60 0 101.5 -41t41.5 -101q0 -59 -42 -100.5t-101 -41.5z" />
    <glyph glyph-name="alphagreek" unicode="&#x3b1;" horiz-adv-x="1364" 
d="M433 -17q-167 0 -266 116t-99 312q0 202 69.5 364.5t193 254t276.5 91.5q253 0 324 -225l18 -1l45 208h283l-162 -760q-8 -34 -8 -59q0 -34 20 -49t65 -15q21 0 56 8l-47 -221q-56 -17 -134 -17q-134 0 -192.5 45t-58.5 148v11l-18 1q-51 -100 -148 -156t-217 -56z
M559 226q132 0 223 116t91 286q0 117 -56 183.5t-153 66.5q-126 0 -212.5 -119t-86.5 -295q0 -108 53.5 -173t140.5 -65z" />
    <glyph glyph-name="betagreek" unicode="&#x3b2;" horiz-adv-x="1327" 
d="M235 1017q57 277 190 404t373 127q201 0 323.5 -99t122.5 -265q0 -119 -67 -209.5t-193 -141.5l-4 -19q258 -79 258 -334q0 -216 -147 -356.5t-372 -140.5q-268 0 -349 217h-18l-121 -566h-291zM590 697l46 222h77q115 0 182.5 62t67.5 167q0 77 -46.5 119.5t-137.5 42.5
q-96 0 -156.5 -61t-88.5 -190l-109 -502q-13 -60 -13 -96q0 -111 67.5 -173t184.5 -62q118 0 195 72t77 183q0 102 -67.5 159t-188.5 57h-90z" />
    <glyph glyph-name="gammagreek" unicode="&#x3b3;" horiz-adv-x="1211" 
d="M1196 1103q4 -16 4 -57q0 -229 -147.5 -485.5t-465.5 -602.5l-68 -318h-292l63 291l-141 1172h298l72 -836h20q181 216 282.5 418.5t101.5 363.5q0 39 -3 54h276z" />
    <glyph glyph-name="deltagreek" unicode="&#x3b4;" horiz-adv-x="1238" 
d="M538 -24q-224 0 -356 120t-132 324q0 217 129.5 373.5t346.5 192.5l4 20q-156 88 -156 229q0 144 116.5 228.5t316.5 84.5q123 0 234.5 -28.5t175.5 -76.5l-54 -210q-165 94 -337 94q-72 0 -109 -26t-37 -71q0 -35 26.5 -64t100.5 -71q196 -131 274.5 -247t78.5 -270
q0 -124 -48 -235.5t-131 -192t-198.5 -127.5t-244.5 -47zM552 196q130 0 215.5 112t85.5 282q0 108 -55 171t-150 63q-126 0 -212 -112.5t-86 -286.5q0 -106 54 -167.5t148 -61.5z" />
    <glyph glyph-name="epsilongreek" unicode="&#x3b5;" horiz-adv-x="1203" 
d="M510 -24q-217 0 -341 77t-124 224q0 103 66 177t178 104l4 18q-142 68 -142 200q0 163 140 257t374 94q474 0 505 -363h-291q-14 69 -66 100t-162 31q-95 0 -150 -35.5t-55 -90.5q0 -105 177 -105h148l-44 -216h-171q-97 0 -150 -33t-53 -92q0 -55 50.5 -85.5
t144.5 -30.5q103 0 179 40.5t108 116.5h300q-43 -175 -214.5 -281.5t-410.5 -106.5z" />
    <glyph glyph-name="zetagreek" unicode="&#x3b6;" horiz-adv-x="1012" 
d="M698 -379l-195 78q59 68 83 115t24 95q0 50 -33 82.5t-124 75.5q-217 104 -305.5 210t-88.5 260q0 207 144 381.5t438 342.5l4 18h-389l52 245h796l11 -207q-367 -184 -562 -368.5t-195 -358.5q0 -95 48 -149t188 -119q173 -82 234 -152t61 -175q0 -174 -191 -374z" />
    <glyph glyph-name="etagreek" unicode="&#x3b7;" horiz-adv-x="1368" 
d="M750 -366l210 992q9 39 9 79q0 77 -48.5 124t-130.5 47q-90 0 -158.5 -60t-91.5 -162l-140 -654h-291l161 755q8 40 8 60q0 36 -19 52t-62 16q-35 0 -59 -8l47 221q60 17 146 17q118 0 175.5 -44.5t68.5 -138.5l3 -22h19q58 103 147 158t203 55q144 0 235.5 -89.5
t91.5 -235.5q0 -59 -15 -132l-219 -1030h-290z" />
    <glyph glyph-name="thetagreek" unicode="&#x3b8;" horiz-adv-x="1300" 
d="M572 -24q-232 0 -352.5 136t-120.5 398q0 123 27 273q66 374 237 569.5t432 195.5q230 0 350 -136.5t120 -398.5q0 -121 -26 -271q-64 -377 -234 -571.5t-433 -194.5zM583 200q128 0 211 109t130 341h-523q-17 -102 -17 -179q0 -129 49.5 -200t149.5 -71zM441 883h522
q14 86 14 157q0 140 -51 212t-150 72q-244 0 -335 -441z" />
    <glyph glyph-name="iotagreek" unicode="&#x3b9;" horiz-adv-x="691" 
d="M536 1103l-154 -721q-7 -32 -7 -61q0 -94 121 -94q58 0 89 4l-47 -225q-50 -10 -156 -10q-155 0 -235 59.5t-80 174.5q0 45 11 96l166 777h292z" />
    <glyph glyph-name="kappagreek" unicode="&#x3ba;" horiz-adv-x="1245" 
d="M1128 1113q76 0 127 -17l-45 -221q-36 8 -61 8q-38 0 -69 -15.5t-77 -61.5l-187 -184l269 -622h-282l-196 462l-251 -230l-48 -232h-286l233 1103h287l-104 -481h18l339 326q103 101 168 133t165 32z" />
    <glyph glyph-name="lambdagreek" unicode="&#x3bb;" horiz-adv-x="1206" 
d="M1071 215q34 0 55 8l-45 -216q-51 -17 -140 -17q-123 0 -180.5 54t-73.5 184l-53 404h-18l-382 -632h-311l662 1042l-13 83q-19 119 -54.5 155.5t-123.5 36.5q-32 0 -64 -7l47 220q50 18 124 18q85 0 139 -17.5t93 -66t61.5 -125t40.5 -203.5l113 -800q10 -69 36.5 -95
t86.5 -26z" />
    <glyph glyph-name="nugreek" unicode="&#x3bd;" horiz-adv-x="1211" 
d="M1196 1103q4 -17 4 -57q0 -222 -138 -466.5t-437 -579.5h-342l-134 1103h298l72 -836h20q180 212 282 417t102 365q0 39 -3 54h276z" />
    <glyph glyph-name="xigreek" unicode="&#x3be;" horiz-adv-x="1033" 
d="M685 -379l-195 78q59 67 83 114.5t24 95.5q0 49 -32.5 82.5t-124.5 75.5q-234 109 -319 191.5t-85 197.5q0 245 314 317l4 17q-148 68 -148 215q0 191 234 256l3 18h-191l50 245h763l12 -226l-169 -16q-208 -20 -305.5 -72.5t-97.5 -140.5q0 -137 280 -137h144l-48 -234
h-201q-156 0 -244.5 -43t-88.5 -128q0 -58 48 -100t189 -108q169 -81 230.5 -149t61.5 -174q0 -91 -45.5 -180.5t-145.5 -194.5z" />
    <glyph glyph-name="omicrongreek" unicode="&#x3bf;" horiz-adv-x="1283" 
d="M595 215q122 0 210 122t88 291q0 123 -53 192t-148 69q-130 0 -216.5 -121t-86.5 -301q0 -116 55.5 -184t150.5 -68zM708 1127q221 0 355 -132t134 -351q0 -141 -47 -265.5t-129 -212.5t-196.5 -139t-245.5 -51q-222 0 -357 132.5t-135 349.5q0 190 80 343t222 239.5
t319 86.5z" />
    <glyph glyph-name="pigreek" unicode="&#x3c0;" horiz-adv-x="1498" 
d="M846 309l117 550h-329l-184 -859h-278l184 859h-230l50 244h1340l-50 -244h-225l-108 -506q-9 -40 -9 -58q0 -39 23 -57t73 -18q34 0 58 8l-46 -221q-54 -17 -139 -17q-130 0 -195.5 56t-65.5 159q0 43 14 104z" />
    <glyph glyph-name="rhogreek" unicode="&#x3c1;" horiz-adv-x="1298" 
d="M624 226q126 0 214 114t88 300q0 119 -55 184t-157 65q-134 0 -220 -120.5t-86 -311.5q0 -113 56 -172t160 -59zM745 1127q225 0 354 -126.5t129 -338.5q0 -187 -73.5 -343t-201 -246t-279.5 -90q-116 0 -201.5 59.5t-111.5 157.5h-18l-122 -566h-292l189 879
q69 328 220 471t407 143z" />
    <glyph glyph-name="sigmafinalgreek" unicode="&#x3c2;" horiz-adv-x="1170" 
d="M909 -5q0 -174 -191 -374l-195 78q59 68 83 115t24 95q0 49 -32.5 82t-124.5 76q-218 102 -305.5 209.5t-87.5 276.5q0 122 40.5 226.5t115.5 182t190 121.5t256 44q212 0 337.5 -115.5t130.5 -297.5h-275q-9 78 -63 125.5t-140 47.5q-136 0 -211.5 -83t-75.5 -215
q0 -94 49 -150.5t179 -116.5q172 -81 234 -150.5t62 -176.5z" />
    <glyph glyph-name="sigmagreek" unicode="&#x3c3;" horiz-adv-x="1369" 
d="M555 -24q-222 0 -352.5 127.5t-130.5 345.5q0 137 45 256.5t126 207.5t201.5 139t264.5 51h689l-50 -244h-268l-3 -19q80 -95 80 -223q0 -129 -43 -246t-120 -204.5t-191 -139t-248 -51.5zM571 210q134 0 217.5 116.5t83.5 294.5q0 235 -186 235q-136 0 -224 -117
t-88 -295q0 -234 197 -234z" />
    <glyph glyph-name="taugreek" unicode="&#x3c4;" horiz-adv-x="1136" 
d="M831 231l-47 -225q-56 -10 -155 -10q-154 0 -235 58.5t-81 175.5q0 39 11 96l116 533h-342l52 244h1011l-51 -244h-378l-103 -477q-8 -37 -8 -61q0 -94 122 -94q56 0 88 4z" />
    <glyph glyph-name="upsilongreek" unicode="&#x3c5;" horiz-adv-x="1240" 
d="M848 1103h277q32 -114 32 -281q0 -412 -167 -629t-470 -217q-204 0 -316 94.5t-112 264.5q0 68 23 183l124 585h275l-128 -608q-14 -66 -14 -119q1 -147 174 -147q157 0 243 153.5t86 434.5q0 164 -27 286z" />
    <glyph glyph-name="phigreek" unicode="&#x3c6;" horiz-adv-x="1625" 
d="M487 -366l73 346q-224 18 -357.5 147t-133.5 326t93 351t260.5 239.5t380.5 85.5l48 222h269l-50 -229q221 -17 353.5 -148t132.5 -328q0 -195 -92.5 -348.5t-259 -239t-378.5 -85.5l-71 -339h-268zM611 209l151 691q-186 -4 -297.5 -119t-111.5 -302q0 -118 66.5 -187.5
t191.5 -82.5zM866 202q187 7 297 120t110 299q0 117 -66.5 188t-189.5 83z" />
    <glyph glyph-name="chigreek" unicode="&#x3c7;" horiz-adv-x="1237" 
d="M878 -376q-103 0 -160.5 41.5t-88.5 135.5l-101 307h-18l-343 -474h-290l567 747l-133 387q-24 69 -50.5 92.5t-77.5 23.5q-26 0 -56 -8l46 221q64 16 139 16q101 0 156.5 -42t86.5 -142l98 -306h16l351 480h292l-568 -751l124 -375q25 -76 52.5 -99.5t83.5 -23.5
q30 0 58 7l-47 -220q-54 -17 -137 -17z" />
    <glyph glyph-name="psigreek" unicode="&#x3c8;" horiz-adv-x="1629" 
d="M747 -366h-275l73 341q-224 5 -339.5 96t-115.5 262q0 69 20 161l129 609h274l-124 -582q-19 -89 -19 -136q0 -80 53.5 -117t172.5 -40l241 1123h275l-241 -1125q196 3 294 145.5t98 437.5q0 168 -28 294h277q34 -107 34 -276q0 -424 -178 -639.5t-549 -215.5z" />
    <glyph glyph-name="omegagreek" unicode="&#x3c9;" horiz-adv-x="1674" 
d="M1579 644q0 -187 -66.5 -340.5t-183.5 -240.5t-260 -87q-123 0 -191 53t-93 170h-19q-102 -223 -343 -223q-170 0 -261.5 106.5t-91.5 303.5q0 190 77.5 385t206.5 332h288q-136 -155 -212 -337.5t-76 -358.5q0 -85 35 -131.5t100 -46.5q146 0 186 182l82 377h264
l-76 -356q-7 -32 -7 -67q0 -65 33 -100.5t93 -35.5q105 0 169 114t64 306q0 256 -123 454h288q117 -181 117 -459z" />
    <glyph glyph-name="iotadieresisgreek" unicode="&#x3ca;" horiz-adv-x="691" 
d="M536 1103l-154 -721q-7 -32 -7 -61q0 -94 121 -94q58 0 89 4l-47 -225q-50 -10 -156 -10q-155 0 -235 59.5t-80 174.5q0 45 11 96l166 777h292zM218 1276q-64 0 -109.5 45t-45.5 111t45.5 111.5t109.5 45.5q65 0 110.5 -45.5t45.5 -111.5t-45.5 -111t-110.5 -45z
M700 1276q-65 0 -110.5 45t-45.5 111t45.5 111.5t110.5 45.5t110 -45.5t45 -111.5t-45 -111t-110 -45z" />
    <glyph glyph-name="upsilondieresisgreek" unicode="&#x3cb;" horiz-adv-x="1240" 
d="M848 1103h277q32 -114 32 -281q0 -412 -167 -629t-470 -217q-204 0 -316 94.5t-112 264.5q0 68 23 183l124 585h275l-128 -608q-14 -66 -14 -119q1 -147 174 -147q157 0 243 153.5t86 434.5q0 164 -27 286zM514 1276q-64 0 -109.5 45t-45.5 111t45.5 111.5t109.5 45.5
q65 0 110.5 -45.5t45.5 -111.5t-45.5 -111t-110.5 -45zM996 1276q-65 0 -110.5 45t-45.5 111t45.5 111.5t110.5 45.5t110 -45.5t45 -111.5t-45 -111t-110 -45z" />
    <glyph glyph-name="omicrontonosgreek" unicode="&#x3cc;" horiz-adv-x="1283" 
d="M595 215q122 0 210 122t88 291q0 123 -53 192t-148 69q-130 0 -216.5 -121t-86.5 -301q0 -116 55.5 -184t150.5 -68zM708 1127q221 0 355 -132t134 -351q0 -141 -47 -265.5t-129 -212.5t-196.5 -139t-245.5 -51q-222 0 -357 132.5t-135 349.5q0 190 80 343t222 239.5
t319 86.5zM637 1251l124 354h259l-176 -354h-207z" />
    <glyph glyph-name="upsilontonosgreek" unicode="&#x3cd;" horiz-adv-x="1240" 
d="M848 1103h277q32 -114 32 -281q0 -412 -167 -629t-470 -217q-204 0 -316 94.5t-112 264.5q0 68 23 183l124 585h275l-128 -608q-14 -66 -14 -119q1 -147 174 -147q157 0 243 153.5t86 434.5q0 164 -27 286zM613 1251l124 354h259l-176 -354h-207z" />
    <glyph glyph-name="omegatonosgreek" unicode="&#x3ce;" horiz-adv-x="1674" 
d="M1579 644q0 -187 -66.5 -340.5t-183.5 -240.5t-260 -87q-123 0 -191 53t-93 170h-19q-102 -223 -343 -223q-170 0 -261.5 106.5t-91.5 303.5q0 190 77.5 385t206.5 332h288q-136 -155 -212 -337.5t-76 -358.5q0 -85 35 -131.5t100 -46.5q146 0 186 182l82 377h264
l-76 -356q-7 -32 -7 -67q0 -65 33 -100.5t93 -35.5q105 0 169 114t64 306q0 256 -123 454h288q117 -181 117 -459zM837 1251l124 354h259l-176 -354h-207z" />
    <glyph glyph-name="uni0400" unicode="&#x400;" horiz-adv-x="1293" 
d="M1077 258l-52 -258h-957l307 1443h956l-53 -258h-652l-75 -337h616l-50 -239h-615l-78 -351h653zM793 1591l-128 324h274l62 -324h-208z" />
    <glyph glyph-name="Iocyrillic" unicode="&#x401;" horiz-adv-x="1293" 
d="M1077 258l-52 -258h-957l307 1443h956l-53 -258h-652l-75 -337h616l-50 -239h-615l-78 -351h653zM678 1601q-65 0 -110.5 45.5t-45.5 110.5q0 66 45.5 111.5t110.5 45.5t110.5 -45.5t45.5 -111.5q0 -65 -45.5 -110.5t-110.5 -45.5zM1159 1601q-64 0 -109.5 45.5
t-45.5 110.5q0 66 45.5 111.5t109.5 45.5q65 0 110.5 -45.5t45.5 -111.5q0 -65 -45.5 -110.5t-110.5 -45.5z" />
    <glyph glyph-name="Djecyrillic" unicode="&#x402;" horiz-adv-x="1790" 
d="M396 0l253 1185h-422l54 258h1148l-54 -258h-422l-86 -398h15q131 119 325 119q216 0 333.5 -119.5t117.5 -313.5q0 -111 -43 -210t-120 -173.5t-189.5 -118t-244.5 -43.5q-55 0 -98.5 4t-58.5 8l-16 5l51 244q35 -12 122 -12q125 0 204.5 74.5t79.5 183.5
q0 94 -58.5 149.5t-169.5 55.5q-96 0 -181.5 -47t-132.5 -111l-103 -482h-304z" />
    <glyph glyph-name="Gjecyrillic" unicode="&#x403;" horiz-adv-x="1231" 
d="M373 0h-305l307 1443h936l-54 -258h-630zM963 1591h-208l198 324h275z" />
    <glyph glyph-name="Ecyrillic" unicode="&#x404;" horiz-adv-x="1536" 
d="M1409 478q-61 -237 -243 -376t-434 -139q-298 0 -454 197t-114 542q32 348 240.5 563t528.5 215q158 0 288.5 -63.5t207 -180t78.5 -262.5v-24h-298q-7 121 -88 191.5t-208 70.5q-148 0 -263.5 -99t-159.5 -262h572l-49 -241h-556q-13 -177 70.5 -279t236.5 -102
q123 0 214 68t134 181h297z" />
    <glyph glyph-name="Dzecyrillic" unicode="&#x405;" horiz-adv-x="1382" 
d="M75 412h292q16 -92 99 -148t201 -56q122 0 198 52t76 137q0 63 -49.5 105.5t-166.5 79.5l-150 47q-160 50 -247.5 152.5t-87.5 241.5q0 130 73.5 234.5t203.5 163.5t291 59q237 0 389.5 -124.5t159.5 -322.5h-285q-14 91 -89.5 146.5t-186.5 55.5q-106 0 -177.5 -50
t-71.5 -126q0 -61 46.5 -105.5t147.5 -76.5l148 -46q184 -58 270 -152t86 -240q0 -214 -165.5 -345t-434.5 -131q-248 0 -402.5 120t-167.5 329z" />
    <glyph glyph-name="Icyrillic" unicode="&#x406;" horiz-adv-x="673" 
d="M372 0h-304l307 1443h304z" />
    <glyph glyph-name="Yicyrillic" unicode="&#x407;" horiz-adv-x="673" 
d="M372 0h-304l307 1443h304zM352 1601q-65 0 -110.5 45.5t-45.5 110.5q0 66 45.5 111.5t110.5 45.5t110.5 -45.5t45.5 -111.5q0 -65 -45.5 -110.5t-110.5 -45.5zM833 1601q-64 0 -109.5 45.5t-45.5 110.5q0 66 45.5 111.5t109.5 45.5q65 0 110.5 -45.5t45.5 -111.5
q0 -65 -45.5 -110.5t-110.5 -45.5z" />
    <glyph glyph-name="Jecyrillic" unicode="&#x408;" horiz-adv-x="1249" 
d="M53 382q0 21 1 31h293v-9q1 -77 49.5 -122t130.5 -45q167 0 212 209l213 997h302l-222 -1042q-44 -213 -176.5 -325.5t-341.5 -112.5q-210 0 -338 116.5t-123 302.5z" />
    <glyph glyph-name="Ljecyrillic" unicode="&#x409;" horiz-adv-x="2243" 
d="M592 573q-31 -118 -64.5 -205.5t-80 -162t-103 -121t-133 -72t-172.5 -25.5q-67 0 -106 13l56 272q37 -8 66 -8q98 0 159 85.5t103 244.5l224 849h993l-99 -459h207q228 0 360 -116t132 -320q0 -236 -169 -392t-443 -156h-599l254 1185h-418zM1579 736h-195l-107 -491
h238q136 0 225 77.5t89 195.5q0 107 -66.5 162.5t-183.5 55.5z" />
    <glyph glyph-name="Njecyrillic" unicode="&#x40a;" horiz-adv-x="2267" 
d="M955 0l132 620h-583l-133 -620h-303l307 1443h304l-123 -571h583l123 571h304l-123 -571h231q218 0 346.5 -102t128.5 -276q0 -214 -163 -354t-432 -140h-599zM1309 245h243q131 0 210.5 60.5t79.5 156.5q0 84 -60 125.5t-165 41.5h-224z" />
    <glyph glyph-name="Tshecyrillic" unicode="&#x40b;" horiz-adv-x="1830" 
d="M1115 640q-93 0 -176 -44.5t-136 -113.5l-104 -482h-304l254 1185h-422l53 258h1148l-53 -258h-422l-87 -397h17q147 118 337 118q159 0 261.5 -71t136 -191.5t0.5 -272.5l-79 -371h-304l80 373q27 122 -25 194.5t-175 72.5z" />
    <glyph glyph-name="Kjecyrillic" unicode="&#x40c;" horiz-adv-x="1463" 
d="M1316 1915l-265 -324h-208l198 324h275zM1572 1443l-740 -726l452 -717h-340l-391 598h-53l-128 -598h-304l307 1443h304l-130 -605h51l615 605h357z" />
    <glyph glyph-name="uni040D" unicode="&#x40d;" horiz-adv-x="1638" 
d="M1032 0l205 952h-18l-853 -952h-298l307 1443h305l-207 -952h18l855 952h297l-307 -1443h-304zM949 1591l-128 324h274l62 -324h-208z" />
    <glyph glyph-name="Ushortcyrillic" unicode="&#x40e;" horiz-adv-x="1427" 
d="M273 -13q-82 0 -117 14l52 255q27 -9 84 -9q134 0 221 101l-243 1095h317l140 -786h18l468 786h329l-674 -1048q-67 -104 -125.5 -174.5t-129.5 -126t-154.5 -81.5t-185.5 -26zM962 1579q-178 0 -274.5 98.5t-84.5 238.5l200 -1q-4 -77 40.5 -122t125.5 -45
q158 0 195 167h202q-22 -154 -128.5 -245t-275.5 -91z" />
    <glyph glyph-name="Dzhecyrillic" unicode="&#x40f;" horiz-adv-x="1609" 
d="M1307 0h-478l-61 -285h-283l61 285h-478l307 1443h302l-254 -1184h633l254 1184h304z" />
    <glyph glyph-name="Acyrillic" unicode="&#x410;" horiz-adv-x="1521" 
d="M884 1142l-304 -565h381l-58 565h-19zM1010 0l-35 344h-509l-186 -344h-315l820 1443h349l187 -1443h-311z" />
    <glyph glyph-name="Becyrillic" unicode="&#x411;" horiz-adv-x="1401" 
d="M668 0h-599l306 1443h965l-54 -258h-659l-62 -281h223q228 0 360 -103.5t132 -284.5q0 -223 -169 -369.5t-443 -146.5zM423 245h238q136 0 225 68.5t89 171.5q0 89 -64 135.5t-177 46.5h-218z" />
    <glyph glyph-name="Vecyrillic" unicode="&#x412;" horiz-adv-x="1430" 
d="M754 0h-691l307 1443h589q186 0 299.5 -85.5t113.5 -225.5q0 -142 -91.5 -245.5t-234.5 -123.5l-2 -19q119 -22 188.5 -99t69.5 -189q0 -200 -154 -328t-394 -128zM627 1219l-80 -368h240q124 0 202.5 60t78.5 154q0 75 -55.5 114.5t-160.5 39.5h-225zM415 237h287
q129 0 212 66t83 169q0 84 -60.5 129.5t-173.5 45.5h-259z" />
    <glyph glyph-name="Gecyrillic" unicode="&#x413;" horiz-adv-x="1231" 
d="M373 0h-305l307 1443h936l-54 -258h-630z" />
    <glyph glyph-name="Decyrillic" unicode="&#x414;" horiz-adv-x="1601" 
d="M574 612q-35 -126 -72.5 -205.5t-90.5 -130.5l-4 -18h586l201 928h-457zM196 0l-61 -285h-273l114 543h101q81 51 131.5 140.5t92.5 243.5l222 801h1028l-254 -1185h180l-114 -543h-273l61 285h-955z" />
    <glyph glyph-name="Iecyrillic" unicode="&#x415;" horiz-adv-x="1293" 
d="M1077 258l-52 -258h-957l307 1443h956l-53 -258h-652l-75 -337h616l-50 -239h-615l-78 -351h653z" />
    <glyph glyph-name="Zhecyrillic" unicode="&#x416;" horiz-adv-x="2178" 
d="M905 598l-593 -598h-368l736 762l-363 681h318l319 -609h54l130 609h297l-130 -609h53l581 609h357l-704 -735l396 -708h-341l-335 598h-55l-129 -598h-297l129 598h-55z" />
    <glyph glyph-name="Zecyrillic" unicode="&#x417;" horiz-adv-x="1364" 
d="M491 616l50 244h202q120 0 197 57.5t77 147.5q0 81 -54 127t-155 46q-107 0 -187 -55t-106 -148h-279q48 207 208.5 326t393.5 119q227 0 353.5 -104t126.5 -268q0 -146 -95 -244.5t-250 -122.5l-5 -18q123 -21 191.5 -96t68.5 -194q0 -96 -43 -182t-120 -149.5
t-191 -101t-247 -37.5q-266 0 -409 127t-135 337h286q-2 -95 66 -154t197 -59q125 0 205 63t80 158q0 90 -61 135.5t-178 45.5h-187z" />
    <glyph glyph-name="Iicyrillic" unicode="&#x418;" horiz-adv-x="1638" 
d="M1032 0l205 952h-18l-853 -952h-298l307 1443h305l-207 -952h18l855 952h297l-307 -1443h-304z" />
    <glyph glyph-name="Iishortcyrillic" unicode="&#x419;" horiz-adv-x="1638" 
d="M1032 0l205 952h-18l-853 -952h-298l307 1443h305l-207 -952h18l855 952h297l-307 -1443h-304zM1071 1579q-178 0 -274.5 98.5t-84.5 238.5l200 -1q-4 -77 40.5 -122t125.5 -45q158 0 195 167h202q-22 -154 -128.5 -245t-275.5 -91z" />
    <glyph glyph-name="Kacyrillic" unicode="&#x41a;" horiz-adv-x="1463" 
d="M1572 1443l-740 -726l452 -717h-340l-391 598h-53l-128 -598h-304l307 1443h304l-130 -605h51l615 605h357z" />
    <glyph glyph-name="Elcyrillic" unicode="&#x41b;" horiz-adv-x="1534" 
d="M1232 0h-305l254 1185h-422l-167 -612q-39 -147 -83 -249t-108.5 -181t-154 -117.5t-207.5 -38.5q-67 0 -106 13l55 272q37 -8 67 -8q97 0 158 85.5t104 244.5l224 849h998z" />
    <glyph glyph-name="Emcyrillic" unicode="&#x41c;" horiz-adv-x="1899" 
d="M350 0h-282l307 1443h347l186 -974h18l610 974h368l-307 -1443h-281l207 965h-16l-560 -887h-201l-173 887h-16z" />
    <glyph glyph-name="Encyrillic" unicode="&#x41d;" horiz-adv-x="1625" 
d="M1324 0h-305l129 603h-648l-129 -603h-303l307 1443h304l-125 -582h648l125 582h304z" />
    <glyph glyph-name="Ocyrillic" unicode="&#x41e;" horiz-adv-x="1638" 
d="M927 1209q-129 0 -236.5 -80.5t-169.5 -221t-62 -309.5q0 -165 89.5 -265t236.5 -100q129 0 236 79.5t168.5 220t61.5 311.5q0 165 -89 265t-235 100zM773 -37q-185 0 -328 80t-219.5 219.5t-76.5 313.5q0 157 39 297.5t110.5 250.5t168.5 190.5t218 123t254 42.5
q282 0 452 -173t170 -440q0 -197 -60.5 -366t-165 -287t-250 -184.5t-312.5 -66.5z" />
    <glyph glyph-name="Pecyrillic" unicode="&#x41f;" horiz-adv-x="1609" 
d="M1307 0h-302l253 1184h-633l-253 -1184h-304l307 1443h1239z" />
    <glyph glyph-name="Ercyrillic" unicode="&#x420;" horiz-adv-x="1388" 
d="M375 1443h527q214 0 343.5 -115.5t129.5 -306.5q0 -263 -172.5 -418t-451.5 -155h-282l-97 -448h-303zM628 1195l-110 -502h229q145 0 233 81.5t88 217.5q0 99 -62.5 151t-175.5 52h-202z" />
    <glyph glyph-name="Escyrillic" unicode="&#x421;" horiz-adv-x="1553" 
d="M1227 932v14q-5 120 -88.5 193t-216.5 73q-129 0 -236 -81t-168 -224t-61 -318q0 -166 84.5 -262.5t230.5 -96.5q123 0 220 64t132 170h299q-47 -228 -231 -364.5t-446 -136.5q-272 0 -435 165t-163 440q0 263 102 471.5t283 324.5t408 116q163 0 296.5 -66t209.5 -182
t76 -257q0 -28 -2 -43h-294z" />
    <glyph glyph-name="Tecyrillic" unicode="&#x422;" horiz-adv-x="1369" 
d="M720 0h-304l254 1185h-432l53 258h1168l-53 -258h-432z" />
    <glyph glyph-name="Ucyrillic" unicode="&#x423;" horiz-adv-x="1427" 
d="M273 -13q-82 0 -117 14l52 255q27 -9 84 -9q134 0 221 101l-243 1095h317l140 -786h18l468 786h329l-674 -1048q-67 -104 -125.5 -174.5t-129.5 -126t-154.5 -81.5t-185.5 -26z" />
    <glyph glyph-name="Efcyrillic" unicode="&#x424;" horiz-adv-x="1866" 
d="M959 -31h-299l33 154q-255 10 -402.5 148t-147.5 365q0 297 222 486.5t583 201.5l32 150h299l-32 -150q255 -10 402.5 -148.5t147.5 -366.5q0 -295 -222 -484.5t-583 -201.5zM453 647q0 -122 77.5 -194t215.5 -79l153 700q-195 -10 -320.5 -129.5t-125.5 -297.5z
M1488 794q0 126 -77 199t-217 80l-153 -699q195 10 321 128.5t126 291.5z" />
    <glyph glyph-name="Xacyrillic" unicode="&#x425;" horiz-adv-x="1514" 
d="M-19 0l629 744l-310 699h340l211 -494h18l400 494h337l-635 -732l323 -711h-334l-220 485h-18l-409 -485h-332z" />
    <glyph glyph-name="Tsecyrillic" unicode="&#x426;" horiz-adv-x="1665" 
d="M1427 -285h-274l61 285h-1146l308 1443h302l-254 -1185h633l254 1185h304l-255 -1185h180z" />
    <glyph glyph-name="Checyrillic" unicode="&#x427;" horiz-adv-x="1520" 
d="M1218 0h-305l122 572h-18q-120 -78 -322 -78q-173 0 -287.5 75.5t-155 206t-5.5 295.5l79 372h302l-80 -374q-31 -142 27 -224t201 -82q206 0 317 91l127 589h305z" />
    <glyph glyph-name="Shacyrillic" unicode="&#x428;" horiz-adv-x="2098" 
d="M68 0l307 1443h304l-254 -1185h408l254 1185h304l-254 -1185h408l254 1185h304l-307 -1443h-1728z" />
    <glyph glyph-name="Shchacyrillic" unicode="&#x429;" horiz-adv-x="2147" 
d="M2103 1443l-252 -1185h180l-121 -543h-274l66 285h-210h-1424l307 1443h304l-254 -1185h408l254 1185h304l-254 -1185h408l254 1185h304z" />
    <glyph glyph-name="Hardsigncyrillic" unicode="&#x42a;" horiz-adv-x="1628" 
d="M908 0h-600l255 1186h-335l53 257h638l-99 -459h207q228 0 360.5 -116t132.5 -320q0 -236 -169.5 -392t-442.5 -156zM965 736h-195l-107 -491h238q136 0 225 77.5t89 195.5q0 107 -66.5 162.5t-183.5 55.5z" />
    <glyph glyph-name="Yericyrillic" unicode="&#x42b;" horiz-adv-x="2006" 
d="M725 736h-195l-107 -491h238q136 0 225 77.5t89 195.5q0 107 -66.5 162.5t-183.5 55.5zM68 0l307 1443h304l-99 -459h207q228 0 360.5 -116t132.5 -320q0 -236 -169.5 -392t-442.5 -156h-600zM1710 0h-304l307 1443h304z" />
    <glyph glyph-name="Softsigncyrillic" unicode="&#x42c;" horiz-adv-x="1388" 
d="M725 736h-195l-107 -491h238q136 0 225 77.5t89 195.5q0 107 -66.5 162.5t-183.5 55.5zM68 0l307 1443h304l-99 -459h207q228 0 360.5 -116t132.5 -320q0 -236 -169.5 -392t-442.5 -156h-600z" />
    <glyph glyph-name="Ereversedcyrillic" unicode="&#x42d;" horiz-adv-x="1535" 
d="M680 -37q-244 0 -404.5 142t-168.5 373h298q12 -114 92 -180.5t202 -66.5q156 0 271.5 103.5t157.5 275.5h-575l51 241h554q7 170 -75.5 266.5t-233.5 96.5q-127 0 -219 -70.5t-136 -193.5h-297q60 249 243 389.5t441 140.5q297 0 453 -197t114 -542q-32 -348 -240 -563
t-528 -215z" />
    <glyph glyph-name="IUcyrillic" unicode="&#x42e;" horiz-adv-x="2193" 
d="M1354 227q125 0 231 83t167 223t61 302q0 176 -86.5 278.5t-225.5 102.5q-126 0 -232 -80.5t-167 -219.5t-61 -304q0 -179 86.5 -282t226.5 -103zM554 861h211q71 279 272 449t477 170q270 0 438.5 -171t168.5 -455q0 -247 -98 -450.5t-276 -322t-401 -118.5
q-276 0 -444.5 168.5t-168.5 461.5v10h-232l-130 -603h-303l307 1443h304z" />
    <glyph glyph-name="IAcyrillic" unicode="&#x42f;" horiz-adv-x="1453" 
d="M792 738h212l100 460h-248q-136 0 -225 -73t-89 -184q0 -99 66.5 -151t183.5 -52zM783 507l-451 -507h-362l499 562q-111 49 -171.5 142.5t-60.5 219.5q0 108 45 203.5t124.5 165t195.5 110t252 40.5h604l-307 -1443h-304l109 507h-173z" />
    <glyph glyph-name="acyrillic" unicode="&#x430;" horiz-adv-x="1222" 
d="M502 202q93 0 165 52t90 132l21 95l-228 -8q-100 -4 -156.5 -43t-56.5 -104q0 -55 46 -89.5t119 -34.5zM379 -17q-140 0 -234 86t-94 215q0 168 129.5 266.5t361.5 105.5l274 9l15 68q5 25 5 40q0 57 -49 90.5t-133 33.5q-147 0 -192 -98h-275q35 151 167.5 239.5
t320.5 88.5q202 0 325 -89.5t123 -235.5q0 -50 -9 -89l-151 -713h-283l29 136h-18q-47 -71 -131 -112t-181 -41z" />
    <glyph glyph-name="becyrillic" unicode="&#x431;" horiz-adv-x="1303" 
d="M686 838q-130 0 -213 -108.5t-83 -269.5q0 -114 57 -179.5t157 -65.5q120 0 205.5 105.5t85.5 256.5q0 122 -55.5 191.5t-153.5 69.5zM857 1472l148 6q77 3 151.5 14t110 19.5t37.5 10.5l-48 -235q-10 -4 -29.5 -11t-92 -20t-159.5 -16l-143 -5q-94 -3 -165 -28.5
t-121.5 -74t-85.5 -109.5t-65 -149h18q128 190 355 190q199 0 312.5 -124t113.5 -326q0 -135 -42.5 -253t-120 -205t-194 -137t-256.5 -50q-200 0 -328 120t-145 322q-12 156 42 379q40 164 94 281.5t136.5 208.5t201 138.5t275.5 53.5z" />
    <glyph glyph-name="vecyrillic" unicode="&#x432;" horiz-adv-x="1229" 
d="M35 0l234 1103h531q157 0 244.5 -66.5t87.5 -183.5q0 -103 -72 -175.5t-185 -92.5l-4 -19q100 -14 155 -67.5t55 -137.5q0 -158 -132 -259.5t-350 -101.5h-564zM612 469h-189l-60 -277h204q98 0 157.5 45t59.5 117q0 115 -172 115zM695 911h-177l-57 -260h171
q95 0 148 44t53 111q0 105 -138 105z" />
    <glyph glyph-name="gecyrillic" unicode="&#x433;" horiz-adv-x="998" 
d="M978 874h-463l-187 -874h-293l234 1103h756z" />
    <glyph glyph-name="decyrillic" unicode="&#x434;" horiz-adv-x="1370" 
d="M797 229l140 646h-339l-101 -345q-54 -187 -137 -283l-3 -18h440zM126 -285h-267l109 514h85q118 62 189 321l156 553h877l-186 -874h164l-108 -514h-266l61 285h-753z" />
    <glyph glyph-name="iecyrillic" unicode="&#x435;" horiz-adv-x="1271" 
d="M411 669h479q3 18 3 38q0 85 -55 140.5t-149 55.5q-99 0 -174 -64t-104 -170zM592 -24q-218 0 -353 127t-135 347q0 302 166 489.5t431 187.5q201 0 333 -127t132 -335q0 -82 -17 -180h-770q0 -4 -0.5 -15.5t-0.5 -15.5q0 -122 66 -186.5t166 -64.5q163 0 218 114h280
q-38 -154 -176.5 -247.5t-339.5 -93.5z" />
    <glyph glyph-name="zhecyrillic" unicode="&#x436;" horiz-adv-x="1744" 
d="M1823 1103l-489 -536l266 -567h-319l-218 462h-59l-99 -462h-287l99 462h-63l-398 -462h-346l529 613l-233 490h296l198 -434h60l92 434h287l-93 -434h57l386 434h334z" />
    <glyph glyph-name="zecyrillic" unicode="&#x437;" horiz-adv-x="1183" 
d="M1038 362q0 -163 -148.5 -274.5t-368.5 -111.5q-225 0 -349 110t-113 290h276q0 -77 54.5 -119.5t142.5 -42.5q92 0 151.5 39.5t59.5 103.5q0 107 -164 107h-151l42 196h146q85 0 132 37.5t47 92.5q0 48 -41 76.5t-113 28.5q-169 0 -212 -148h-277q39 185 173 282.5
t351 97.5q175 0 296 -83.5t121 -211.5q0 -92 -60 -160.5t-151 -87.5l-4 -18q160 -45 160 -204z" />
    <glyph glyph-name="iicyrillic" unicode="&#x438;" horiz-adv-x="1327" 
d="M324 0h-289l234 1103h288l-147 -675h18l576 675h288l-234 -1103h-288l149 684h-18z" />
    <glyph glyph-name="iishortcyrillic" unicode="&#x439;" horiz-adv-x="1327" 
d="M324 0h-289l234 1103h288l-147 -675h18l576 675h288l-234 -1103h-288l149 684h-18zM843 1248q-78 0 -142.5 20.5t-106 55t-69 79t-36.5 93t-3 97.5h202q-8 -77 32.5 -126.5t129.5 -49.5q163 0 193 176h202q-16 -157 -123 -251t-279 -94z" />
    <glyph glyph-name="kacyrillic" unicode="&#x43a;" horiz-adv-x="1186" 
d="M1262 1103l-523 -527l301 -576h-324l-235 457h-55l-98 -457h-293l234 1103h293l-92 -430h52l405 430h335z" />
    <glyph glyph-name="elcyrillic" unicode="&#x43b;" horiz-adv-x="1273" 
d="M510 517q-39 -142 -80 -236.5t-98.5 -163t-132.5 -99.5t-177 -31q-55 0 -92 13l53 256q24 -7 62 -7q68 0 119 72.5t91 218.5l153 563h830l-234 -1103h-293l187 874h-287z" />
    <glyph glyph-name="emcyrillic" unicode="&#x43c;" horiz-adv-x="1652" 
d="M309 0h-274l234 1103h377l136 -706h18l443 706h374l-234 -1103h-276l156 731h-18l-423 -669h-203l-135 669h-19z" />
    <glyph glyph-name="encyrillic" unicode="&#x43d;" horiz-adv-x="1310" 
d="M35 0l234 1103h293l-90 -423h419l91 423h293l-234 -1103h-293l96 451h-419l-97 -451h-293z" />
    <glyph glyph-name="ocyrillic" unicode="&#x43e;" horiz-adv-x="1319" 
d="M613 215q122 0 210 122t88 291q0 123 -53 192t-148 69q-130 0 -217 -121t-87 -301q0 -116 56 -184t151 -68zM726 1127q221 0 355.5 -132t134.5 -351q0 -189 -80.5 -342t-222.5 -239.5t-317 -86.5q-222 0 -357.5 132.5t-135.5 349.5q0 190 80.5 343t223 239.5t319.5 86.5z
" />
    <glyph glyph-name="pecyrillic" unicode="&#x43f;" horiz-adv-x="1300" 
d="M738 0l187 874h-410l-187 -874h-293l234 1103h996l-234 -1103h-293z" />
    <glyph glyph-name="ercyrillic" unicode="&#x440;" horiz-adv-x="1354" 
d="M645 230q131 0 221 120.5t90 298.5q0 111 -56 171t-150 60q-131 0 -223.5 -122.5t-92.5 -292.5q0 -111 58 -173t153 -62zM251 -366h-292l313 1469h283l-33 -153h18q59 80 146 125.5t194 45.5q167 0 272.5 -115.5t105.5 -306.5q0 -203 -73 -367t-199.5 -256.5
t-281.5 -92.5q-118 0 -201.5 59.5t-111.5 157.5h-18z" />
    <glyph glyph-name="escyrillic" unicode="&#x441;" horiz-adv-x="1228" 
d="M710 1127q193 0 317 -107t137 -254q2 -13 2 -43h-276q-4 76 -59.5 120.5t-139.5 44.5q-131 0 -215 -122t-84 -303q0 -120 58 -183t150 -63q82 0 141 40.5t84 115.5h279q-29 -172 -169.5 -284.5t-351.5 -112.5q-220 0 -351 126.5t-131 338.5q0 195 76 351t215.5 245.5
t317.5 89.5z" />
    <glyph glyph-name="tecyrillic" unicode="&#x442;" horiz-adv-x="1056" 
d="M1118 1103l-47 -229h-326l-187 -874h-293l187 874h-327l47 229h946z" />
    <glyph glyph-name="ucyrillic" unicode="&#x443;" horiz-adv-x="1228" 
d="M99 -403q-19 0 -73.5 3t-61.5 4l48 233q20 -6 82 -6q151 0 211 122l22 44l-144 1106h297l64 -822h18l405 822h312l-630 -1143q-106 -200 -231.5 -281.5t-318.5 -81.5z" />
    <glyph glyph-name="efcyrillic" unicode="&#x444;" horiz-adv-x="1721" 
d="M811 -366h-289l73 348q-222 7 -358 134t-136 339q0 139 49.5 259t141.5 209.5t232.5 142.5t312.5 56l72 335h289l-72 -335q223 -8 359 -134.5t136 -339.5q0 -139 -49.5 -259t-142 -209.5t-233 -142t-312.5 -55.5zM1322 623q0 125 -65.5 196.5t-179.5 74.5l-148 -685
q123 5 214.5 67t135 153t43.5 194zM399 480q0 -125 66 -196.5t179 -74.5l148 685q-123 -5 -214.5 -67t-135 -153t-43.5 -194z" />
    <glyph glyph-name="hacyrillic" unicode="&#x445;" horiz-adv-x="1212" 
d="M574 354h-18l-277 -354h-319l463 552l-231 551h318l129 -358h18l270 358h325l-466 -554l235 -549h-307z" />
    <glyph glyph-name="tsecyrillic" unicode="&#x446;" horiz-adv-x="1361" 
d="M1136 -285h-266l61 285h-896l234 1103h293l-187 -874h410l187 874h293l-187 -874h166z" />
    <glyph glyph-name="checyrillic" unicode="&#x447;" horiz-adv-x="1260" 
d="M991 0h-293l91 425h-18q-95 -77 -262 -77q-192 0 -283.5 121t-48.5 325l65 309h293l-64 -297q-21 -100 20 -153.5t140 -53.5q136 0 206 59l95 445h293z" />
    <glyph glyph-name="shacyrillic" unicode="&#x448;" horiz-adv-x="1809" 
d="M35 0l234 1103h294l-187 -874h313l186 874h293l-186 -874h313l186 874h293l-234 -1103h-1505z" />
    <glyph glyph-name="shchacyrillic" unicode="&#x449;" horiz-adv-x="1868" 
d="M1774 1103l-185 -874h162l-113 -514h-269l65 285h-187h-1212l234 1103h294l-187 -874h313l186 874h293l-186 -874h313l186 874h293z" />
    <glyph glyph-name="hardsigncyrillic" unicode="&#x44a;" horiz-adv-x="1368" 
d="M733 0h-512l187 874h-283l47 229h576l-68 -318h197q172 0 274 -89t102 -233q0 -198 -146.5 -330.5t-373.5 -132.5zM807 559h-173l-72 -330h173q97 0 160 58.5t63 142.5q0 60 -40 94.5t-111 34.5z" />
    <glyph glyph-name="yericyrillic" unicode="&#x44b;" horiz-adv-x="1662" 
d="M1100 0l234 1103h293l-234 -1103h-293zM619 559h-171l-72 -330h171q97 0 160 58.5t63 142.5q0 60 -40 94.5t-111 34.5zM35 0l234 1103h293l-68 -318h195q172 0 274 -89t102 -233q0 -198 -146.5 -330.5t-373.5 -132.5h-510z" />
    <glyph glyph-name="softsigncyrillic" unicode="&#x44c;" horiz-adv-x="1180" 
d="M619 559h-171l-72 -330h171q97 0 160 58.5t63 142.5q0 60 -40 94.5t-111 34.5zM35 0l234 1103h293l-68 -318h195q172 0 274 -89t102 -233q0 -198 -146.5 -330.5t-373.5 -132.5h-510z" />
    <glyph glyph-name="ereversedcyrillic" unicode="&#x44d;" horiz-adv-x="1231" 
d="M125 725q52 191 189.5 296.5t341.5 105.5q221 0 348.5 -128.5t127.5 -349.5q0 -193 -73 -345t-211 -240t-320 -88q-211 0 -329.5 107.5t-126.5 292.5h274q6 -73 56.5 -116.5t132.5 -43.5q108 0 185 70.5t98 178.5h-390l40 196h376q1 106 -56 165.5t-157 59.5
q-79 0 -139.5 -42.5t-93.5 -118.5h-273z" />
    <glyph glyph-name="iucyrillic" unicode="&#x44e;" horiz-adv-x="1798" 
d="M1090 -31q-214 0 -343.5 122.5t-139.5 331.5q0 5 0.5 14.5t0.5 13.5h-183l-97 -451h-293l234 1103h293l-90 -423h164q57 202 210.5 324.5t368.5 122.5q222 0 352 -134t130 -360q0 -187 -73 -337t-212.5 -238.5t-321.5 -88.5zM1113 215q115 0 200 114.5t85 281.5
q0 129 -54.5 203.5t-149.5 74.5q-128 0 -209 -118.5t-81 -293.5q0 -120 55.5 -191t153.5 -71z" />
    <glyph glyph-name="iacyrillic" unicode="&#x44f;" horiz-adv-x="1213" 
d="M602 567h169l68 308h-169q-98 0 -159.5 -52t-61.5 -127q0 -60 40.5 -94.5t112.5 -34.5zM651 0l77 356h-107l-320 -356h-348l379 410q-84 39 -130.5 110t-46.5 165q0 84 34.5 159t98.5 133t163 92t220 34h507l-234 -1103h-293z" />
    <glyph glyph-name="uni0450" unicode="&#x450;" horiz-adv-x="1271" 
d="M411 669h479q3 18 3 38q0 85 -55 140.5t-149 55.5q-99 0 -174 -64t-104 -170zM592 -24q-218 0 -353 127t-135 347q0 302 166 489.5t431 187.5q201 0 333 -127t132 -335q0 -82 -17 -180h-770q0 -4 -0.5 -15.5t-0.5 -15.5q0 -122 66 -186.5t166 -64.5q163 0 218 114h280
q-38 -154 -176.5 -247.5t-339.5 -93.5zM632 1250l-134 354h279l63 -354h-208z" />
    <glyph glyph-name="iocyrillic" unicode="&#x451;" horiz-adv-x="1271" 
d="M411 669h479q3 18 3 38q0 85 -55 140.5t-149 55.5q-99 0 -174 -64t-104 -170zM592 -24q-218 0 -353 127t-135 347q0 302 166 489.5t431 187.5q201 0 333 -127t132 -335q0 -82 -17 -180h-770q0 -4 -0.5 -15.5t-0.5 -15.5q0 -122 66 -186.5t166 -64.5q163 0 218 114h280
q-38 -154 -176.5 -247.5t-339.5 -93.5zM527 1276q-64 0 -109.5 45t-45.5 111t45.5 111.5t109.5 45.5q65 0 110.5 -45.5t45.5 -111.5t-45.5 -111t-110.5 -45zM1009 1276q-65 0 -110.5 45t-45.5 111t45.5 111.5t110.5 45.5t110 -45.5t45 -111.5t-45 -111t-110 -45z" />
    <glyph glyph-name="djecyrillic" unicode="&#x452;" horiz-adv-x="1321" 
d="M533 937h18q119 187 333 187q154 0 243.5 -90t89.5 -227q0 -58 -14 -131l-142 -676l-2 -12q-37 -188 -147.5 -279.5t-298.5 -91.5q-69 0 -107 5l48 226q15 -3 46 -3q71 0 110 34t56 109l2 12h2l132 628q10 48 10 84q0 79 -49 125t-134 46q-97 0 -164.5 -62t-89.5 -162
l-140 -659h-292l268 1255h-137l34 162h137l21 98h292l-21 -98h233l-35 -162h-233z" />
    <glyph glyph-name="gjecyrillic" unicode="&#x453;" horiz-adv-x="998" 
d="M978 874h-463l-187 -874h-293l234 1103h756zM776 1250h-208l212 354h278z" />
    <glyph glyph-name="ecyrillic" unicode="&#x454;" horiz-adv-x="1235" 
d="M1112 376q-57 -189 -191 -294.5t-330 -105.5q-237 0 -361 130.5t-124 367.5q0 136 43 255.5t120 207t190.5 138.5t247.5 51q204 0 327 -110t134 -291h-275q-8 71 -61.5 116.5t-130.5 45.5q-105 0 -181 -63t-98 -161h392l-40 -196h-380q-2 -118 54 -184t163 -66
q75 0 132.5 43.5t89.5 115.5h279z" />
    <glyph glyph-name="dzecyrillic" unicode="&#x455;" horiz-adv-x="1170" 
d="M179 770q0 161 126.5 259t330.5 98q200 0 322.5 -89.5t133.5 -238.5h-267q-10 52 -61.5 83.5t-127.5 31.5q-77 0 -126.5 -32t-49.5 -82q0 -36 29 -62t93 -47l179 -63q134 -46 194.5 -115t60.5 -175q0 -162 -133 -262t-348 -100q-212 0 -345.5 94.5t-139.5 247.5h281
q12 -57 68 -93t137 -36q85 0 136.5 32t51.5 85q0 36 -25.5 61t-87.5 45l-172 60q-132 45 -196 117.5t-64 180.5z" />
    <glyph glyph-name="icyrillic" unicode="&#x456;" horiz-adv-x="619" 
d="M47 0l234 1103h291l-234 -1103h-291zM496 1268q-68 0 -116.5 49t-48.5 118t48.5 117.5t116.5 48.5t116 -48.5t48 -117.5q0 -70 -48 -118.5t-116 -48.5z" />
    <glyph glyph-name="yicyrillic" unicode="&#x457;" horiz-adv-x="619" 
d="M47 0l234 1103h291l-234 -1103h-291zM363 1301q-56 0 -96 39.5t-40 96.5t40 96.5t96 39.5t96 -39.5t40 -96.5t-40 -96.5t-96 -39.5zM673 1301q-56 0 -96 39.5t-40 96.5t40 96.5t96 39.5t96 -39.5t40 -96.5t-40 -96.5t-96 -39.5z" />
    <glyph glyph-name="jecyrillic" unicode="&#x458;" horiz-adv-x="619" 
d="M573 1103l-247 -1159q-66 -320 -404 -320q-80 0 -138 13l49 225q30 -6 64 -6q62 0 96.5 28t48.5 92l240 1127h291zM496 1268q-68 0 -116.5 49t-48.5 118t48.5 117.5t116.5 48.5t116 -48.5t48 -117.5q0 -70 -48 -118.5t-116 -48.5z" />
    <glyph glyph-name="ljecyrillic" unicode="&#x459;" horiz-adv-x="1850" 
d="M22 -13q-55 0 -92 13l53 256q24 -7 62 -7q130 0 208 283l155 571h830l-69 -318h190q172 0 274 -89t102 -233q0 -198 -146.5 -330.5t-373.5 -132.5h-505l187 874h-286l-101 -358q-39 -143 -80 -238t-98 -163t-132.5 -98t-177.5 -30zM1289 559h-166l-72 -330h166
q97 0 160 58.5t63 142.5q0 60 -40 94.5t-111 34.5z" />
    <glyph glyph-name="njecyrillic" unicode="&#x45a;" horiz-adv-x="1894" 
d="M1089 224h166q98 0 158.5 46t60.5 112q0 53 -38 81.5t-108 28.5h-180zM328 0h-293l234 1103h293l-84 -392h422l84 392h293l-83 -389h187q180 0 284 -84.5t104 -219.5q0 -173 -143 -291.5t-371 -118.5h-505l104 487h-422z" />
    <glyph glyph-name="tshecyrillic" unicode="&#x45b;" horiz-adv-x="1321" 
d="M533 937h18q119 187 333 187q154 0 243.5 -90t89.5 -227q0 -58 -14 -131l-142 -676h-291l132 628q10 48 10 84q0 79 -49 125t-134 46q-97 0 -164.5 -62t-89.5 -162l-140 -659h-292l268 1255h-137l34 162h137l21 98h292l-21 -98h233l-35 -162h-233z" />
    <glyph glyph-name="kjecyrillic" unicode="&#x45c;" horiz-adv-x="1186" 
d="M1146 1604l-282 -354h-208l212 354h278zM1262 1103l-523 -527l301 -576h-324l-235 457h-55l-98 -457h-293l234 1103h293l-92 -430h52l405 430h335z" />
    <glyph glyph-name="uni045D" unicode="&#x45d;" horiz-adv-x="1327" 
d="M324 0h-289l234 1103h288l-147 -675h18l576 675h288l-234 -1103h-288l149 684h-18zM707 1250l-134 354h279l63 -354h-208z" />
    <glyph glyph-name="ushortcyrillic" unicode="&#x45e;" horiz-adv-x="1228" 
d="M99 -403q-19 0 -73.5 3t-61.5 4l48 233q20 -6 82 -6q151 0 211 122l22 44l-144 1106h297l64 -822h18l405 822h312l-630 -1143q-106 -200 -231.5 -281.5t-318.5 -81.5zM798 1248q-78 0 -142.5 20.5t-106 55t-69 79t-36.5 93t-3 97.5h202q-8 -77 32.5 -126.5t129.5 -49.5
q163 0 193 176h202q-16 -157 -123 -251t-279 -94z" />
    <glyph glyph-name="dzhecyrillic" unicode="&#x45f;" horiz-adv-x="1307" 
d="M1038 0h-368l-61 -285h-266l61 285h-369l234 1103h293l-187 -874h417l187 874h293z" />
    </font>
</defs>
</svg>
